<?xml version="1.0" encoding="UTF-8"?><svg id="Layer_1" xmlns="http://www.w3.org/2000/svg" viewBox="0 0 740.03 274"><defs><style>.cls-1{fill:#053228;}</style></defs><path class="cls-1" d="M388.41,116.88c7.89,1.63,15.83-.01,23.57,1.56-4.55,1.68-8.96,3.54-13.82,3.77-1.82.09-3.1.82-4.32,2.53-2.28,3.2-5.36,5.81-7.44,9.22-1.62,2.65-3.36,5.24-4.43,8.2-.33.92-.64,1.81-.4,2.8.95.54,1.26-.34,1.66-.8,3.7-4.27,7.66-8.36,9.91-13.69.49-1.15,1.43-1.93,2.28-2.76.69-.68,1.47-1.47,2.46-.51.83.81,1.22,1.81.57,2.94-2.48,4.25-5.03,8.44-8.75,11.78-2.15,1.93-4.17,3.99-6.57,5.63-.24.16-.28.6-.42.93,1.3.69,2.38.2,3.47-.34,2.51-1.24,4.57-3.08,6.42-5.11,2.26-2.49,4.33-5.16,6.53-7.71,2.28-2.64,3.63-3.05,6.91-1.65,3.18,1.36,6.19,3.06,9.24,4.7,3.78,2.03,7.19,4.77,11.38,6.11,3.7,1.19,4.86,3.09,4.55,7.13-.28,3.78-.33,7.59-.55,11.36-.19,3.15.12,6.44-.14,9.65-.86,10.32-.44,20.7-1.48,31.01-.06.6-.22,1.21-.12,1.78.17,1,.57,1.79,1.92,1.5,7.01-1.52,13.98-3.02,20.84-5.24,6.86-2.23,13.36-5.28,20.11-7.73,4.3-1.57,8.19-3.98,12.37-5.79,4.32-1.87,8.14-4.61,12.2-6.92,1.53-.87,2.49-1.69,2.5-3.46.03-3.51,1.58-6.47,3.39-9.34,2.24-3.56,3.62-7.54,5.49-11.29,1.61-3.24,2.46-6.75,3.55-10.16.93-2.93,1.67-6.02,1.23-9.15-.18-1.26.77-2.28.47-3.57-1.48-.04-2.17,1.34-3.36,1.71-.78.25-1.68.8-2.34-.03-.67-.84-1.2-1.83-.5-2.99.45-.74,1.04-1.31,1.75-1.78,3.22-2.11,6.33-4.39,9.64-6.34,7.58-4.45,13.06-10.8,17.41-18.31,3.55-6.13,5.99-12.69,8.42-19.33,3-8.18,4.53-16.58,5.67-25.13.37-2.83,1.53-5.52,1.74-8.42.16-2.3-.1-6.3-.99-9.13-5.01,3.47-8.96,8.04-13.38,12.04-4.36,3.95-8.67,8.01-12.46,12.56-3.85,4.63-7.69,9.28-11.7,13.77-3.85,4.32-6.71,9.55-11.67,12.96,1.28-5.59,3.97-10.47,7.03-15.47-2.75-2.46-5.93-4.35-9.19-6.07-8.33-4.39-17.19-7.17-26.45-8.95-9.89-1.9-19.76-2.41-29.73-1.1-2.18.28-4.09,1.31-5.88,2.6-5.21,3.74-8.63,8.98-11.99,14.25-1.03,1.62-1.96,3.31-3.02,4.91-1.22,1.85-2.41,3.65-5.49,2.35,1.23,3.05,1.24,5.68,1.29,8.3.03,1.18-.59,2.1-1.47,2.77-.85.65-1.55-.11-2.29-.47-.99-.48-.88-1.34-.83-2.18.15-2.29-.17-4.59-.06-6.83.11-2.19-.61-3.06-2.53-3.44-.57-.11-1.12-.34-1.93-.58-1.17,2.09-2.38,4.27-4.29,5.97-1.63,1.45-3.42,2.17-5.59,2.05-2.82-.16-4.15-1.67-3.72-4.45.65-4.2,2.61-7.69,5.84-10.5,2.8-2.44,7.58-2.4,8.4,2.71.23,1.44.79,1.71,2.03,1.83,1.67.16,3.32.53,4.96.9,1.36.31,2.42.1,2.87-1.35,1.02-3.28,3.24-5.89,4.85-8.83,2.98-5.42,7.69-9.18,12.61-12.63,1.61-1.13,3.6-1.67,5.7-2.01,10.47-1.72,20.78-.97,31.1,1.12,7.32,1.49,14.4,3.7,21.33,6.45,5.98,2.37,11.03,6.25,16.47,9.69,3.95-5.12,8.24-9.97,12.75-14.62,5.01-5.16,10.23-10.1,15.47-15.02,3.24-3.04,6.41-6.16,9.95-8.85,2.93-2.22,5.48-1.37,6.77,2.08.25.67.43,1.38.53,2.09.74,5.47,1.3,10.92-.19,16.39-1.7,6.26-1.63,12.84-3.44,19.13-1.33,4.62-3.31,8.96-4.86,13.47-3.2,9.31-8.01,17.71-14.07,25.4-4.06,5.15-9.02,9.29-14.77,12.5-1.97,1.1-3.72,2.58-5.73,4,3.11,1,3.38,3.46,3.63,5.86.31,3.05-.4,6.03-1.25,8.89-2.19,7.37-5.04,14.51-8.24,21.5-.35.76-.8,1.49-1.32,2.15-2.62,3.27-2.13,7.28-2.5,11.03-.14,1.41,1.14,2.83,2.13,4.03.99,1.2,1.98,2.44,3.14,3.46,6.07,5.28,10.31,11.86,14.25,18.81,4.21,7.44,7.22,15.38,10.92,23.02,3.92,8.1,7.52,16.38,13.27,23.47,4.49,5.53,10.03,10.04,14.66,15.43.71.83,2.31.81,2.5,2.44-2.2.31-3.98-.74-5.61-1.87-7.14-4.93-13.94-10.31-18.82-17.59-3.05-4.55-5.6-9.44-8.32-14.21-3.44-6.04-5.55-12.7-8.81-18.83-5.01-9.44-10.23-18.72-18.21-26.09-.7-.65-1.28-1.44-1.84-2.22-.57-.79-1.16-1.53-2.03-1.98-.21.1-.49.14-.6.29-5.11,7.06-12.53,11-20.02,14.88-8.24,4.27-17.19,6.56-25.93,9.47-4.29,1.43-8.71,1.75-13.05,2.67-2.63.56-5.48-.19-8.15-.97-1.13-.33-2.25-.71-3.53-1.12-.92,9.86-1.81,19.52-2.73,29.18-.91,9.62-1.3,19.3-2.99,28.88-1.55-.32-1.62-1.19-1.76-2-.89-5.24-1.13-10.54-.86-15.82.18-3.48.26-6.95.22-10.42-.05-5.06,1.16-9.97,1.55-14.96.28-3.55.22-7.13.33-11.31-2.06,2.08-3.63,4.11-5.64,5.7-3.89,3.08-9.84,3.05-12.59-3.59-.98-2.38.47-4.52,1.62-6.4,4.08-6.67,10.22-9.41,18.16-8.65-.68-5.73-.93-11.33-.8-16.93.17-7.63.65-15.25,1.03-22.87.23-4.53.2-9.12.28-13.68.03-1.97-.88-2.86-2.55-3.76-4.51-2.44-8.92-5.08-13.23-7.86-1.85-1.19-3.98-1.57-5.88-2.59-1.21-.64-1.88.81-2.53,1.5-2.22,2.36-4.14,5-6.43,7.28-2.73,2.72-5.85,4.94-9.79,5.73-5.54,1.12-9-2.04-8.78-7.64.24-6.22,3.38-11.09,6.66-15.94,1.54-2.27,3.32-4.38,5.01-6.57-4.39-2.34-4.09-2.32-3.9-7.36.12-3.21,2.08-5.56,2.88-8.43,1.12-4,3.26-7.74,5.52-11.3.59-.94,1.13-1.99,2.52-1.26,1.24.65,1.06,1.61.7,2.78-1.67,5.4-4.13,10.47-6.42,15.6-.49,1.1-1.1,2.11-1.18,3.62ZM497.4,186.14c-21.63,11.25-43.27,20.91-67.57,23.43.87,1,1.73,1.53,2.73,2.03,4.21,2.08,8.58,1.88,13.07,1.48,4.92-.43,9.56-1.98,14.3-3.14,3.25-.79,6.47-1.86,9.54-3.18,4.5-1.94,8.99-3.88,13.13-6.66,2.97-2,6.06-3.9,8.84-6.12,2.44-1.95,4.9-4.2,5.96-7.84ZM413.11,222.64c.77.04,1.64-.15,2.48-.74,3.14-2.2,5.02-5.42,6.86-8.62.71-1.22.04-1.92-1.52-1.91-3.66,0-9.43,4.01-10.68,7.41-.77,2.1.39,3.8,2.85,3.87Z"/><path class="cls-1" d="M368.37,216.25c1.06,1.13,2.21.94,2.94,1.54,2.18,1.81,3.87,3.77,3.6,7.02-.45,5.35-2.79,9.94-5.38,14.42-1.42,2.46-3.11,4.82-5.33,7.08,3.94,1.22,4.51,4.36,4.45,8.19,2.76-.39,5.3.07,7.57,2.13,1.1-2.58,2.77-4.3,5.15-5.35,2.63-1.16,5.16-1.43,7.34.74,1.18,1.17,2.39,1.53,3.9,1.1,1.78-.5,3.63-.96,5.11.48,1.98,1.92,4.01,3.88,4.2,6.92.18,2.97-.44,5.67-2.16,8.19-.74,1.09-1.42,1.55-2.63,1.17-1.31-.41-2.48-.91-2.53-2.61-.04-1.29.52-2.27,1.11-3.34.77-1.38,1.13-2.83,0-4.35-1.25-1.67-2.49-1.78-3.64-.01-.65,1-1.09,2.12-1.21,3.36-.09.95-.35,1.88-.59,2.81-.27,1.08-1,1.68-2.11,1.55-1.07-.12-2.07-.31-2.53-1.63-.5-1.44-.27-2.86-.27-4.3,0-.59.29-1.17.33-1.76.09-1.25.82-2.71-.67-3.57-1.02-.58-2.72.51-3.63,2.31-.93,1.82-1.71,3.72-1.55,5.85.08.98.03,1.94-.52,2.79-.63.96-1,2.4-2.58,2.05-1.54-.34-2.6-1.22-2.55-3.01.05-1.68-.03-3.29-1.04-4.82-.74-1.12-1.6-1.94-2.86-1.8-1.52.17-2.13,1.46-2.41,2.82-.35,1.72.03,3.36.87,4.88.35.64.18,1.19-.36,1.56-.62.42-1.04.05-1.5-.45-2.95-3.22-3.48-6.88-1.48-10.65,1.29-2.44,1.02-4.39-.89-6.09-1.12-1-1.09-2.26-1.26-4.05-2.14,2.15-3.68,4.19-5.48,5.96-7.45,7.32-16.43,11.96-26.06,15.52-2.92,1.08-5.97,1.28-9.17,1.05-3.84-.28-7.66-.71-11.5-1-6.55-.5-12.69-2.36-18.68-5.03-5.42-2.42-10.57-5.24-15.3-8.77-6.43-4.8-12.63-9.91-17.33-16.52-1.1-1.54-2.14-3.18-2.47-5.18-.66-3.99.78-6.73,4.47-8.33,5.27-2.29,10.76-3.42,16.47-2.77,2.71.31,4.17-.6,5.44-2.93,2.79-5.11,6.68-9.35,11.04-13.2,4.32-3.82,8.8-7.44,13.67-10.52,8.91-5.63,18.47-8.21,28.81-4.71,4.06,1.37,7.74,3.79,11.27,6.3.39.28.75.56,1.45.52.22-1.22.23-2.54.83-3.73.6-1.17.86-2.44,2.72-2.29,1.84.15,3.35.65,4.11,2.38,1.35,3.06-.04,6.06-3.77,7.65,4.34,3.78,6.69,8.69,8.81,13.73.36.87.84,1,1.61,1.03.86.04,1.36-.32,1.62-1.1.27-.79.65-1.57.79-2.38,1.34-7.86.53-15.29-4.2-22.03-2.76-3.93-4.68-8.4-7.7-12.18-2.24-2.8-4.51-5.58-7.53-7.61-.8-.54-1.57-1.12-2.31-1.73-5.3-4.39-11.33-6.76-18.22-7.7-10.68-1.46-20.67.21-30.47,4.47-4.75,2.06-9.57,3.95-13.8,6.95-6.2,4.38-11.78,9.38-16.17,15.7-5.02,7.22-8.14,15.18-10.19,23.64-.2.81-.37,1.64-.45,2.48-.6,6.45-1.26,12.93-.48,19.38.81,6.68,3.68,12.6,7.78,17.97,3.72,4.88,8.75,8.21,13.49,11.88,1.69,1.31,4.03,1.45,6.1,2.05,1.68.49,3.49.81,5.17,2.91-5.4-.53-10.31-.65-14.48-3.41-4.51-2.98-9.06-6.02-12.46-10.33-3.42-4.34-6.48-8.88-7.87-14.39-3.07-12.2-2.48-24.26,1.14-36.45-1.45-.87-3.2-.66-4.75-.88-5.31-.76-9.91-2.7-13.52-6.79-3.13-3.56-4.46-7.91-5.38-12.4-.97-4.73-1.45-9.51-1.21-14.34.34-6.94-1.08-13.62-2.99-20.21-.75-2.58-1.09-5.19-.95-7.85.17-3.21,1.23-4.63,4.26-5.49,4.38-1.25,8.86-1.24,13.2-.04,10.32,2.85,18.72,8.79,24.97,17.34,3.79,5.19,7.25,10.7,10.3,16.75,6.49-4.53,13.88-7.25,21.06-10.58-.03-1.41-1.11-2.21-1.83-3.02-4.69-5.32-8.58-11.24-12.87-16.86-1.88-2.46-3.48-5.19-4.87-7.97-2.07-4.16-.18-7.15,4.47-7.26,3.46-.08,6.93.04,10.39.12,1.07.03,2.13.12,3.16.6,4.43,2.06,9.18,3.17,13.58,5.57,5.6,3.05,10.29,6.93,14.67,11.35,3.56,3.6,6.45,7.74,9,12.1.53.91,1.14,2.13.94,3.04-.44,2.02.73,2.29,2.12,2.86,6.5,2.64,11.36,7.36,16.1,12.38,5.88,6.22,9.31,13.95,13.71,21.07,3.16,5.11,3.12,11.05,2.07,16.84-.32,1.75-.19,3.62-1.28,5.23ZM328.48,207.96c-5.38-1.69-9.71-4.48-12.22-9.53-.63-1.27-1.36-1.57-2.55-.89-.52.3-1.02.63-1.55.92-5.61,3.06-10.61,7.01-15.37,11.2-3.91,3.44-7.68,7.14-10.17,11.82-2.63,4.95-2.54,5-8.16,4.79-.24,0-.48-.02-.72-.04-4.88-.39-9.54.55-14.05,2.35-2,.79-2.4,1.54-1.83,3.61.22.8.46,1.68.96,2.31,2.1,2.61,4,5.49,6.52,7.64,5.1,4.34,9.92,9.13,15.81,12.45,5.41,3.05,10.69,6.25,16.85,7.88,6.91,1.83,13.93,2.38,20.96,3,2.27.2,4.68.61,6.81-.26,4.99-2.03,10.04-4.01,14.62-6.88,8.67-5.44,15.86-12.5,21.35-21.11,2.16-3.39,4.31-6.93,4.99-11.06.57-3.44-.33-4.93-3.78-5.62-2.35-.47-4.71-.94-7.14-.95-1.33,0-3.41.22-1.91-2.33.35-.6-.26-1.15-.53-1.63-1.87-3.32-3.37-6.92-6.3-9.51-2.96-2.63-5.48-5.9-9.52-7.06-3.24,5.4-3.65,5.76-10.05,8.16-1.2.45-1.37,1.19-1.19,2.22.48,2.71.97,5.43,1.47,8.14.2,1.08.25,2.1-1.23,2.9-1.76-4.02-1.69-8.21-2.08-12.52ZM233.06,170.05c-.16,4.79.06,9.57.93,14.29,1.3,6.99,4.21,12.87,11.6,15.14,2.5.77,5.18.93,7.75,1.49,1.29.28,1.84-.02,2.39-1.3,1.42-3.29,3.02-6.51,4.72-9.67,3.45-6.44,8.64-11.43,13.89-16.35,2.3-2.15,2.41-2.43.52-4.97-2.37-3.17-4.83-6.27-7.2-9.44-6.75-9.02-15.17-15.65-26.25-18.51-3.51-.91-7.02-1.29-10.64-.41-1.49.36-2.01,1.1-1.99,2.49.04,2.29.14,4.58.89,6.77,2.26,6.64,3.64,13.43,3.38,20.49ZM331.72,158.83c-2.01-4.93-5.06-7.85-7.8-11-3.5-4.02-7.77-7.24-12.19-10.02-3.59-2.25-7.67-3.85-11.62-5.58-5.03-2.21-10.3-2.05-15.53-2.52-.42-.04-.98-.08-1.26.84,5.87,9.64,13.74,18.2,18.77,28.61,9.73-2.34,19.35-2.85,29.62-.33Z"/><path class="cls-1" d="M647.25,266.73c-.72,0-1.14.13-1.4-.02-8.27-4.59-17.1-7.97-25.6-12.09-4.7-2.28-9.57-4.18-14.25-6.57-4.76-2.43-8.02-6.18-10.36-10.69-3.99-7.69-7.22-15.72-9.36-24.14-1.37-5.36-2.45-10.76-2.99-16.29-.51-5.24-1.59-10.42-2.67-15.58-.29-1.37-.92-1.92-2.09-2.55-4.84-2.62-9.81-5.01-14.42-8.05-4.64-3.07-8.71-6.81-12.92-10.4-5.31-4.53-10.53-9.1-15.05-14.46-3.48-4.12-5.91-8.77-7.73-13.76-.63-1.75-.18-3.23,1.37-4.79,6.01-6.07,13.69-8.17,21.63-9.81,3.05-.63,6.12-1.27,9.21-1.53,3.58-.3,7.15.44,10.66,1.08,6.85,1.25,13.43,3.37,19.6,6.72,2.63,1.43,5.5,2.43,7.98,4.14.79.54,1.42,1.3,2.33,2.16,2.33-2.48,4.53-5.14,7.17-7.35,6.4-5.37,12.56-10.96,20-15.03,4.03-2.2,8.09-3.99,12.62-5.17-1.19-4.83,0-9.65.18-14.49.31-7.82,1.75-15.46,4.36-22.85,2.26-6.38,5.17-12.4,10.31-17.05.71-.64,1.44-1.29,2.23-1.83,4.13-2.81,6.73-2.5,10.16,1.09,3.32,3.47,5.11,7.89,6.66,12.22,1.33,3.71,2.95,7.31,4.09,11.12,2.02,6.78,3.99,13.6,4.75,20.59.57,5.26,1.72,10.43,2.13,15.69.2,2.6,1.46,4.42,3.42,5.62,4.73,2.92,9,6.47,13.05,10.19,5.37,4.93,10.72,9.89,15.92,15.02,3.62,3.57,6.28,7.89,9.88,11.44,2.01,1.98,2.44,4.74,1.87,7.44-.92,4.29-.66,8.58-.56,13.07,3.14-.51,5.91.48,8.6,1.7,1.31.59,1.96,1.84,1.99,3.19.02.87-.88,1.37-1.63,1.79-.55.31-1.14.38-1.73.13-.44-.19-.88-.4-1.28-.66-3.41-2.14-6.41-1.23-9.16,1.25-1.26,1.14-2.58,2.16-4.1,2.93-.6.31-1.15.25-1.62-.27-.51-.57-.3-1.15.07-1.63,1.23-1.61,2.34-3.38,3.83-4.73,1.51-1.37,1.74-2.9,1.21-4.53-1.39-4.22-1.22-8.54-.83-12.81.16-1.71-.37-2.76-1.29-3.86-6.86-8.23-14.69-15.47-22.79-22.46-2.81-2.43-5.62-4.87-8.42-7.31-1.01-.88-2.08-1.6-3.21-2.28-5.61-3.39-9.42-7.74-9.78-14.87-.35-7.04-1.69-14.07-3.01-20.98-2.03-10.6-5.99-20.69-10.57-30.49-.48-1.03-1.32-1.68-2.24-2.28-.82-.54-1.43-.49-2.23.16-2.75,2.22-5.23,4.72-6.69,7.93-2.92,6.41-5.47,12.94-6.41,20.03-.74,5.6-1.36,11.19-1.36,16.84,0,1.11-.36,2.13-.6,3.18-.26,1.12-.48,1.9.97,2.86,1.93,1.27.87,5.01-1.36,5.83-1.36.5-2.84.67-4.21.82-3.85.45-7.02,2.32-10.18,4.2-2.79,1.66-5.95,2.62-8.5,4.71-5.68,4.64-12.06,8.23-18.2,12.19-1.44.93-2.39,2.3-3.73,3.3-1.11.82-1.87.9-3.18.16-9.81-5.62-20.07-9.92-31.44-11.48-3.71-.51-7.18-.18-10.66.45-6,1.08-12.19,1.61-17.59,4.9-.72.44-1.49.8-2.19,1.26-2.36,1.55-2.57,2.23-1.37,4.73,1.51,3.15,3.36,6.1,5.59,8.8,2.3,2.79,4.75,5.42,7.47,7.82,4.32,3.79,8.51,7.73,12.83,11.52,4.62,4.05,9.72,7.47,15.16,10.31,2.79,1.46,4.99,3.75,7.88,5.03,1.29.57,1.69,2.07,1.91,3.35,1.26,7.2,2.8,14.35,3.78,21.6.76,5.6,2.42,11.03,4.33,16.32,2,5.52,3.82,11.15,6.7,16.29,1.98,3.53,4.34,6.76,8.28,8.64,7.68,3.66,15.3,7.49,22.8,11.52,4.74,2.54,9.49,5.13,13.65,8.63.94.79,1.6,1.75,2.32,3.24Z"/><path class="cls-1" d="M177.1,256.93c-1.8,4.24-.28,8.75-3.24,12.03-1.28-.52-.78-1.3-.76-1.93.29-6.74.22-13.48-.44-20.2-.11-1.12,0-2.16.31-3.2.28-.95.68-1.89,1.94-1.73,1.18.15,2.64.16,2.75,1.77.24,3.51,2.83,6.04,3.72,9.29.44,1.63,1.8,2.83,2.95,4.05,1.29,1.37,2.54,1.3,3.63-.18.7-.96,1.25-2.06,1.66-3.18,2.95-8.05,4.72-16.37,5.48-24.91.14-1.55.33-3.1.48-4.65.49-4.93,3-6.27,7.35-3.91.32.17.63.35,1.09.6,3.25-4.82,5.58-9.93,6.27-15.8.53-4.45.4-8.89.47-13.34.03-1.63.13-3.16,1.96-3.86,1.18-.45,1.06-1.52,1.04-2.45-.16-6.35.3-12.82-1.87-18.91-2.24-6.29-4.03-12.9-9.35-17.58-.63-.55-1.19-1.12-1.99-1.5-2.61-1.26-3.77-3.77-2.45-6.13,1.34-2.41,1.28-4.91,1.12-7.37-.26-4.07-.94-8.06-2.3-11.99-1.11-3.18-2-6.38-3.84-9.25-.93-1.45-.83-4.05.04-4.31,1.52-.46,2.89-.37,4.27.95,2.58,2.48,3.24,5.8,4.59,8.84,1.77,4,2.08,8.3,2.93,12.49.68,3.36.43,6.72-.3,10-.3,1.34-.35,2.17.82,3.06,3.96,3.01,6.18,7.36,8.16,11.71,2.23,4.91,3.87,10.13,4.76,15.45,1.08,6.4,1.28,12.91.9,19.41-.06.98-.45,1.96-1.34,2.45-1.4.77-1.49,1.95-1.52,3.36-.12,5.79-.64,11.53-2.02,17.18-.52,2.14-1.14,4.19-2.52,5.91-.92,1.16-1.41,2.5-2,3.82-1.62,3.6-3.45,4.65-7.35,4.05-1.43-.22-1.64.42-1.76,1.52-.92,8.84-2.87,17.48-5.6,25.92-.66,2.04-1.6,4.04-2.74,5.86-2.37,3.79-7.49,4.54-11,1.62-1.54-1.28-3.25-2.47-4.32-4.95Z"/><path class="cls-1" d="M71.92,28.16c-.89-1.22-2.26-1.09-3.31-1.66-3.95-2.14-4.5-6.47-.77-8.93,5.4-3.56,11.21-6.1,17.96-4.33.81.21,1.67.43,2.34.89,1.15.8,1.17,2.06.76,3.26-.36,1.05-1.19,1.41-2.31,1.21-.71-.13-1.51.06-2.15-.19-5.1-1.99-9,.89-13.16,2.9.39,1.56,1.69,1.51,2.57,1.91,3.2,1.48,4.37,6.01,2.13,8.72-5.35,6.46-10.73,12.89-16.65,18.84-2.96,2.97-6.03,5.81-8.56,9.19-1.1,1.48-2.02,3.04-2.58,4.73-.64,1.95-.52,3.78.74,5.77,3.13,4.93,7.52,8.42,12.31,11.38,3.59,2.22,6.79,4.86,9.82,7.71,6.05,5.68,11.45,11.97,16.79,18.32.44.52.71,1.32,1.84,1.13,2.08-7.12,2.94-14.46,2.12-21.87-.48-4.31-.71-8.64-.91-12.94-.36-7.83-1.43-15.54-2.69-23.25-.92-5.65.51-8.39,6.05-11.4,1,1.04,0,1.83-.48,2.49-1.93,2.59-2.17,5.18-1.37,8.39,1.56,6.26,2.54,12.63,2.79,19.17.25,6.58,1.01,13.15,1.35,19.75.36,7.18-.86,14.14-2.21,21.11-.33,1.73-1.13,3.2-2.61,4.15-1.5.96-2.99,1.24-4.59-.18-2.89-2.57-5.22-5.65-7.87-8.44-5.37-5.65-10.66-11.41-16.84-16.18-3.6-2.78-7.48-5.21-11.1-8.01-3.13-2.42-5.47-5.47-7.21-8.92-3.03-6.01-1.4-11.67,2.66-16.39,4.36-5.06,9.07-9.83,13.85-14.53,4.25-4.17,8.1-8.79,11.29-13.8Z"/><path class="cls-1" d="M507.63,69.69c-.46-5.81-1.45-11.38-3.38-16.62-1.85-5.04-3.79-10.09-6.73-14.7-1.23-1.93-3.06-3.01-4.53-4.57-5.78-6.14-12.56-10.9-20.63-13.37-5.21-1.6-10.57-3.03-16.15-2.68-.32.02-.76.1-.79,1.05,7.69,5.87,13.66,13.78,19.9,21.97.8-2.52-.7-4.19-.48-6.14.36-3.23,2.59-4.61,5.49-2.98,3.03,1.7,5.1,4.39,6.7,7.32,2.25,4.11,4.05,8.48,4.79,13.13.49,3.08,1.62,6.07,1.47,9.24-.03.7.94,1.81-.49,2-.95.13-1.41-.8-1.7-1.61-.95-2.72-1.88-5.45-2.77-8.19-1.3-4.01-2.93-7.87-5.07-11.51-.6-1.02-1.15-2.07-2.62-2.43.2,2.39.43,4.81-2.82,5.28,1.08,3.06,2.45,5.87,2.89,8.98.07.48.23.94.27,1.42.14,1.71-.38,3.38-2.01,3.85-1.87.54-2.26-1.5-2.77-2.67-.66-1.51-.8-3.24-1.25-4.85-.91-3.3-2.59-6.24-4.8-8.78-3-3.46-5.42-7.36-8.46-10.77-3.85-4.31-8.22-8.09-12.74-11.68-2.4-1.9-2.84-3.39-1.59-5.46.46-.76,1-1.25,1.92-1.46,5.08-1.16,10.11-1.68,15.32-.51,3.38.76,6.88.99,10.18,2.14,8.79,3.07,16.09,8.38,22.32,15.19,1.21,1.33,2.62,2.44,3.73,3.9,3.58,4.71,4.83,10.36,6.64,15.78,1.98,5.93,1.78,12.08,1.6,18.21-.02.63-.3,1.16-1.46,1.51Z"/><path class="cls-1" d="M24.41,192.67c-2.35-1.3-4.39-1.37-6.42-1.47-.6-.03-1.22.14-1.8.03-1.29-.24-2.74-.33-3.35-1.76-.63-1.5-.14-2.87.97-3.95,4.99-4.87,8.94-10.63,13.68-15.72,4.55-4.89,8.88-9.99,13.45-14.86,4.83-5.15,9.83-10.15,14.83-15.3-.78-1.28-2.2-1.55-3.32-1.95-4.24-1.54-4.88-4.09-1.89-8.94,1.37-2.23,3.41-4.03,5.11-6.06,3.31-3.95,6.98-7.55,10.75-11.05,1.58-1.47,3.2-1.96,4.23-.96,1.04,1.02.79,3.6-.55,4.88-1.65,1.58-3.38,3.07-5.04,4.65-3.91,3.73-7.35,7.86-10.64,12.37,1.75.88,3.39,1.56,4.89,2.48,2.6,1.59,3.07,3.81,1.64,6.46-1.16,2.15-2.86,3.99-4.62,5.46-3.69,3.09-6.33,7.13-10.04,10.21-2.25,1.87-3.95,4.48-5.99,6.7-6.65,7.22-13.19,14.54-20.01,22.09,1.29.78,2.5.89,3.77,1.05,5.54.69,7.25,4.55,4.04,9.21-4.92,7.16-11.22,13.02-17.7,18.71-2.07,1.82-4.17,3.61-6.3,5.37-1.09.9-2.26,1.74-4.11,1.09,7.62-10.03,16.5-18.73,24.41-28.72Z"/><path class="cls-1" d="M625.34,122.74c2.84,2.74,3.88,5.73,5.45,8.35,1.04,1.74,1.76,3.67,2.73,5.46,2.66,4.94,7.26,7.53,12.09,9.79,2.72,1.27,5.55,2.29,8.58,2.52,2.3.17,4.52.76,6.64,1.56,6.63,2.52,13.56,2.68,20.51,3.01,7.17.34,14.4.27,21.33,2.74,1.86.66,3.25,2.03,5.08,2.69.94.34,1.15,1.42,1.53,2.49-1.53.43-2.86.31-4-.25-5.56-2.73-11.56-2.91-17.55-3.15-6.71-.28-13.42-.53-20.13-.87-1.31-.07-2.6-.45-3.89-.77-3.94-.97-7.77-2.24-11.8-2.97-4.65-.85-9.15-2.74-12.93-5.74-1.09.47-.55,1.3-.6,1.92-.2,2.78-.9,5.32-2.27,7.84-5.29,9.7-10.05,19.65-13.66,30.13-2.3,6.68-4.74,13.32-6.69,20.12-1.1,3.84-1.31,7.81-2.07,11.7-.29,1.46-.4,2.84-2.06,3.48-1.66-1.66-.92-3.66-.7-5.48,1.13-9.32,4-18.19,7.08-27,2.33-6.67,4.62-13.37,7.32-19.89,2.14-5.18,4.68-10.23,7.4-15.14,2.34-4.22,2.05-8.24.02-12.26-2.99-5.92-5.45-12.02-7.2-18.42-.09-.33-.07-.69-.19-1.88Z"/><path class="cls-1" d="M180.96,13.27c2.65,3.21,5.62,6.16,7.71,9.83,4.52,7.92,7.55,16.32,8.38,25.43.31,3.37.07,6.72-1.39,9.9-.37.81-.77,1.43-2.04,1.76-.09-2.63-.33-5.08-.21-7.52.19-3.91-.54-7.64-1.69-11.32-2.2-7-4.78-13.84-9.55-19.59-4.61-5.55-10.07-9.93-17.05-12.16-9.22-2.94-18.67-4.91-28.34-4.64-7.87.22-15.62,1.51-23.14,4.31-6.44,2.4-11.99,5.9-16.88,10.6-.35.33-.73.63-1.12.91-1.51,1.1-2.83.12-4-.59-1.25-.76-.43-1.95-.06-2.91.82-2.12,2.58-3.46,4.34-4.69,5.5-3.88,11.34-7.01,17.9-8.84,7.09-1.98,14.28-3.97,21.56-3.74,6.35.2,12.86-.08,19.16,2.07,3.23,1.1,6.76,1.62,10.1,2.57,5.1,1.45,9.82,3.79,14.03,7.1.72.57,1.32,1.42,2.36,1.55l-.07-.03Z"/><path class="cls-1" d="M181.03,13.3c1.01.07.76-.57.68-1.16-.2-1.54.12-2.91,1.54-3.76,4.87-2.9,9.9-5.36,15.75-5.41,4.59-.04,7.58,2.05,7.64,7.01.02,1.68-.03,3.36-.09,5.04-.11,3.02-.09,3.14,2.89,3.98,1.63.46,3.12,1.11,4.62,1.95,6.58,3.7,9.78,9.31,9.76,16.76-.03,10.11-.65,20.21-2.89,30.08-1.48,6.55-2.65,13.16-4.3,19.67-.29,1.16-.63,2.34-1.14,3.42-1.06,2.25-2.94,2.87-5,1.51-2.1-1.38-4.02-3.05-6.05-4.55-.78-.57-1.19-1.19-.76-2.13.45-.98,1.43-.98,2.19-.76,1.38.39,2.71.97,4.01,1.6.64.31,1.17.84,1.99.84,1.12-1.04,1.24-2.54,1.52-3.89,1.48-7.31,2.92-14.63,4.22-21.97,1.14-6.41,1.28-12.92,1.7-19.4.15-2.36-.2-4.82-.7-7.16-1.01-4.74-4.48-7.61-8.49-9.73-1.21-.64-2.47-1.37-3.86-1.79-3.81-1.17-5.24-3.59-4.88-7.6.15-1.64.91-3.17.33-4.96-.82-2.54-1.05-2.98-3.7-2.8-3.41.23-6.67,1.1-9.47,3.12-2.24,1.61-4.43,2.89-7.22,1.41-.11.21-.22.43-.34.64,0,0,.07.03.07.03Z"/><path class="cls-1" d="M706.39,266.38c-1.63-2.45-2.09-5.07-1.66-7.86.12-.75.2-1.5,1.1-1.62.88-.12,1.28.57,1.53,1.25.91,2.46,1.79,4.93,2.77,7.66,2.15-.24,4.29-.86,6.54-1.93-.49-1.57-1.41-2.99-1.6-4.63-.19-1.63-.41-3.27-.7-5.53,2.81,2.79,3.93,5.69,4.57,9.05,4.03-1.97,7.62-4.5,11.02-7.33,1.31-1.09,2.3-2.42,3.19-3.86,1.14-1.86,2.11-2.25,3.34-1.43,1.32.87,1.91,3.06,1.23,4.41-1.11,2.22-3.04,3.74-4.83,5.26-6.4,5.42-13.66,9.27-21.85,11.33-2.73.69-5.44.88-8.21.51-4.55-.62-7.52-5.09-6.98-9.69.65-5.54,2.74-10.4,5.99-14.8,3.32-4.5,7.8-7.54,13.1-9.12,2.12-.63,2.68-1.55,2.34-3.53-1.15-6.65-.16-13.18,1.45-19.6.84-3.36,1.89-6.68,3.33-9.86.36-.8.72-1.48,1.53-1.9,1.67-.85,2.81-.3,3.1,1.55.17,1.11-.11,2.13-.51,3.16-1.8,4.59-3.45,9.24-4.19,14.13-.54,3.53-1.39,7.03-1.17,10.66.19,3.21-.63,5.38-4.22,6.89-6.35,2.67-11.14,7.33-13.55,14.14-.84,2.37-2.08,4.6-2.39,7.15-.51,4.23,1.07,5.82,5.75,5.56Z"/><path class="cls-1" d="M187.05,98.99c-1.36.68-2.81.55-4.25.43-2.4-.19-4.49.63-6.36,2.03-5.54,4.15-11.82,6.14-18.67,6.56-2.63.16-5.26.41-7.89.6-4.63.33-9.12-.28-13.42-2.04-1.66-.68-3.16-1.59-3.83-3.77,2.87.25,5.31,1.31,7.98,1.37,5.16.12,10.27-.49,15.4-.57,7.07-.11,13.23-2.64,19.13-6.36,2.58-1.63,5.57-2.29,8.81-2.61,8.1-.82,13.9-4.47,13.24-13.58-.32-4.38-2.38-8.47-5.04-12.08-1.91-2.58-4.82-3.45-7.72-4.32-3.26-.98-6.57-1.51-9.96-1.26-1.71.13-3.25-.18-3.82-1.87-.51-1.5,1.17-2.78,3.54-2.98,6.94-.56,13.39,1.08,19.22,4.78,3.25,2.06,4.83,5.64,6.44,8.95,1.19,2.44,2.07,5.21,2.32,7.9.57,6.12-1.75,11.17-6.6,15.06-2.51,2.01-5.59,2.62-8.46,3.77l-.06-.02Z"/><path class="cls-1" d="M664.07,212.8c-3.67.36-6.39-1.07-8.97-3.66-3.53-3.57-6.04-7.7-8.2-12.14-1.5-3.08-1.53-3.05-5.09-2.65-1.79.2-3.59.34-5.38.49-.47.04-.99.03-1.17-.55-.25-.81.37-1.11.92-1.26,1.27-.36,2.56-.69,3.86-.89,11.68-1.86,20.78-8.26,28.9-16.37,1-1,1.98-2.09,2.57-3.45.34-.78.92-1.41,1.7-1.81,1.21-.63,2.07-.18,2.19,1.24.1,1.18.25,2.39-.8,3.35-.52.48-.94,1.1-1.31,1.71-.9,1.5-3.41,2.37-3.04,4,.35,1.58,1.39,3.25,2.21,4.84,3,5.8,4.19,11.84,2.7,18.39-1.3,5.71-4.28,9.07-11.08,8.76ZM647.03,193.48c2.94,3.4,4.97,7.13,7.88,10.19,3.11,3.27,6.25,6.34,11.39,5.57,2.81-.42,4.29-1.52,5.19-4.22,2.73-8.28.34-15.43-4.5-22.04-2.9,1.41-4.75,3.95-7.57,5.17-1.48.64-1.34,1.42-.39,2.75,2.01,2.82,3.68,5.88,5.49,8.85.31.51.72,1.12.15,1.61-.71.61-1.31.08-1.84-.44-.8-.78-1.11-1.83-1.57-2.8-1.34-2.8-1.82-5.98-3.83-8.67-3.23,1.54-6.6,2.75-10.38,4.04Z"/><path class="cls-1" d="M532.19,81.33c-4.01,3-6.45,6.43-9.48,9.27-3.85,3.62-7.58,7.36-11.74,10.64-.66.52-1.35,1.01-2.07,1.45-.51.31-1.13.59-1.52-.16-.26-.5.02-.98.44-1.24,1.78-1.11,2.93-2.85,4.42-4.25,6.24-5.87,11.41-12.65,16.6-19.41.37-.48.72-.98,1.16-1.38,3.12-2.81,5.74-2.07,6.97,2,.67,2.2.48,4.34.14,6.68-1,6.77-3.7,12.86-6.64,18.87-2.43,4.97-5.76,9.34-9.89,13.07-.18.16-.33.35-.51.51-.78.72-1.83,1.04-2.66.53-.98-.6-.34-1.75-.32-2.67.02-.78.6-1.29,1.01-1.88,1.37-1.97,2.63-4.02,4.12-5.9,3.9-4.9,5.72-10.76,7.64-16.55.49-1.48,1.67-2.63,1.73-4.28.06-1.53.33-3.06.59-5.31Z"/><path class="cls-1" d="M233.18,254.9c.5.1.88-.08,1.32-.34,3.85-2.33,5.19-2.1,8.41,1.47.97-.45,1.98-.99,3.04-1.4,5.02-1.98,9.13-.26,10.25,5.78.59,3.17-.45,6.18-1.55,9.11-.49,1.3-1.51,1.2-2.68,1.08-1.34-.13-1.44-.96-1.56-1.96-.13-1.1-.01-2.14.34-3.19.5-1.49.71-3.03.51-4.62-.13-1.06-.62-1.84-1.68-2.07-1.01-.22-1.89.08-2.54.95-.66.9-1.07,1.87-1.09,3-.03,2.07-.85,3.98-1.14,6-.21,1.48-1.25,1.59-2.33,1.7-1.42.16-1.95-.92-2.12-1.97-.31-1.89-.43-3.81-.54-5.73-.1-1.72-.37-3.34-1.68-4.59-2.29,1.58-2.69,2.13-2.49,4.8.16,2.06.05,4.05-.35,6.08-.2,1.03-.32,1.89-1.57,1.97-1.27.09-2.47-.07-2.94-1.47-.3-.9-.5-1.87-.56-2.81-.12-1.75-.89-3.26-1.72-4.7-1.29-2.23-3.08-2.07-4.3.15-.93,1.69-.79,3.49-.74,5.28.03,1.26.5,2.57-.31,3.69-1.22.19-1.25-.74-1.49-1.32-.77-1.91-1.01-3.9-1.07-5.99-.14-5.25,4.32-10.19,10.72-5.75.46-.82,1.77-1.22,1.18-2.55l-.11.05c1.04.55.75-.32.84-.78l-.07.12Z"/><path class="cls-1" d="M187.11,99.01c-.44,1.01.34.8.88.91,2.83.61,3.33,1.4,3.09,4.19-.41,4.67-2.12,9-4.64,12.73-3.88,5.75-7.82,11.62-13.86,15.47-3.28,2.09-6.68,3.65-10.77,1.61-4.19-2.08-6.14-4.83-5.78-10.17.25-3.57,1.1-7.1,1.73-10.64.05-.29.38-.53.86-1.15.76,5.69-.61,11.4,2.62,16.43,1.51-.37,1.99-1.65,2.59-2.76,1.5-2.77,2.44-5.75,3.36-8.74.47-1.51.97-2.98,2.94-3.48,1.41,5.73-.99,10.35-3.78,14.88-.18.13-.42.22-.54.39-.34.51-1.26.95-.63,1.64.57.62,1.24-.04,1.81-.36.19-.1.31-.31.47-.47,3.75-.84,6.25-3.57,8.4-6.35,2.9-3.74,6.11-7.34,7.99-11.79.28-.66.59-1.32.78-2,.5-1.84,1.18-3.72.94-5.62-.25-1.9,1.96-2.88,1.49-4.75,0,0,.06.02.06.02Z"/><path class="cls-1" d="M655.74,158.52c2.72-.35,4.14,1.3,5.49,3.31,1.47,2.19.52,4.21-.35,6.09-.76,1.63-2.22,3.02-4.02,3.44-3.64.85-6.96,2.59-10.56,3.52-4.69,1.21-10.4-3.56-10.04-8.38.12-1.56,1.01-2.63,2.25-3.5,2.43-1.71,5.21-2.48,8.07-2.83,2.51-.31,5.01-.43,7.38-1.43.53-.22,1.18-.15,1.78-.21Z"/><path class="cls-1" d="M594.88,139.67c-6.79-2.13-13.35-3.63-20.7-4.18,2.12,2.9,4.65,4.5,7.04,6.18,2.84,1.99,5.88,3.7,8.82,5.54.61.38,1.3.73,1.73,1.27.67.83,1.28,1.74.54,2.94-.66,1.07-1.64.9-2.56.81-2.25-.23-3.96-1.77-5.73-2.9-4.97-3.14-9.91-6.37-14.15-10.52-2.47-2.42-2.62-3.78-.74-6.53.52-.75,1.05-1.15,2.01-1.24,1.47-.14,2.9.02,4.31.29,5.91,1.13,11.6,2.98,17.06,5.54,1.14.53,2.11,1.15,2.37,2.81Z"/><path class="cls-1" d="M660.22,80.14c-.75,2.92-.28,5.64-.29,8.31-.01,4.1.06,8.2.12,12.3.01,1-.08,1.94-1.2,2.56-1.68-1.71-1.17-4.07-1.43-6.06-.75-5.7-1.1-11.46-1.53-17.2-.08-1.06.08-2.17.29-3.23.52-2.64,2.39-3.5,4.77-2.22,1.18.63,2.17,1.5,2.99,2.58,3.51,4.61,6.69,9.39,8.54,14.94.93,2.79.81,4.73-.52,4.8-2.11.12-2.72-1.84-3.32-3.29-1.49-3.57-3.33-6.94-5.34-10.22-.72-1.18-1.38-2.47-3.08-3.28Z"/><path class="cls-1" d="M438.69,105.96c-1.21-.1-2.38-.21-3.48-.82-2.03-1.13-2.86-2.9-2.23-5.12,1.5-5.29,7.9-9.5,13.67-8.96,3.36.31,5.07,3.22,3.57,6.27-1.98,4.01-5.72,6.29-9.41,8.5-.54.32-1.4.11-2.11.14Z"/><path class="cls-1" d="M178.01,83.66c-2.95.26-4.94-.05-6.93-.52-2.05-.48-3.09-2.03-3.41-3.82-.32-1.83.42-3.58,2.17-4.59,3.83-2.21,7.87-2.75,12.13-1.42,2.08.65,3.21,2.03,3.45,4.16.25,2.14-.66,3.58-2.51,4.74-1.84,1.15-3.71,1.64-4.91,1.45Z"/><path class="cls-1" d="M232.53,255.52c-.92-.54-1.21-1.39-1.28-2.42-.45-6.86.82-13.38,4.1-19.43,2.75-5.08,6.55-9.45,10.05-14.01.43-.56,1.07-.96,1.58-1.47.74-.74,1.55-1.31,2.46-.38.84.86.56,1.84-.25,2.53-2.53,2.13-4.04,5.04-5.96,7.62-2.78,3.74-5.41,7.53-7.05,12.01-1.78,4.86-2.56,9.84-2.99,14.92,0,0,.07-.12.07-.12-.92-.43-.84.22-.84.78l.11-.05Z"/><path class="cls-1" d="M284.54,198.2c-.24-2.1.69-3.83,1.93-5.28,1.2-1.4,3.1-1.62,4.68-.93,1.67.74,2.84,2.24,2.97,4.23.18,2.88-1.23,5.12-3.26,6.91-1.34,1.18-4.33.41-5.46-1.18-.81-1.14-1.03-2.42-.86-3.75Z"/><path class="cls-1" d="M69.66,252.03c0-.64-.02-1,0-1.35.04-.47.05-.98.66-1.12.51-.11.92.14,1.3.44.48.39.74.89.94,1.48,1.45,4.31,2.92,8.62,4.43,12.91.33.93.58,1.85.35,2.81-.26,1.05-.97,1.59-2.08,1.62-1.03.03-1.92-.07-2.23-1.28-1.36-5.21-2.71-10.42-3.36-15.51Z"/><path class="cls-1" d="M615.6,162.19c.08-1.18.13-2.37,1.31-3.14,1.14-.74,2.08-.92,3.14.24,2.23,2.45,3.01,5.39,3.05,8.57.02,1.36-.39,2.71-1.94,3.07-1.45.34-2.62-.39-3.3-1.63-1.21-2.21-2.31-4.48-2.26-7.11Z"/><path class="cls-1" d="M656.49,139.11c-.05-1.64.27-2.62,1.43-3.11,1.16-.49,2.34-.67,3.34.3,1.56,1.51,2.65,3.25,3.26,5.42.55,1.96-.38,2.93-1.69,3.85-1.51,1.05-2.79.26-3.81-.79-1.63-1.69-2.21-3.89-2.53-5.67Z"/><path class="cls-1" d="M138.75,270.98c0-4.41-.94-8.51-2.59-12.45-.09-.22-.17-.45-.23-.68-.27-.93-.66-2.1.55-2.46,1.06-.32,2.34.27,2.56,1.41.79,4.22,1.67,8.45.98,12.79-.09.58-.28,1.14-1.26,1.39Z"/><path class="cls-1" d="M137.03,55.97c-.06,1.78-1.29,3.32-2.68,3.49-1.67.2-2.95-1.02-3.21-3.1-.08-.59-.07-1.2-.05-1.8.05-1.4.87-2.18,2.15-2.52,1.34-.36,2.32.18,3.01,1.33.5.84.86,1.72.78,2.6Z"/><path class="cls-1" d="M186.21,48.57c0,1.69-1.57,3.22-3.23,3.14-1.5-.07-2.73-1.76-2.66-3.67.06-1.75,1.25-2.92,2.95-2.88,1.58.03,2.93,1.6,2.94,3.42Z"/><path class="cls-1" d="M455.67,91.39c1.87,2.77,1.29,5.72.93,8.62-.09.71-.65,1.26-1.29,1.65-.7.43-1.42-.05-1.29-.55.84-3.18.54-6.54,1.64-9.72Z"/><path class="cls-1" d="M350.39,185.77c2.93-.73,5.01.73,7.09,1.9,1.04.59,1.07,1.71.43,2.82-.73,1.26-1.7.83-2.39.24-1.74-1.48-4.03-2.45-5.12-4.96Z"/><path class="cls-1" d="M287.63,189.54c-.05.12-.11.69-.42.96-1.53,1.32-2.82,2.94-4.72,3.82-.37.17-.69.21-.98-.02-.51-.39-.32-.86,0-1.24,1.29-1.58,2.31-3.38,3.88-4.73.47-.4.94-.76,1.58-.34.42.28.7.65.67,1.55Z"/><path class="cls-1" d="M167.45,129.51c-.15.16-.28.37-.47.47-.57.32-1.23.98-1.81.36-.63-.69.29-1.13.63-1.64.11-.17.36-.26.54-.39-.1.83.3,1.2,1.1,1.2Z"/><path class="cls-1" d="M228.12,256.6c0-.56-.1-1.21.83-.79-.08.47.22,1.33-.83.79Z"/><path class="cls-1" d="M314.44,243.99c-3.36,2.23-6.29,3.84-9.18,5.46-3.18,1.78-6.89,1.86-10.43.38-4.78-2-9.27-4.54-13.68-7.23-.92-.56-1.75-1.27-2.58-1.97-.34-.28-.85-.59-.59-1.17.33-.75.95-.58,1.52-.34,3.97,1.71,7.93,3.45,11.91,5.14,2.63,1.12,5.06,2.66,8.11,2.77,2.08.08,3.75-.52,5.4-1.59,4.04-2.61,7.68-5.7,11.27-8.9,4.29-3.83,8.87-7.29,14.26-9.59,5.87-2.51,12.19.35,13.97,6.54.16.57.19,1.19.33,1.77.79,3.32.75,3.17,3.97,2.16,2.43-.76,4.68-1.78,6.8-3.15.92-.59,1.95-.97,3.07-.91,1.01.06,1.97.4,2.25,1.48.3,1.14.01,2.4-1.09,2.79-4.71,1.65-8.84,5.08-14.2,4.72-1.13-.07-1.65.47-2.24,1.38-1.89,2.93-3.98,5.7-6.23,8.38-2.56,3.05-5.78,4.61-9.49,5.43-5.63,1.25-9.81-1.02-11.8-6.51-.77-2.11-1.93-4.18-1.34-7.04ZM326.82,252.26c3.88-.82,4.22-1.14,6.6-3.16,3.33-2.82,4.8-6.8,6.83-10.43.21-.37.24-.97.09-1.37-.62-1.67-1.19-3.36-2.22-4.87-.95-1.4-2.3-1.85-3.71-1.63-1.74.28-3.56.56-5.1,1.64-2.74,1.93-5.56,3.77-8.24,5.78-4.71,3.53-4.73,3.59-2.29,8.93.95,2.08,1.38,4.64,4.15,5.58,1.59-2.56,2.53-5.44,4-8.03,1.46-2.58,1.55-5.87,4.39-8.49-.66,5.93-2.15,10.94-4.5,16.05Z"/><path class="cls-1" d="M255.1,194.92c-1.14-.01-1.78.18-2.04-.06-2.67-2.36-5.57-4.39-7.46-7.67-2.23-3.87-4.26-7.75-5.48-12.05-.83-2.94-1.01-5.92-.54-8.92.99-6.24,6.71-7.64,11.1-4.83,1.01.65,2.03,1.27,3,1.96.78.56,1.51,1.19,1.76,2.2.19.76.14,1.42-.53,1.93-.65.49-1.22.52-1.93-.02-1.43-1.09-2.89-2.15-4.43-3.08-2.81-1.71-4.85-.8-5.6,2.35-1.13,4.8.31,9.21,2.06,13.54,2.18,5.38,5.34,10.14,10.08,14.65Z"/><path class="cls-1" d="M303.68,142.09c.43,3.01,1.65,5.55,1.41,8.39-2.03-3.38-3.86-6.86-4.46-10.8-.29-1.91,1.93-3.08,3.81-2.13,3.12,1.58,5.72,3.89,8.33,6.16.81.7,1.55,1.48,2.3,2.25.95.98,1.29,2.02.15,3.11-1.04,1-1.73.12-2.44-.48-2.01-1.69-4.02-3.38-5.99-5.11-.82-.72-1.61-1.41-3.12-1.4Z"/></svg>