<?xml version="1.0" encoding="UTF-8"?><svg id="Layer_1" xmlns="http://www.w3.org/2000/svg" viewBox="0 0 722.03 183.02"><defs><style>.cls-1{fill:#053228;}</style></defs><path class="cls-1" d="M479.88,76.81c5.26.95,10.49-.28,15.65.63-2.98,1.19-5.88,2.5-9.09,2.74-1.2.09-2.04.6-2.82,1.75-1.46,2.16-3.45,3.95-4.77,6.24-1.03,1.79-2.14,3.53-2.79,5.51-.2.62-.39,1.21-.22,1.86.64.34.83-.24,1.09-.56,2.38-2.9,4.93-5.68,6.34-9.24.3-.77.91-1.3,1.47-1.87.44-.46.95-1,1.62-.38.56.52.84,1.18.43,1.94-1.57,2.86-3.19,5.68-5.6,7.96-1.39,1.31-2.7,2.71-4.26,3.84-.15.11-.17.4-.26.62.87.43,1.58.09,2.29-.29,1.64-.86,2.98-2.12,4.17-3.5,1.46-1.69,2.78-3.49,4.2-5.22,1.46-1.79,2.35-2.08,4.55-1.21,2.13.84,4.16,1.92,6.2,2.95,2.54,1.28,4.85,3.04,7.65,3.85,2.47.72,3.27,1.97,3.14,4.65-.12,2.51-.08,5.03-.17,7.54-.07,2.09.19,4.26.07,6.4-.39,6.86.06,13.73-.45,20.58-.03.4-.13.81-.05,1.18.13.66.41,1.18,1.3.96,4.62-1.13,9.22-2.24,13.72-3.84,4.51-1.6,8.77-3.73,13.19-5.47,2.83-1.11,5.36-2.78,8.1-4.05,2.83-1.31,5.32-3.2,7.97-4.8,1-.61,1.62-1.16,1.6-2.33-.04-2.33.93-4.32,2.08-6.25,1.43-2.4,2.27-5.06,3.44-7.58,1.01-2.18,1.52-4.51,2.18-6.79.57-1.96,1-4.02.66-6.09-.14-.83.47-1.53.25-2.37-.98,0-1.42.93-2.2,1.19-.51.18-1.1.56-1.55.02-.46-.55-.83-1.19-.38-1.97.29-.5.66-.88,1.13-1.21,2.1-1.45,4.12-3.02,6.28-4.37,4.95-3.08,8.47-7.39,11.22-12.44,2.25-4.12,3.75-8.52,5.25-12.96,1.84-5.47,2.72-11.07,3.32-16.76.2-1.88.92-3.68,1.01-5.61.07-1.52-.17-4.17-.81-6.04-3.26,2.39-5.8,5.48-8.66,8.21-2.82,2.69-5.61,5.46-8.04,8.54-2.47,3.14-4.94,6.28-7.52,9.33-2.48,2.93-4.28,6.45-7.51,8.79.75-3.73,2.45-7.01,4.4-10.38-1.86-1.58-4-2.78-6.2-3.86-5.6-2.77-11.52-4.46-17.69-5.48-6.59-1.09-13.14-1.26-19.72-.22-1.44.23-2.69.94-3.86,1.82-3.39,2.57-5.56,6.1-7.7,9.65-.65,1.09-1.24,2.22-1.92,3.31-.78,1.25-1.53,2.46-3.6,1.65.87,2,.92,3.74,1,5.48.04.78-.36,1.4-.92,1.86-.55.45-1.03-.05-1.53-.27-.67-.3-.61-.87-.58-1.43.06-1.52-.19-3.04-.16-4.53.04-1.45-.46-2.02-1.74-2.24-.38-.06-.75-.2-1.29-.35-.74,1.4-1.5,2.87-2.74,4.03-1.06.99-2.23,1.5-3.67,1.45-1.87-.06-2.78-1.04-2.54-2.89.36-2.8,1.6-5.14,3.69-7.06,1.81-1.67,4.98-1.72,5.61,1.65.18.95.55,1.12,1.38,1.18,1.11.08,2.21.29,3.3.51.91.18,1.61.02,1.88-.94.62-2.19,2.04-3.96,3.06-5.94,1.88-3.65,4.94-6.21,8.14-8.59,1.05-.78,2.36-1.17,3.74-1.43,6.91-1.32,13.76-1,20.63.21,4.88.86,9.61,2.21,14.25,3.91,4,1.47,7.42,3.95,11.08,6.14,2.53-3.46,5.29-6.75,8.2-9.91,3.23-3.51,6.6-6.87,9.99-10.22,2.1-2.07,4.14-4.2,6.44-6.04,1.91-1.53,3.61-1,4.53,1.26.18.44.31.91.39,1.37.58,3.61,1.05,7.22.16,10.87-1.02,4.18-.86,8.54-1.95,12.74-.8,3.09-2.04,6-2.99,9.01-1.96,6.23-5,11.88-8.89,17.08-2.6,3.48-5.82,6.31-9.57,8.54-1.28.76-2.42,1.77-3.73,2.75,2.08.61,2.3,2.24,2.51,3.82.26,2.02-.16,4-.67,5.91-1.33,4.92-3.09,9.7-5.09,14.39-.22.51-.51,1-.84,1.45-1.68,2.21-1.29,4.86-1.46,7.35-.07.94.81,1.85,1.48,2.63.68.78,1.35,1.58,2.14,2.24,4.11,3.4,7.04,7.68,9.77,12.22,2.92,4.86,5.05,10.07,7.64,15.07,2.74,5.3,5.27,10.73,9.2,15.33,3.07,3.59,6.82,6.48,9.98,9.98.49.54,1.55.5,1.7,1.57-1.45.24-2.65-.42-3.75-1.14-4.82-3.15-9.41-6.59-12.78-11.33-2.1-2.96-3.88-6.16-5.76-9.28-2.39-3.94-3.9-8.32-6.16-12.33-3.49-6.17-7.1-12.23-12.52-16.98-.48-.42-.88-.93-1.26-1.44-.39-.52-.79-.99-1.38-1.28-.14.07-.32.1-.39.21-3.27,4.77-8.12,7.51-13.01,10.21-5.39,2.97-11.28,4.64-17.02,6.72-2.82,1.02-5.75,1.31-8.6,1.99-1.74.42-3.64-.03-5.42-.5-.76-.2-1.5-.43-2.36-.68-.44,6.55-.86,12.97-1.3,19.39-.44,6.39-.53,12.81-1.48,19.19-1.04-.19-1.09-.76-1.2-1.3-.68-3.46-.93-6.97-.84-10.47.06-2.31.05-4.61-.03-6.91-.12-3.35.59-6.63.77-9.94.13-2.36.02-4.73.02-7.5-1.33,1.41-2.34,2.79-3.64,3.88-2.53,2.11-6.47,2.19-8.4-2.16-.69-1.56.24-3,.97-4.27,2.59-4.49,6.61-6.41,11.89-6.05-.55-3.78-.81-7.5-.83-11.21-.02-5.06.17-10.12.29-15.18.07-3-.02-6.05-.05-9.07-.01-1.3-.63-1.88-1.75-2.45-3.03-1.54-6-3.21-8.9-4.98-1.25-.76-2.66-.97-3.94-1.61-.81-.41-1.23.57-1.65,1.04-1.43,1.6-2.66,3.39-4.13,4.94-1.77,1.85-3.79,3.37-6.39,3.97-3.66.84-6-1.2-5.95-4.91.05-4.13,2.05-7.41,4.14-10.68.98-1.53,2.13-2.96,3.2-4.44-2.95-1.47-2.75-1.47-2.71-4.81.02-2.13,1.28-3.72,1.77-5.63.67-2.67,2.03-5.18,3.46-7.59.38-.63.72-1.34,1.65-.88.83.41.73,1.05.51,1.83-1.01,3.61-2.56,7.01-3.99,10.45-.31.74-.69,1.42-.72,2.42ZM553.32,120.83c-14.14,7.83-28.32,14.61-44.38,16.7.59.65,1.17.99,1.84,1.3,2.82,1.31,5.72,1.1,8.69.76,3.25-.37,6.3-1.48,9.42-2.33,2.14-.58,4.26-1.34,6.27-2.27,2.95-1.36,5.89-2.73,8.58-4.64,1.93-1.38,3.95-2.69,5.75-4.21,1.59-1.33,3.18-2.87,3.81-5.3ZM498.08,146.48c.51.02,1.09-.13,1.63-.53,2.04-1.51,3.23-3.68,4.4-5.83.45-.82,0-1.27-1.04-1.24-2.43.07-6.18,2.82-6.95,5.1-.47,1.41.32,2.51,1.96,2.51Z"/><path class="cls-1" d="M354.7,142.9c.71.74,1.48.6,1.96,1,1.46,1.18,2.6,2.47,2.45,4.62-.25,3.55-1.76,6.62-3.44,9.6-.92,1.64-2.02,3.22-3.48,4.74,2.62.78,3.02,2.85,3.02,5.39,1.83-.29,3.52,0,5.04,1.35.7-1.72,1.8-2.87,3.37-3.59,1.73-.79,3.41-.99,4.87.43.79.77,1.6.99,2.6.7,1.17-.35,2.4-.67,3.39.28,1.33,1.26,2.69,2.53,2.84,4.55.14,1.97-.24,3.77-1.36,5.45-.48.73-.93,1.04-1.73.8-.87-.26-1.65-.58-1.7-1.71-.04-.86.32-1.51.71-2.23.5-.92.73-1.88-.04-2.88-.84-1.09-1.67-1.16-2.42.02-.42.67-.7,1.42-.77,2.24-.05.63-.22,1.25-.37,1.87-.17.72-.65,1.12-1.39,1.04-.71-.07-1.38-.19-1.69-1.06-.34-.95-.2-1.9-.21-2.85,0-.39.18-.78.2-1.17.05-.83.52-1.81-.47-2.36-.68-.38-1.8.36-2.39,1.57-.6,1.22-1.1,2.48-.97,3.89.06.65.04,1.29-.32,1.85-.41.64-.64,1.6-1.69,1.38-1.02-.21-1.73-.79-1.71-1.97.02-1.12-.05-2.18-.73-3.19-.5-.74-1.07-1.27-1.91-1.17-1,.12-1.4.99-1.57,1.89-.22,1.14.05,2.22.62,3.23.24.42.13.79-.22,1.04-.41.29-.69.04-1-.28-1.99-2.11-2.37-4.53-1.07-7.05.84-1.63.64-2.92-.64-4.03-.75-.65-.74-1.49-.87-2.68-1.4,1.44-2.4,2.81-3.58,4-4.87,4.92-10.79,8.07-17.14,10.52-1.93.74-3.95.9-6.07.77-2.55-.15-5.09-.4-7.63-.57-4.35-.27-8.43-1.45-12.43-3.18-3.61-1.56-7.06-3.39-10.22-5.69-4.3-3.13-8.46-6.46-11.63-10.81-.74-1.01-1.44-2.09-1.68-3.41-.47-2.64.46-4.47,2.89-5.56,3.47-1.57,7.1-2.36,10.89-1.98,1.8.18,2.76-.43,3.58-1.99,1.8-3.41,4.35-6.26,7.21-8.85,2.83-2.57,5.77-5.01,8.97-7.09,5.86-3.81,12.18-5.6,19.06-3.37,2.7.88,5.16,2.45,7.53,4.08.26.18.5.36.97.33.13-.81.13-1.69.52-2.48.38-.78.55-1.62,1.79-1.54,1.22.08,2.22.4,2.74,1.55.92,2.02.03,4.02-2.43,5.1,2.91,2.47,4.51,5.71,5.96,9.03.25.57.57.65,1.08.67.57.02.9-.23,1.07-.74.17-.53.42-1.04.51-1.59.82-5.22.22-10.14-2.98-14.57-1.86-2.58-3.18-5.53-5.21-8.01-1.51-1.84-3.04-3.66-5.06-4.98-.53-.35-1.05-.73-1.55-1.13-3.55-2.87-7.57-4.38-12.15-4.95-7.09-.88-13.7.32-20.16,3.22-3.13,1.41-6.31,2.7-9.09,4.72-4.07,2.95-7.73,6.32-10.59,10.55-3.27,4.83-5.27,10.14-6.55,15.76-.12.54-.23,1.09-.27,1.64-.34,4.28-.72,8.58-.15,12.85.59,4.43,2.55,8.32,5.31,11.85,2.51,3.2,5.87,5.37,9.05,7.76,1.13.85,2.69.93,4.06,1.31,1.12.31,2.32.51,3.46,1.88-3.59-.3-6.84-.34-9.63-2.14-3.02-1.94-6.06-3.91-8.35-6.74-2.31-2.85-4.37-5.83-5.34-9.48-2.14-8.06-1.85-16.06.44-24.18-.97-.57-2.13-.41-3.16-.54-3.53-.46-6.6-1.7-9.02-4.39-2.11-2.34-3.02-5.2-3.67-8.18-.68-3.13-1.04-6.29-.93-9.5.17-4.6-.83-9.02-2.16-13.37-.52-1.7-.77-3.43-.7-5.2.09-2.13.78-3.08,2.77-3.68,2.89-.86,5.86-.9,8.75-.14,6.86,1.8,12.48,5.67,16.71,11.28,2.56,3.41,4.9,7.03,6.98,11.02,4.26-3.06,9.14-4.93,13.87-7.19-.03-.93-.76-1.46-1.24-1.99-3.16-3.48-5.79-7.38-8.68-11.06-1.27-1.62-2.35-3.41-3.3-5.24-1.41-2.74-.18-4.74,2.9-4.85,2.29-.08,4.59-.03,6.89-.01.71,0,1.41.06,2.1.37,2.95,1.33,6.11,2.02,9.05,3.58,3.74,1.98,6.88,4.51,9.83,7.4,2.39,2.35,4.34,5.08,6.07,7.95.36.6.77,1.4.65,2.01-.27,1.34.5,1.51,1.43,1.88,4.33,1.69,7.59,4.78,10.78,8.07,3.95,4.07,6.29,9.17,9.27,13.85,2.14,3.36,2.16,7.3,1.51,11.15-.2,1.17-.1,2.4-.8,3.48ZM328.18,137.75c-3.58-1.08-6.48-2.89-8.19-6.21-.43-.84-.92-1.03-1.7-.57-.34.2-.67.43-1.02.62-3.7,2.08-6.97,4.74-10.1,7.56-2.56,2.31-5.03,4.8-6.64,7.92-1.7,3.31-1.64,3.34-5.37,3.25-.16,0-.32,0-.48-.02-3.24-.22-6.32.45-9.3,1.68-1.32.54-1.58,1.04-1.18,2.41.15.53.32,1.11.66,1.52,1.41,1.72,2.7,3.61,4.39,5.01,3.42,2.84,6.65,5.96,10.59,8.12,3.61,1.97,7.14,4.05,11.24,5.08,4.6,1.15,9.25,1.46,13.92,1.81,1.51.11,3.11.36,4.51-.23,3.29-1.39,6.62-2.74,9.63-4.69,5.7-3.68,10.41-8.42,13.98-14.18,1.4-2.26,2.8-4.63,3.21-7.37.35-2.28-.26-3.27-2.56-3.69-1.56-.29-3.13-.58-4.74-.57-.88,0-2.26.18-1.29-1.53.23-.4-.18-.76-.36-1.07-1.27-2.19-2.29-4.56-4.26-6.25-1.99-1.72-3.69-3.87-6.37-4.6-2.1,3.61-2.37,3.85-6.59,5.5-.79.31-.9.8-.77,1.48.34,1.8.69,3.59,1.04,5.38.14.72.19,1.39-.79,1.93-1.2-2.65-1.19-5.43-1.49-8.28ZM264.59,113.43c-.07,3.18.12,6.34.74,9.46.92,4.62,2.9,8.5,7.82,9.94,1.66.49,3.44.57,5.15.92.86.18,1.22-.03,1.58-.88.91-2.19,1.95-4.34,3.04-6.45,2.23-4.3,5.63-7.65,9.07-10.96,1.5-1.44,1.58-1.63.3-3.3-1.6-2.08-3.25-4.12-4.85-6.2-4.55-5.92-10.19-10.24-17.56-12.05-2.34-.57-4.67-.79-7.06-.18-.98.25-1.33.75-1.3,1.66.05,1.52.13,3.04.65,4.48,1.55,4.39,2.53,8.87,2.42,13.55ZM329.91,105.15c-1.37-3.25-3.42-5.16-5.27-7.22-2.36-2.64-5.21-4.73-8.17-6.54-2.4-1.46-5.12-2.49-7.75-3.6-3.35-1.42-6.85-1.27-10.32-1.54-.28-.02-.65-.04-.83.57,3.98,6.34,9.27,11.95,12.69,18.81,6.43-1.64,12.8-2.06,19.63-.47Z"/><path class="cls-1" d="M415.27,79.12c-.6.19-1.2.38-1.81.58-3.06.99-6.13-.37-7.07-4.42-.68-2.91-.52-5.87-.64-8.82-.07-1.8-.26-2.27-1.88-2.28-5.96-.01-10.39-3.5-15.03-6.5-2.36-1.53-4.24-3.57-5.83-5.9-.64-.93-1.32-1.91-1.49-2.97-.54-3.33-.38-5.24,2.83-6.77,2.04-.98,4.15-1.57,6.33-2.01,3.98-.8,7.98-1.41,12.07-1.26.22,0,.45-.12.7-.19.26-4.21,1.7-7.92,4.74-10.84,1.52-1.47,3.45-2.21,5.65-1.97,1.71.18,2.71,1.22,3.3,2.76,3.59-2.36,7.29-4.28,11.55-4.88,3.91-.55,7.71-.17,11.57.69,3.36.75,6.53,1.99,9.77,3.03,5.75,1.84,10.4,5.37,14.29,9.96,2.88,3.39,4.91,7.21,6.15,11.47.93,3.19,1,6.45.61,9.71-.64,5.21-.73,10.52-2.32,15.58-1.44,4.58-3.44,8.91-6.53,12.65-3.16,3.84-7.13,5.25-13.17,3.38-1.73-.53-3.5-1.07-5.02-2.78-.57,2.85-1.39,5.35-1.51,7.88-.19,3.91-1.01,7.74-1.18,11.65-.33,7.57-.64,15.13-.12,22.71.16,2.39.09,4.79.22,7.18.32,6.13,1.36,12.14,2.7,18.15.98,4.39,2.92,8.41,4.13,12.69.56,1.99.9,4.02,1.5,6.13-.9-.48-1.27-1.21-1.55-1.97-1.1-2.99-2.65-5.78-4.06-8.62-1.89-3.81-2.96-7.84-3.87-11.99-.76-3.44-1.27-6.87-1.71-10.35-.59-4.68-.39-9.38-.58-14.07-.16-3.94-.42-7.9-.19-11.82.23-4.05.38-8.11.76-12.16.39-4.2,1.13-8.34,1.74-12.51.29-1.96.24-3.98.97-5.88.18-.48,0-.93-.14-1.39-1.71-5.41-1.71-10.97-1.54-16.56.2-6.56,1.63-12.92,2.92-19.31.68-3.38.89-6.8,1.24-10.21.06-.61.12-1.21.33-1.6.63,2,.49,4.24.52,6.42.03,2.36-.25,4.76-.58,7.14-.9,6.56-1.8,13.12-1.75,19.76.03,3.5.21,7,.76,10.45,1.08,6.84,7.49,9.54,12.98,8.55,1.99-.36,3.29-1.92,4.44-3.45,1.97-2.62,3.3-5.6,4.54-8.63,1.5-3.66,1.87-7.52,2.31-11.39.32-2.84,1.04-5.64.98-8.52-.17-7.31-3.44-13.13-8.67-18-1.05-.98-2.04-2.04-3.19-2.9-1.57-1.19-3.14-2.36-5.11-2.97-3.27-1.01-6.42-2.4-9.68-3.42-4.55-1.42-9.25-1.85-13.94-1.06-3.13.53-5.97,2-8.85,4.18,1.16.42,2.3.66,2.03,1.98-.08.4-2.27,1.73-2.78,1.65-1.25-.19-1.03-1.36-1.37-2.32-.77.81-1.16,1.69-1.55,2.54-.23.51-.42,1.04-.85,1.42-.29.26-.6.57-1.05.35-.36-.18-.27-.54-.24-.84.12-.95.24-1.89.41-2.83.15-.86.42-1.71.53-2.58.23-1.72-.42-2.17-2.08-1.51-1.06.42-1.91,1.13-2.69,1.95-1.92,2.05-2.77,4.55-3.14,7.51,3.42-.35,6.71.59,10.22.27.24-1.24.56-2.6,2.17-2.83.78-.11,1.65-.27,2.14.62.49.87.12,1.5-.64,2.01-.1.06-.1.27-.2.61,1.78.51,3.91-.11,5.41,1.43-1.89-.02-3.66.54-5.59.35-2.9-.28-5.86,0-8.78-.06-3.82-.09-7.63.3-11.45.32-2.88.02-5.81.54-8.87,1.45,1.7,1.78,2.93,3.62,3,6.04.07,2.47-1.14,4.23-3.17,5.67,3.42,2.39,6.61,4.86,10.57,5.63,5.65,1.11,11.34,1.09,16.92-.6,1.77-.54,3.23-1.7,4.67-2.83,2.43-1.93,5.18-3.09,8.27-3.39.55-.05,1.14-.09,1.67.05,1.19.31,1.51,1.73.66,2.64-.83.89-1.98,1.01-3.05,1.16-2.28.32-4.34,1.02-5.99,2.69-.11.11-.23.26-.37.3-2.89.81-2.66,2.8-2.23,5.17.84,4.59-.03,9.04-1.61,13.38-.75,2.06-2.24,3.66-3.5,5.37-1.64,2.23-3.54,4.3-5.51,6.27-1.62,1.62-3.42,3.09-5.3,4.39-1.06.73-1.98,1.6-3.02,2.34-3.75,2.64-6.9,5.86-9.26,9.8-.31.51-.6,1-1.29.69-.55-.24-.53-.8-.43-1.25.25-1.08.59-2.13,1.15-3.12,2.42-4.34,5.91-7.57,10.01-10.33,3.51-2.35,6.56-5.29,9.32-8.52,1.34-1.57,2.87-2.98,3.8-4.86.16-.28.62-.54.19-.87-.24-.18-.5.13-.72.29ZM407.22,64.55c1.05,2.49,1.47,4.82,1.76,7.19.13,1.09.52,2.18.95,3.2.62,1.47,1.58,1.89,3.05,1.38,1.56-.55,3.09-1.2,4.64-1.79.61-.23.83-.69.9-1.28.31-2.94.39-5.87-.19-8.79-.14-.72-.36-1.09-1.27-.9-3.12.64-6.27,1.08-9.83.99Z"/><path class="cls-1" d="M110.82,178.61c-.78-.36-.83-.93-.78-1.47.5-5.17-.21-10.31-.39-15.46-.07-2.05-.69-4.07-.88-6.15-.51-5.44-1.13-10.87-1.88-16.29-.33-2.42-1.45-4.7-1.68-7.16-.31-3.27-1.22-6.39-1.98-9.56-.89-3.71-2.2-7.28-3.7-10.78-.53-1.24-.8-2.37-.19-3.67.29-.63.41-1.4.39-2.11-.11-3.83.46-7.62.59-11.43.13-3.72.67-7.41.59-11.14-.02-1.1.28-2.2.43-3.31.58-4.26.7-8.54.43-12.83-.08-1.29.51-2.25,1.22-3.26,1.88-2.67,3.73-5.35,4.2-8.73.13-.96.35-1.83-.07-2.78-.59-1.33-.24-2.66.3-3.93.18-.44.38-.9.68-1.25,3.91-4.56,5.29-10.28,7.18-15.76,1.31-3.8,1.75-7.74,1.4-11.76-.15-1.73.07-3.5-.74-5.2-3.37.89-6.13,2.95-9.01,4.72-5.53,3.41-10.19,7.9-14.66,12.53-2.21,2.28-4.27,4.7-6.57,6.91-.89.85-1.62.91-2.73.86-7.32-.34-14.66-.63-21.8,1.58-1.4.43-2.73.42-4.17-.17-3.73-1.55-7.67-1.93-11.69-1.96-3.14-.02-6.14.88-9.23,1.08-.76.05-1.22-.06-1.82-.65-2.67-2.66-4.87-5.7-7.24-8.61-2.02-2.47-4.09-4.88-6.54-6.94-3.23-2.72-6.38-5.53-9.76-8.07-.25-.19-.47-.43-1.08-.4-.16,1.22-.45,2.5-.49,3.79-.17,5.5-.23,11,.22,16.5.39,4.76.34,9.49-.93,14.19-.76,2.8.03,5.61,1.69,7.96,1.1,1.55,1.96,3.26,3.2,4.72.48.57.54,1.25.39,2.03-.61,3.29-1.27,6.58-1.65,9.9-.34,2.93-.06,5.91-.17,8.85-.2,5.23,1.16,10.27,1.47,15.43.26,4.45,1.04,8.9.12,13.36-.39,1.86-.52,3.8-1.12,5.59-1,3.01-.86,6.14-1.26,9.2-.21,1.57-.52,3.13-.58,4.74-.14,3.4-.15,6.79.28,10.15.17,1.33-.75,2.1-1.27,2.99-3.23,5.6-4.95,11.64-5.79,18.01-.56,4.26-.79,8.51-.36,12.77.2,1.98.65,3.92,1.27,5.82.16.49.47,1.18-.21,1.46-.66.27-.94-.4-1.24-.87-1.54-2.48-2.52-5.22-2.75-8.07-.22-2.75-.68-5.55-.32-8.31.72-5.4,1.16-10.85,3.35-15.99,1.06-2.48,1.69-5.19,3.46-7.26,1.41-1.64,1.57-3.3,1.15-5.23-.85-3.98,0-7.91.27-11.88.32-4.71,1.29-9.29,2.25-13.88.84-4,.1-7.96-.3-11.92-.37-3.64-1.17-7.24-1.42-10.89-.41-5.96-.64-11.95.41-17.89.39-2.18.38-4.43,1.16-6.54.24-.65-.18-.99-.47-1.47-.55-.92-1.53-1.35-2.14-2.22-3.11-4.4-3.84-9.06-1.98-14.18.91-2.5.54-5.16.41-7.76-.34-6.59-.9-13.17-.31-19.77.11-1.27-.2-2.52-.06-3.81.31-2.75,1.62-2.82,3.62-2.2,2.23.69,4.27,1.89,6.04,3.33,5.32,4.32,10.27,9.05,14.59,14.39,1.85,2.28,3.67,4.59,5.4,6.96.65.9,1.22,1.05,2.18.58,2.77-1.34,5.76-1.97,8.78-2.15,3.5-.21,6.96.46,10.24,1.72,1.82.7,3.43.99,5.46.41,3.57-1.02,7.33-1.26,11.06-1.41,2.37-.1,4.74-.21,7.11-.31.48-.02,1.01-.14,1.43.01,2.36.85,3.29-.67,4.49-2.3,2.98-4.06,6.6-7.56,10.59-10.64,2.46-1.9,4.89-3.85,7.42-5.66,3.57-2.55,7.35-4.77,11.45-6.37,1.64-.64,2.39-.16,3.03,1.5.59,1.53.53,3.13.79,4.68.45,2.65.3,5.24-.09,7.83-1,6.64-2.59,13.12-5.68,19.14-.94,1.82-2.19,3.48-3.28,5.23-.38.6-.77,1.18-.69,1.98.52,4.85-.76,9.12-4.19,12.68-.4.41-.63.83-.53,1.49.74,4.61.22,9.18-.24,13.78-.46,4.59-.75,9.21-.96,13.84-.21,4.59-.53,9.2-1.73,13.69-.18.68-.2,1.33.17,2.06,3.53,6.96,5.26,14.47,6.4,22.13.41,2.76,1.42,5.39,1.64,8.19.27,3.39.82,6.75,1.18,10.13.41,3.79.72,7.6,1.09,11.39.42,4.38.29,8.77-.37,13.13-.23,1.55-.49,3.09-1.52,4.36Z"/><path class="cls-1" d="M660.52,175.95c-.48,0-.75.08-.93-.01-5.48-3.04-11.34-5.29-16.97-8.01-3.11-1.51-6.35-2.77-9.45-4.36-3.16-1.61-5.32-4.1-6.87-7.09-2.64-5.1-4.78-10.42-6.21-16.01-.91-3.55-1.63-7.13-1.98-10.8-.34-3.47-1.05-6.91-1.77-10.33-.19-.91-.61-1.27-1.39-1.69-3.21-1.73-6.5-3.32-9.56-5.34-3.08-2.03-5.77-4.51-8.57-6.9-3.52-3-6.98-6.03-9.98-9.59-2.3-2.73-3.92-5.81-5.12-9.12-.42-1.16-.12-2.14.91-3.18,3.98-4.03,9.08-5.42,14.34-6.51,2.02-.42,4.06-.84,6.11-1.02,2.37-.2,4.74.29,7.07.71,4.54.83,8.91,2.24,13,4.45,1.75.95,3.64,1.61,5.29,2.74.52.36.94.86,1.55,1.43,1.55-1.65,3-3.41,4.75-4.88,4.24-3.56,8.33-7.27,13.26-9.97,2.67-1.46,5.36-2.64,8.37-3.43-.79-3.2,0-6.4.12-9.61.2-5.19,1.16-10.25,2.89-15.15,1.5-4.23,3.43-8.22,6.84-11.3.47-.43.95-.85,1.48-1.21,2.74-1.86,4.46-1.66,6.74.73,2.2,2.3,3.39,5.23,4.41,8.1.88,2.46,1.96,4.85,2.71,7.37,1.34,4.49,2.65,9.02,3.15,13.65.38,3.49,1.14,6.92,1.41,10.4.14,1.72.97,2.93,2.27,3.73,3.14,1.94,5.97,4.29,8.65,6.75,3.56,3.27,7.11,6.56,10.55,9.96,2.4,2.37,4.16,5.23,6.55,7.59,1.33,1.31,1.62,3.15,1.24,4.93-.61,2.85-.44,5.69-.37,8.67,2.08-.34,3.92.32,5.7,1.12.87.39,1.3,1.22,1.32,2.12.01.57-.59.91-1.08,1.19-.37.21-.76.25-1.15.09-.29-.12-.58-.27-.85-.44-2.26-1.42-4.25-.82-6.07.83-.84.76-1.71,1.43-2.72,1.94-.4.2-.76.17-1.07-.18-.34-.38-.2-.76.05-1.08.82-1.07,1.55-2.24,2.54-3.13,1-.91,1.16-1.92.8-3-.92-2.8-.81-5.66-.55-8.49.1-1.13-.25-1.83-.86-2.56-4.55-5.46-9.74-10.25-15.11-14.89-1.86-1.61-3.72-3.23-5.58-4.85-.67-.59-1.38-1.06-2.13-1.51-3.72-2.25-6.25-5.13-6.48-9.86-.23-4.67-1.12-9.33-2-13.91-1.35-7.03-3.97-13.72-7.01-20.22-.32-.68-.87-1.11-1.49-1.51-.54-.35-.95-.32-1.48.1-1.82,1.47-3.47,3.13-4.44,5.26-1.93,4.25-3.63,8.58-4.25,13.28-.49,3.71-.9,7.42-.9,11.16,0,.74-.24,1.41-.4,2.11-.17.74-.32,1.26.64,1.89,1.28.84.57,3.32-.9,3.86-.9.33-1.89.44-2.79.55-2.55.3-4.65,1.54-6.75,2.79-1.85,1.1-3.95,1.74-5.64,3.12-3.77,3.07-8,5.46-12.07,8.09-.96.62-1.59,1.53-2.47,2.19-.73.55-1.24.6-2.11.1-6.51-3.72-13.31-6.58-20.85-7.61-2.46-.34-4.76-.12-7.07.3-3.98.72-8.08,1.06-11.66,3.25-.48.29-.99.53-1.46.83-1.56,1.02-1.71,1.48-.91,3.14,1,2.09,2.23,4.04,3.71,5.83,1.53,1.85,3.15,3.6,4.96,5.18,2.87,2.51,5.64,5.13,8.5,7.64,3.07,2.69,6.45,4.95,10.05,6.83,1.85.97,3.31,2.49,5.23,3.34.85.38,1.12,1.38,1.27,2.22.83,4.77,1.85,9.51,2.51,14.32.5,3.71,1.6,7.32,2.87,10.82,1.32,3.66,2.53,7.4,4.44,10.8,1.31,2.34,2.88,4.48,5.49,5.73,5.1,2.43,10.15,4.96,15.12,7.64,3.14,1.69,6.29,3.4,9.05,5.72.62.52,1.06,1.16,1.54,2.15Z"/><path class="cls-1" d="M402.99,153.2c-2.32.34-4.28.63-6.25.92-.8.12-1.58.15-2.39.01-2.16-.38-2.02-.4-2.55-2.55-.7-2.85-1.43-5.68-1.96-8.57-.34-1.87-.53-3.78-1.02-5.61-1.3-4.86-2.19-9.79-2.93-14.75-.13-.87-.32-1.78-.17-2.62.26-1.53-.23-2.5-1.47-3.42-5.05-3.73-9.9-7.73-15.36-10.87-.78-.45-1.78-1.41-2.56-.76-.69.58-.6,1.82-.61,2.88-.03,3.33-.29,6.67-.46,10-.01.23,0,.47,0,.68.54.35,1.11.15,1.65.18,2.46.17,4.01,1.49,4.38,3.92.13.89.39,1.56.98,2.3,1.66,2.06,1.27,5.73-1.03,7.25-2.23,1.48-2.44,3.14-2.25,5.58.26,3.34,1.14,6.56,1.35,9.89.08,1.32,1,1.87,2.15,2.23,2.39.74,4.88.68,7.32,1.03,1.5.21,2.95.5,4.4.93,1.29.38,2.62.68,3.99.69.88,0,1.73.14,2.41.77-.1.8-.74.92-1.22,1-1.02.17-1.97.71-3.04.61-5.3-.49-10.65-.34-15.88-1.54-1.81-.42-2.7-1.42-3.08-3.14-.8-3.66-1.32-7.36-1.69-11.08-.19-1.89-.25-3.79-.37-5.69-4.63-.5-7.48-3.87-7.31-8.11.08-2,1.76-3.12,2.73-4.62.41-.63,1.05-.52,1.78-.39-.49.86-.99,1.65-1.41,2.47-1.6,3.15-.25,6.54,3.08,7.78.75.28,1.56.43,2.25.81,1.15.64,2,.11,2.82-.56.92-.75,1.46-1.65,1.17-2.93-.14-.61-.4-.97-.98-1.2-1-.39-1.28-1.23-.96-2.16.37-1.03.61-1.95-.21-2.89-.91-1.05-2.06-1.45-3.4-1.41-.61.02-1.21.05-2.09.09.41-.71.86-.96,1.39-1.23-.45-.62-.89-1.21-.93-2.04-.16-3.43-.48-6.85-.55-10.27-.03-1.56.2-3.17.91-4.64.39-.81.91-1.15,1.83-1.21,2.01-.12,3.79.45,5.44,1.5,1.95,1.24,3.85,2.56,5.66,4,3.36,2.68,6.76,5.31,10.09,8.02.79.64,1.28.72,2.27.23,4.28-2.12,8.78-3.75,13.23-5.45,2.69-1.02,5.29-2.23,7.92-3.38,2.23-.97,3.73,0,3.93,2.45.24,2.94.54,5.87.34,8.83-.07,1.03.09,2.08.21,3.11.22,1.79.33,1.89,2.07,1.71.8-.08,1.56-.16,2.37-.02,2.46.43,2.54.43,3.38-2.02.88-2.56,1.61-5.18,3.12-7.48.22-.33.41-.68.61-1.03.15-.27.4-.24.62-.17.27.08.28.33.3.57.03.57-.15,1.09-.34,1.62-1.15,3.15-1.59,6.48-2.49,9.7-.68,2.44-1.2,2.92-3.72,2.36-2.41-.53-4.75-.25-7.13.05-1.43.18-2.49.97-3.28,2.1-.89,1.27-.55,2.54.91,2.99,2.72.83,5.49.99,8.19-.18.51-.22.95-.61,1.53-.64,1.12-.06,2.16-.18,2.88,1.1.44.79,1.06,1.58,1.89,2.12,1.28.84,1.81.82,2.98-.13,1.54-1.25,2.53-2.89,3.21-4.69.35-.93.9-1.68,1.51-2.41.37-.45.9-.74,1.48-.56.66.21,1,.78,1.04,1.46.03.47.11,1.05-.11,1.41-1.51,2.38-2.36,5.15-4.67,7.1-2.66,2.25-6.02,2.58-8.25-.05-1.36-1.6-2.57-1.72-4.26-1.04-.72.29-1.5.43-2.23.64.17,3.14.81,6.17.68,9.28-.16,3.72-.77,4.51-4.29,6-2.64,1.12-5.38,1.92-8.35,2.73,5.67,6.09,7.61,13.49,8.43,21.31.1,1,.63,2.01.12,3.06-.17.36-.2.81-.68.87-.61.08-.81-.33-.94-.83-.75-2.85-1.6-5.67-2.24-8.55-1.01-4.58-2.94-8.72-5.58-12.55-.61-.89-.72-1.71-.35-2.9ZM393.41,152.2c.15.04.23.1.29.08,5.75-1.83,11.64-3.16,17.33-5.23,2.91-1.06,3.19-1.59,2.92-4.97-.13-1.66-.53-3.3-.66-4.96-.19-2.39-.14-2.4-2.5-2.96-.16-.04-.31-.07-.47-.09-3.77-.45-5.13-6.12-2.84-8.55,1.09-1.16,2.18-2.38,3.7-2.91,1.03-.36,1.1-.93.96-1.82-.3-1.97-.45-3.94-.49-5.95-.04-1.83-.14-3.74-.73-5.48-.25-.02-.34-.06-.4-.03-6.04,2.65-12.24,4.9-18.34,7.37-2.62,1.06-3.46,2.19-3.06,4.35.86,4.61,1.1,9.33,2.42,13.86.2.69.35,1.39.44,2.1.61,5.06,1.41,10.09,1.43,15.18Z"/><path class="cls-1" d="M231.07,170.36c-1.19,2.81-.19,5.8-2.15,7.97-.85-.35-.52-.86-.5-1.28.19-4.47.14-8.94-.29-13.39-.07-.74,0-1.43.21-2.12.19-.63.45-1.25,1.28-1.15.78.1,1.75.11,1.82,1.17.16,2.33,1.88,4.01,2.47,6.16.29,1.08,1.2,1.88,1.95,2.69.85.91,1.69.86,2.4-.12.46-.63.83-1.37,1.1-2.11,1.96-5.34,3.13-10.86,3.64-16.52.09-1.03.22-2.06.32-3.09.33-3.27,1.99-4.15,4.87-2.59.21.11.42.23.72.4,2.16-3.19,3.7-6.58,4.16-10.47.35-2.95.27-5.9.31-8.84.02-1.08.09-2.09,1.3-2.56.78-.3.7-1.01.69-1.63-.1-4.21.2-8.5-1.24-12.54-1.48-4.17-2.67-8.55-6.2-11.66-.42-.36-.79-.74-1.32-1-1.73-.83-2.5-2.5-1.63-4.06.89-1.6.85-3.25.74-4.89-.17-2.7-.62-5.35-1.53-7.95-.73-2.11-1.32-4.23-2.54-6.14-.61-.96-.55-2.68.03-2.86,1.01-.3,1.92-.25,2.83.63,1.71,1.64,2.15,3.84,3.04,5.86,1.18,2.65,1.38,5.5,1.94,8.28.45,2.23.28,4.45-.2,6.63-.2.89-.23,1.44.55,2.03,2.63,2,4.1,4.88,5.41,7.76,1.48,3.25,2.56,6.72,3.16,10.24.72,4.24.85,8.56.59,12.87-.04.65-.3,1.3-.89,1.63-.93.51-.99,1.29-1.01,2.23-.08,3.84-.42,7.64-1.34,11.39-.35,1.42-.75,2.78-1.67,3.92-.61.77-.94,1.66-1.33,2.53-1.07,2.39-2.28,3.08-4.87,2.69-.95-.15-1.09.28-1.16,1.01-.61,5.86-1.9,11.59-3.71,17.19-.44,1.35-1.06,2.68-1.81,3.88-1.57,2.51-4.97,3.01-7.3,1.07-1.02-.85-2.15-1.64-2.86-3.29Z"/><path class="cls-1" d="M161.34,18.67c-.59-.81-1.5-.72-2.19-1.1-2.62-1.42-2.98-4.29-.51-5.92,3.58-2.36,7.43-4.04,11.91-2.87.53.14,1.11.29,1.55.59.76.53.77,1.37.51,2.16-.24.7-.79.94-1.53.8-.47-.09-1,.04-1.43-.13-3.38-1.32-5.96.59-8.73,1.92.26,1.04,1.12,1,1.7,1.27,2.12.98,2.9,3.99,1.41,5.78-3.54,4.28-7.11,8.55-11.04,12.49-1.96,1.97-4,3.85-5.67,6.1-.73.98-1.34,2.01-1.71,3.14-.42,1.29-.35,2.51.49,3.83,2.07,3.27,4.99,5.58,8.16,7.55,2.38,1.47,4.5,3.22,6.51,5.11,4.01,3.77,7.59,7.94,11.13,12.15.29.35.47.87,1.22.75,1.38-4.72,1.95-9.59,1.4-14.5-.32-2.86-.47-5.73-.6-8.58-.24-5.19-.95-10.31-1.78-15.42-.61-3.75.34-5.56,4.01-7.56.66.69,0,1.22-.32,1.65-1.28,1.72-1.44,3.44-.91,5.57,1.03,4.15,1.69,8.37,1.85,12.71.16,4.36.67,8.72.89,13.09.24,4.76-.57,9.37-1.47,13.99-.22,1.14-.75,2.12-1.73,2.75-1,.64-1.98.83-3.05-.12-1.92-1.71-3.46-3.75-5.22-5.59-3.56-3.75-7.07-7.57-11.16-10.73-2.39-1.84-4.96-3.46-7.36-5.31-2.08-1.6-3.63-3.63-4.78-5.91-2.01-3.99-.93-7.74,1.76-10.87,2.89-3.35,6.01-6.52,9.18-9.63,2.82-2.77,5.37-5.83,7.49-9.15Z"/><path class="cls-1" d="M21.29,92.22c1.76.98,2.98,2.37,4.35,3.53,2.5,2.12,5.18,2.68,8.19,1.46,2.95-1.19,5.86-2.47,8.79-3.71.37-.15.73-.41,1.1-.43,2.15-.11,2.43-1.4,2.32-3.21-.09-1.42.18-2.88.7-4.21.35-.91.02-1.3-.63-1.77-3.89-2.83-5.95-6.73-6.71-11.42-.14-.85.07-1.4.83-1.75,5.07-2.4,10.34-3.11,15.81-1.69,2.16.56,3.83,1.91,5.17,3.65,1.08,1.4,1.08,2.56-.02,3.89-2.78,3.35-6.22,5.86-10.2,7.6-1.25.54-1.94,1.31-1.98,2.62-.06,1.68-.04,3.36-.59,4.98-.23.67.11,1,.73,1.24,3.12,1.23,5.73,3.47,8.91,4.57,3.37,1.17,6.65,2.27,10.43,1.82,4.11-.5,7.62-2.07,11-4.23.2-.13.38-.29.59-.41.84-.51,1.78-.6,2.4.18.67.84.2,1.75-.56,2.28-3.33,2.33-6.74,4.42-10.9,5.12-7.5,1.26-14.13-.78-20.34-4.81-.67-.43-1.4-.75-2.11-1.12-1.52-.78-2.94-.71-4.55,0-3.12,1.39-6.14,2.99-9.46,3.97-2.9.85-5.49.6-7.99-.97-1.92-1.21-3.45-2.84-4.78-4.65-.45-.62-.88-1.34-.48-2.55Z"/><path class="cls-1" d="M558.09,43.47c-.4-3.84-1.16-7.52-2.53-10.96-1.31-3.31-2.69-6.62-4.72-9.63-.85-1.26-2.08-1.94-3.08-2.95-3.94-3.97-8.52-7.01-13.9-8.51-3.48-.97-7.06-1.83-10.75-1.5-.21.02-.5.08-.51.71,5.2,3.76,9.29,8.9,13.57,14.22.49-1.68-.53-2.76-.42-4.06.18-2.15,1.64-3.1,3.58-2.07,2.04,1.07,3.45,2.82,4.57,4.74,1.56,2.68,2.83,5.55,3.4,8.62.38,2.03,1.18,3.99,1.13,6.1-.01.47.65,1.18-.29,1.34-.63.1-.95-.51-1.15-1.04-.67-1.79-1.34-3.58-1.97-5.38-.93-2.64-2.08-5.17-3.56-7.54-.42-.67-.8-1.35-1.78-1.57.18,1.58.37,3.18-1.78,3.55.77,2.01,1.73,3.85,2.07,5.9.05.32.17.62.21.94.12,1.13-.19,2.25-1.27,2.59-1.23.39-1.52-.95-1.88-1.72-.46-.99-.59-2.13-.91-3.19-.66-2.17-1.83-4.09-3.33-5.74-2.05-2.24-3.72-4.79-5.8-6.99-2.62-2.79-5.58-5.22-8.64-7.52-1.62-1.22-1.94-2.2-1.15-3.59.29-.51.64-.84,1.25-1,3.35-.86,6.67-1.29,10.15-.6,2.25.44,4.58.54,6.79,1.24,5.88,1.88,10.81,5.27,15.05,9.69.83.86,1.78,1.57,2.54,2.52,2.46,3.06,3.38,6.78,4.67,10.35,1.42,3.9,1.39,7.98,1.38,12.04,0,.42-.18.77-.94,1.02Z"/><path class="cls-1" d="M129.84,127.75c-1.56-.86-2.91-.91-4.25-.98-.4-.02-.81.09-1.19.02-.85-.16-1.82-.22-2.22-1.17-.42-.99-.1-1.9.64-2.62,3.31-3.23,5.93-7.05,9.07-10.42,3.02-3.24,5.89-6.62,8.92-9.85,3.2-3.42,6.52-6.73,9.84-10.14-.52-.85-1.46-1.03-2.2-1.3-2.81-1.02-3.23-2.71-1.25-5.93.91-1.48,2.26-2.67,3.39-4.02,2.2-2.62,4.63-5.01,7.13-7.33,1.05-.97,2.12-1.3,2.8-.64.69.67.52,2.38-.36,3.23-1.09,1.05-2.24,2.04-3.34,3.08-2.59,2.47-4.87,5.21-7.05,8.2,1.16.58,2.25,1.04,3.24,1.64,1.72,1.06,2.04,2.53,1.09,4.28-.77,1.43-1.9,2.64-3.06,3.62-2.45,2.05-4.2,4.73-6.66,6.77-1.49,1.24-2.62,2.97-3.97,4.44-4.41,4.78-8.74,9.64-13.26,14.65.86.52,1.65.59,2.5.7,3.68.46,4.81,3.02,2.68,6.11-3.26,4.74-7.44,8.63-11.74,12.41-1.37,1.21-2.76,2.4-4.18,3.56-.72.6-1.5,1.16-2.72.72,5.05-6.65,10.94-12.42,16.19-19.04Z"/><path class="cls-1" d="M645.98,80.47c1.88,1.81,2.57,3.8,3.61,5.54.69,1.15,1.17,2.43,1.81,3.62,1.76,3.27,4.82,4.99,8.01,6.49,1.8.84,3.68,1.52,5.69,1.67,1.53.11,2.99.5,4.4,1.04,4.39,1.67,8.99,1.78,13.6,2,4.76.23,9.55.18,14.14,1.82,1.23.44,2.15,1.34,3.37,1.78.62.23.76.94,1.02,1.65-1.02.29-1.89.21-2.65-.17-3.69-1.81-7.66-1.93-11.64-2.09-4.45-.18-8.9-.35-13.35-.58-.87-.04-1.73-.3-2.58-.51-2.61-.64-5.15-1.49-7.83-1.97-3.09-.56-6.07-1.82-8.58-3.8-.72.31-.37.86-.4,1.27-.14,1.84-.59,3.53-1.51,5.2-3.51,6.43-6.66,13.03-9.06,19.98-1.53,4.43-3.14,8.83-4.44,13.34-.73,2.54-.87,5.18-1.37,7.76-.19.97-.27,1.89-1.37,2.31-1.1-1.1-.61-2.43-.46-3.63.75-6.18,2.65-12.06,4.69-17.9,1.55-4.42,3.06-8.86,4.85-13.19,1.42-3.44,3.1-6.78,4.91-10.04,1.55-2.79,1.36-5.46.01-8.13-1.98-3.92-3.62-7.97-4.77-12.21-.06-.22-.05-.46-.12-1.25Z"/><path class="cls-1" d="M233.64,8.8c1.76,2.13,3.72,4.08,5.11,6.52,3,5.25,5,10.82,5.56,16.86.21,2.23.05,4.46-.92,6.56-.25.54-.51.95-1.35,1.17-.06-1.74-.22-3.37-.14-4.99.13-2.59-.36-5.07-1.12-7.5-1.46-4.64-3.17-9.18-6.33-12.99-3.06-3.68-6.68-6.59-11.31-8.06-6.11-1.95-12.38-3.26-18.79-3.08-5.22.15-10.36,1-15.35,2.86-4.27,1.59-7.95,3.91-11.19,7.03-.23.22-.49.41-.74.6-1,.73-1.88.08-2.65-.39-.83-.5-.29-1.29-.04-1.93.55-1.41,1.71-2.29,2.88-3.11,3.65-2.57,7.52-4.65,11.87-5.86,4.7-1.31,9.47-2.63,14.29-2.48,4.21.14,8.53-.05,12.71,1.37,2.14.73,4.49,1.07,6.7,1.7,3.38.96,6.51,2.51,9.3,4.71.48.38.88.94,1.56,1.03l-.05-.02Z"/><path class="cls-1" d="M233.68,8.82c.67.05.5-.38.45-.77-.13-1.02.08-1.93,1.02-2.49,3.23-1.92,6.56-3.55,10.45-3.59,3.04-.03,5.03,1.36,5.06,4.65.01,1.12-.02,2.23-.06,3.34-.07,2-.06,2.08,1.92,2.64,1.08.31,2.07.74,3.06,1.29,4.36,2.45,6.49,6.17,6.47,11.12-.02,6.7-.43,13.4-1.91,19.94-.98,4.34-1.76,8.73-2.85,13.04-.2.77-.42,1.55-.75,2.27-.71,1.49-1.95,1.9-3.31,1-1.4-.92-2.66-2.02-4.01-3.01-.52-.38-.79-.79-.51-1.41.3-.65.95-.65,1.45-.51.91.26,1.8.65,2.66,1.06.42.2.78.55,1.32.56.74-.69.82-1.68,1-2.58.98-4.85,1.94-9.7,2.8-14.57.75-4.25.85-8.57,1.13-12.86.1-1.57-.14-3.2-.47-4.75-.67-3.15-2.97-5.04-5.63-6.45-.8-.43-1.64-.91-2.56-1.19-2.52-.77-3.47-2.38-3.23-5.04.1-1.09.6-2.1.22-3.29-.54-1.68-.7-1.98-2.45-1.86-2.26.15-4.42.73-6.28,2.07-1.48,1.07-2.94,1.92-4.79.93-.07.14-.15.28-.22.42,0,0,.04.02.04.02Z"/><path class="cls-1" d="M699.72,175.71c-1.08-1.62-1.39-3.36-1.1-5.21.08-.49.13-1,.73-1.08.58-.08.85.37,1.01.83.61,1.63,1.19,3.27,1.84,5.08,1.42-.16,2.84-.57,4.34-1.28-.33-1.04-.93-1.98-1.06-3.07-.13-1.08-.27-2.17-.46-3.67,1.86,1.85,2.61,3.78,3.03,6,2.67-1.31,5.05-2.99,7.3-4.86.87-.72,1.53-1.6,2.11-2.56.75-1.23,1.4-1.49,2.22-.95.87.58,1.26,2.03.82,2.93-.73,1.47-2.02,2.48-3.21,3.49-4.24,3.59-9.06,6.14-14.48,7.51-1.81.46-3.61.59-5.44.34-3.02-.41-4.99-3.38-4.63-6.42.43-3.67,1.82-6.9,3.97-9.82,2.2-2.98,5.17-5,8.69-6.05,1.4-.42,1.78-1.03,1.55-2.34-.76-4.41-.11-8.74.96-13,.56-2.22,1.25-4.43,2.21-6.54.24-.53.48-.98,1.02-1.26,1.1-.57,1.86-.2,2.05,1.03.11.74-.07,1.41-.34,2.1-1.19,3.04-2.29,6.13-2.78,9.37-.36,2.34-.92,4.66-.78,7.07.13,2.13-.42,3.57-2.8,4.57-4.21,1.77-7.39,4.86-8.98,9.37-.56,1.57-1.38,3.05-1.58,4.74-.34,2.81.71,3.86,3.81,3.69Z"/><path class="cls-1" d="M237.68,65.64c-.9.45-1.86.36-2.82.28-1.59-.13-2.97.42-4.22,1.35-3.67,2.75-7.84,4.07-12.38,4.35-1.74.11-3.49.27-5.23.4-3.07.22-6.05-.19-8.9-1.35-1.1-.45-2.1-1.06-2.54-2.5,1.91.16,3.52.87,5.29.91,3.42.08,6.81-.32,10.21-.38,4.69-.07,8.77-1.75,12.68-4.22,1.71-1.08,3.7-1.52,5.84-1.73,5.37-.54,9.22-2.96,8.78-9-.21-2.9-1.58-5.62-3.34-8.01-1.26-1.71-3.19-2.29-5.12-2.86-2.16-.65-4.36-1-6.61-.83-1.13.08-2.16-.12-2.54-1.24-.34-.99.77-1.85,2.35-1.97,4.6-.37,8.88.72,12.74,3.17,2.16,1.37,3.21,3.74,4.27,5.93.79,1.62,1.37,3.45,1.54,5.24.38,4.06-1.16,7.41-4.38,9.99-1.67,1.34-3.71,1.74-5.61,2.5h-.04Z"/><path class="cls-1" d="M23.69,120.86c.04.12.04.27.12.36,3.82,4.85,6.42,10.52,10.37,15.28,1.38,1.66,2.7,3.36,4.06,5.03.72.89,1.67,1.55,2.68,1.96,2.89,1.19,5.86,2.07,9.07,1.66,5.76-.73,11.17-2.55,16.13-5.52,3.15-1.89,5.73-4.55,8.25-7.21,2.63-2.77,5.31-5.49,7.7-8.48.61-.76,1.41-1.77,2.31-1.17,1.11.75.22,1.91-.27,2.75-.65,1.09-1.41,2.14-2.28,3.06-2.97,3.1-5.78,6.34-8.9,9.29-3.83,3.63-8.32,6.03-13.32,7.64-2.91.93-5.87,1.7-8.87,1.79-5.82.18-11.15-.82-14.84-6.3-1.98-2.94-4.4-5.63-6.26-8.68-1.93-3.17-4.08-6.26-5.11-9.9-.17-.61-.67-.99-.84-1.57Z"/><path class="cls-1" d="M671.67,140.18c-2.43.24-4.24-.71-5.94-2.43-2.34-2.37-4-5.11-5.44-8.05-.99-2.04-1.01-2.02-3.38-1.76-1.19.13-2.38.23-3.57.32-.31.03-.65.02-.78-.36-.17-.54.24-.73.61-.84.84-.24,1.7-.45,2.56-.59,7.74-1.23,13.78-5.48,19.16-10.86.66-.66,1.31-1.39,1.7-2.29.23-.52.61-.93,1.13-1.2.81-.42,1.37-.12,1.45.82.07.78.16,1.58-.53,2.22-.35.32-.62.73-.87,1.13-.59.99-2.26,1.57-2.02,2.66.23,1.05.92,2.15,1.47,3.21,1.99,3.85,2.78,7.85,1.79,12.19-.86,3.78-2.84,6.02-7.35,5.81ZM660.37,127.37c1.95,2.26,3.29,4.73,5.22,6.76,2.06,2.17,4.15,4.2,7.55,3.69,1.86-.28,2.85-1.01,3.44-2.8,1.81-5.49.22-10.23-2.98-14.61-1.92.93-3.15,2.62-5.02,3.43-.98.42-.89.94-.26,1.82,1.33,1.87,2.44,3.9,3.64,5.87.2.34.48.74.1,1.07-.47.41-.87.05-1.22-.29-.53-.52-.73-1.21-1.04-1.86-.89-1.86-1.21-3.97-2.54-5.75-2.14,1.02-4.38,1.83-6.88,2.68Z"/><path class="cls-1" d="M574.57,50.76c-2.6,2.06-4.17,4.38-6.12,6.31-2.49,2.46-4.9,5.01-7.6,7.25-.43.36-.88.69-1.35,1-.33.22-.74.41-1.01-.08-.18-.33,0-.65.27-.83,1.16-.76,1.89-1.94,2.86-2.89,4.03-4,7.34-8.58,10.67-13.15.23-.32.46-.66.75-.93,2.02-1.91,3.77-1.47,4.66,1.2.48,1.45.39,2.87.21,4.43-.54,4.51-2.23,8.59-4.07,12.62-1.53,3.33-3.66,6.29-6.33,8.83-.12.11-.21.24-.33.35-.5.49-1.19.72-1.75.4-.66-.38-.26-1.16-.26-1.77,0-.52.37-.86.64-1.26.88-1.33,1.68-2.71,2.63-3.98,2.5-3.32,3.61-7.23,4.78-11.1.3-.99,1.06-1.77,1.07-2.87.01-1.02.16-2.03.3-3.53Z"/><path class="cls-1" d="M265.41,169.69c.33.06.59-.06.87-.24,2.53-1.58,3.42-1.44,5.59.9.64-.31,1.3-.67,2-.96,3.31-1.35,6.05-.25,6.85,3.75.42,2.1-.24,4.1-.95,6.06-.31.87-.99.81-1.77.74-.89-.08-.96-.62-1.05-1.29-.1-.73-.03-1.42.2-2.12.32-.99.44-2.02.3-3.06-.1-.7-.42-1.22-1.13-1.36-.67-.14-1.25.07-1.67.65-.43.6-.69,1.25-.69,2,0,1.37-.53,2.65-.71,3.98-.13.98-.82,1.06-1.53,1.15-.94.12-1.3-.59-1.43-1.29-.22-1.25-.32-2.53-.4-3.79-.08-1.14-.27-2.21-1.16-3.03-1.5,1.07-1.77,1.44-1.61,3.2.12,1.37.07,2.69-.18,4.03-.13.69-.2,1.26-1.03,1.32-.84.07-1.64-.02-1.96-.95-.21-.6-.35-1.23-.4-1.86-.09-1.16-.62-2.16-1.18-3.1-.87-1.46-2.06-1.35-2.85.14-.6,1.13-.49,2.32-.45,3.51.03.84.35,1.7-.17,2.45-.81.14-.84-.48-1-.86-.53-1.26-.71-2.58-.76-3.96-.14-3.48,2.77-6.8,7.06-3.9.3-.55,1.16-.82.76-1.7l-.07.03c.69.36.5-.22.55-.53l-.05.08Z"/><path class="cls-1" d="M237.71,65.65c-.29.67.23.53.58.61,1.88.41,2.21.93,2.05,2.78-.27,3.1-1.41,5.97-3.08,8.44-2.57,3.81-5.19,7.71-9.19,10.26-2.17,1.39-4.43,2.42-7.14,1.07-2.78-1.38-4.07-3.2-3.83-6.74.16-2.37.73-4.71,1.14-7.05.03-.19.25-.35.57-.76.51,3.77-.41,7.56,1.73,10.89,1-.24,1.32-1.09,1.72-1.83.99-1.83,1.62-3.81,2.23-5.79.31-1,.65-1.97,1.95-2.31.94,3.8-.65,6.86-2.51,9.87-.12.08-.28.14-.36.26-.22.33-.84.63-.42,1.09.38.41.82-.03,1.2-.24.12-.07.21-.21.31-.31,2.49-.56,4.14-2.37,5.57-4.21,1.92-2.48,4.05-4.86,5.3-7.82.19-.44.39-.87.52-1.33.33-1.22.78-2.46.62-3.73-.16-1.26,1.3-1.91.99-3.15,0,0,.04.01.04.01Z"/><path class="cls-1" d="M666.14,104.19c1.8-.23,2.75.86,3.64,2.19.98,1.45.35,2.79-.23,4.04-.5,1.08-1.47,2-2.66,2.28-2.42.56-4.62,1.72-7,2.33-3.11.8-6.9-2.36-6.66-5.56.08-1.04.67-1.74,1.49-2.32,1.61-1.13,3.46-1.65,5.35-1.88,1.66-.21,3.32-.28,4.9-.95.35-.15.78-.1,1.18-.14Z"/><path class="cls-1" d="M619.9,95c-4.5-1.41-8.85-2.41-13.73-2.77,1.41,1.92,3.08,2.99,4.67,4.1,1.88,1.32,3.9,2.45,5.85,3.68.4.25.86.48,1.15.84.45.55.85,1.16.36,1.95-.43.71-1.09.6-1.7.54-1.49-.16-2.62-1.18-3.8-1.92-3.29-2.08-6.57-4.22-9.38-6.98-1.64-1.6-1.74-2.51-.49-4.33.34-.5.7-.76,1.33-.82.97-.1,1.92.01,2.85.19,3.92.75,7.69,1.97,11.31,3.67.75.35,1.4.76,1.57,1.86Z"/><path class="cls-1" d="M669.11,52.23c-.5,1.94-.18,3.74-.19,5.51,0,2.72.04,5.44.08,8.15,0,.67-.05,1.29-.79,1.7-1.11-1.13-.77-2.7-.95-4.02-.5-3.78-.73-7.6-1.02-11.41-.05-.71.05-1.44.19-2.14.34-1.75,1.59-2.32,3.16-1.47.78.42,1.44,1,1.99,1.71,2.32,3.05,4.44,6.22,5.66,9.91.61,1.85.54,3.14-.35,3.19-1.4.08-1.8-1.22-2.2-2.18-.99-2.37-2.21-4.6-3.54-6.78-.48-.78-.92-1.64-2.04-2.17Z"/><path class="cls-1" d="M513.02,68.7c-.8-.05-1.58-.1-2.32-.48-1.37-.71-1.95-1.87-1.57-3.36.9-3.53,5.07-6.43,8.91-6.18,2.23.15,3.42,2.05,2.47,4.09-1.24,2.69-3.68,4.27-6.09,5.8-.35.22-.93.09-1.4.13Z"/><path class="cls-1" d="M231.68,55.47c-1.96.17-3.28-.03-4.59-.34-1.36-.32-2.05-1.35-2.26-2.53-.21-1.22.28-2.38,1.44-3.04,2.54-1.46,5.22-1.82,8.04-.94,1.38.43,2.13,1.35,2.29,2.75.16,1.42-.44,2.38-1.67,3.14-1.22.76-2.46,1.09-3.26.96Z"/><path class="cls-1" d="M95.36,46.49c-1.91-1.21-2.62-3.61-1.41-5.95,1.69-3.24,3.59-6.4,6.43-8.79,1.28-1.08,2.25-2.46,3.62-3.44.71-.51,1.41-1.32,2.25-.39.7.78.34,1.71-.28,2.36-1.64,1.73-3.33,3.41-5.06,5.05-1.85,1.76-3.21,3.91-4.8,5.89-.85,1.06-.91,2.5-.63,3.89.09.45.15.93-.11,1.37Z"/><path class="cls-1" d="M264.98,170.1c-.62-.35-.82-.91-.87-1.59-.36-4.54.43-8.88,2.55-12.91,1.78-3.39,4.26-6.32,6.54-9.37.28-.38.7-.65,1.04-.99.49-.5,1.02-.88,1.63-.27.56.56.39,1.22-.15,1.68-1.66,1.43-2.63,3.37-3.89,5.1-1.81,2.5-3.52,5.04-4.57,8.02-1.14,3.24-1.62,6.54-1.85,9.92,0,0,.05-.08.05-.08-.61-.27-.55.16-.55.53l.07-.03Z"/><path class="cls-1" d="M55.98,179.41c1.27-2.25,2.62-4.2,4.25-5.93.54-.58.96-1.32,1.95-.63.89.61.75,1.29.36,2.08-.14.29-.18.66-.4.86-1.81,1.72-2.99,3.91-4.54,5.82-.99,1.21-2.55,1.34-3.54.14-1.49-1.82-3.34-3.17-5.22-4.5-.13-.09-.27-.17-.39-.27-.41-.34-.6-.82-.36-1.28.2-.38.69-.39,1.07-.27.68.21,1.36.45,2.01.75,1.72.81,3.36,1.74,4.79,3.24Z"/><path class="cls-1" d="M389,112.13c.37-.8.88-1.26,1.49-1.63,4.52-2.68,8.56-6.11,13.29-8.47,1.28-.64,2.56-1.3,3.9-1.79.88-.32,1.9-.52,2.62.45.8,1.07,1.19,2.25.83,3.58-.09.34-.39.49-.73.5-.43.02-.76-.14-1-.52-.4-.63-.17-1.77-1.22-1.86-.81-.07-1.45.59-2.18.9-5.31,2.24-10.03,5.54-15.03,8.33-.54.3-1.02.79-1.98.49Z"/><path class="cls-1" d="M19.74,49.23c-.09-2.02.44-3.34,1.2-4.51,1.88-2.89,1.96-5.72.14-8.69-1.12-1.82-1.87-3.87-3.48-5.38-.22-.21-.32-.54-.49-.81-.36-.55-.29-1.09.11-1.54.47-.53,1.06-.23,1.53,0,.81.38,1.36,1.09,1.86,1.82,1.65,2.38,2.77,5.03,3.57,7.77.64,2.16.54,4.34-1,6.34-1.13,1.48-2,3.16-3.45,5.01Z"/><path class="cls-1" d="M387.06,111.86c-2.68-2.07-4.78-4.54-6.91-6.97-1.12-1.28-2.41-2.27-3.87-3.13-1.13-.66-2.11-1.09-3.24-.11-.4.35-.86.39-1.26-.05-.42-.45-.2-.91.03-1.32.83-1.51,2.73-2.05,4.59-1.32,1.58.62,2.87,1.68,4.07,2.84,2.7,2.63,4.59,5.87,6.64,8.98.17.27.26.58-.04,1.08Z"/><path class="cls-1" d="M75.81,53.26c-2.05-.16-4.14-.05-6.02-1.16-.91-.54-1.74-1.15-2.34-2.02-.47-.7-1.38-1.53-.65-2.3.74-.78,1.43.27,2.01.7,2.44,1.84,5.14,1.9,7.93,1.2,1.19-.3,1.85-.12,2.21.89.34.96-.29,2.21-1.24,2.52-.63.21-1.28-.22-1.91.18Z"/><path class="cls-1" d="M298.97,131.65c-.17-1.39.42-2.55,1.23-3.52.78-.94,2.04-1.1,3.09-.65,1.12.47,1.9,1.46,2,2.78.15,1.91-.77,3.4-2.1,4.61-.88.79-2.87.31-3.63-.73-.55-.75-.71-1.59-.6-2.48Z"/><path class="cls-1" d="M70.56,61.31c2.22.21,4.45-.12,6.58-1.09.54-.25,1.02-.26,1.58.04,1.2.64,1.34,1.33.25,2.09-2.64,1.85-5.56,2.67-8.79,2.08-.38-.07-.77-.23-1.1-.44-.71-.46-1.73-.8-1.47-1.9.3-1.25,1.3-.83,2.15-.69.22.04.47-.05.8-.09Z"/><path class="cls-1" d="M159.84,167.11c0-.42-.02-.66,0-.9.03-.31.04-.65.44-.74.34-.07.61.09.86.29.32.26.49.59.62.98.96,2.86,1.94,5.71,2.94,8.56.22.62.39,1.22.23,1.86-.17.7-.64,1.05-1.38,1.08-.68.02-1.27-.05-1.48-.85-.9-3.45-1.79-6.91-2.23-10.29Z"/><path class="cls-1" d="M639.53,101.28c.05-.78.08-1.57.87-2.08.76-.49,1.38-.61,2.08.16,1.48,1.63,2,3.57,2.03,5.68.01.9-.26,1.8-1.29,2.04-.96.22-1.73-.26-2.19-1.08-.8-1.47-1.53-2.97-1.5-4.72Z"/><path class="cls-1" d="M666.64,91.33c-.03-1.09.18-1.73.95-2.06.77-.32,1.55-.44,2.22.2,1.03,1,1.76,2.16,2.16,3.6.36,1.3-.25,1.94-1.12,2.55-1,.7-1.85.17-2.52-.53-1.08-1.12-1.46-2.58-1.68-3.76Z"/><path class="cls-1" d="M39.24,46.37c-1.7,4.12-4.89,6.13-8.71,7.4-.75.25-1.47.33-1.81-.53-.32-.8.23-1.37.83-1.78.31-.21.73-.28,1.1-.39,2.56-.71,4.85-1.88,6.79-3.72.42-.4.8-1,1.79-.99Z"/><path class="cls-1" d="M32.32,62.12c-1.02-.21-2.08-.27-2.94-.9-.3-.22-.6-.56-.4-1.01.14-.33.45-.46.78-.46,1.95.02,3.78-.45,5.5-1.34.57-.3,1.11-.12,1.62.02.84.23,1.13.71.71,1.62-.41.91-1.1,1.37-1.98,1.56-1.08.24-2.19.34-3.29.51Z"/><path class="cls-1" d="M205.65,179.67c0-2.93-.63-5.64-1.72-8.25-.06-.15-.11-.3-.15-.45-.18-.62-.44-1.39.36-1.63.7-.21,1.55.18,1.69.94.53,2.8,1.11,5.6.65,8.48-.06.39-.18.76-.83.92Z"/><path class="cls-1" d="M432.39,32.01c1.73.4,3.06,1.54,4.1,2.98.39.55.46,1.44-.18,1.99-.63.54-1.35.37-1.95-.16-1.07-.95-2.34-1.72-2.93-3.1-.42-.98.03-1.77.96-1.71Z"/><path class="cls-1" d="M204.51,37.11c-.04,1.18-.85,2.2-1.78,2.31-1.11.13-1.95-.67-2.13-2.06-.05-.39-.05-.79-.03-1.19.04-.93.58-1.45,1.43-1.67.89-.24,1.54.12,2,.88.33.56.57,1.14.52,1.72Z"/><path class="cls-1" d="M237.12,32.2c0,1.12-1.04,2.13-2.14,2.08-1-.05-1.81-1.17-1.77-2.44.04-1.16.83-1.93,1.95-1.91,1.05.02,1.95,1.06,1.95,2.27Z"/><path class="cls-1" d="M524.02,58.75c1.29,1.8.95,3.77.77,5.7-.05.47-.41.85-.82,1.11-.46.3-.94,0-.86-.34.5-2.12.25-4.34.92-6.47Z"/><path class="cls-1" d="M342.52,122.85c1.94-.51,3.33.44,4.71,1.2.7.38.72,1.13.31,1.87-.47.84-1.12.56-1.58.18-1.17-.97-2.69-1.59-3.44-3.25Z"/><path class="cls-1" d="M431.86,40.81c-.03.57-.4,1.04-1.16,1.05-.96.01-2.06-1.44-2.04-2.6.01-.77.38-1.2,1.16-1.2,1,0,2.08,1.38,2.04,2.75Z"/><path class="cls-1" d="M300.94,125.89c-.03.08-.06.46-.27.64-1.01.89-1.85,1.97-3.09,2.57-.24.12-.45.14-.65,0-.34-.25-.22-.56-.02-.82.84-1.06,1.5-2.26,2.53-3.17.31-.27.62-.51,1.05-.24.28.18.47.42.45,1.02Z"/><path class="cls-1" d="M224.68,85.87c-.1.11-.19.24-.31.31-.38.21-.82.65-1.2.24-.42-.46.19-.75.42-1.09.08-.11.24-.17.36-.26-.06.55.2.8.73.79Z"/><path class="cls-1" d="M415.27,79.12c.22-.16.47-.47.72-.29.43.33-.03.59-.19.87-.18-.19-.35-.39-.53-.58Z"/><path class="cls-1" d="M264.9,170.14c0-.37-.06-.8.55-.53-.05.31.14.88-.55.53Z"/><path class="cls-1" d="M319.18,161.76c-2.21,1.51-4.14,2.6-6.04,3.7-2.09,1.21-4.55,1.29-6.91.34-3.19-1.28-6.19-2.93-9.13-4.68-.61-.36-1.17-.83-1.73-1.28-.23-.18-.57-.39-.4-.77.22-.5.62-.39,1-.24,2.65,1.1,5.29,2.22,7.94,3.31,1.75.72,3.38,1.72,5.4,1.77,1.38.03,2.48-.38,3.57-1.1,2.66-1.76,5.04-3.85,7.4-6,2.81-2.57,5.82-4.91,9.37-6.48,3.87-1.71,8.09.13,9.32,4.22.11.38.13.78.23,1.17.55,2.19.53,2.09,2.65,1.4,1.61-.53,3.09-1.22,4.48-2.15.61-.4,1.29-.66,2.03-.63.67.03,1.31.25,1.51.96.21.75.03,1.59-.7,1.86-3.11,1.13-5.82,3.44-9.37,3.25-.75-.04-1.09.33-1.47.94-1.23,1.96-2.59,3.81-4.06,5.61-1.67,2.04-3.79,3.1-6.24,3.68-3.72.88-6.51-.59-7.88-4.21-.53-1.39-1.31-2.75-.95-4.66ZM327.46,167.13c2.57-.57,2.79-.79,4.35-2.15,2.18-1.9,3.12-4.55,4.44-6.97.13-.25.15-.65.05-.91-.42-1.1-.82-2.22-1.51-3.21-.64-.92-1.54-1.21-2.47-1.05-1.15.2-2.36.4-3.36,1.13-1.8,1.3-3.65,2.54-5.41,3.9-3.09,2.38-3.1,2.42-1.44,5.94.65,1.37.95,3.06,2.8,3.66,1.03-1.71,1.63-3.63,2.58-5.36.95-1.72.98-3.91,2.84-5.67-.38,3.94-1.33,7.27-2.85,10.68Z"/><path class="cls-1" d="M279.42,129.73c-.76,0-1.18.13-1.35-.02-1.79-1.54-3.73-2.87-5.01-5.02-1.51-2.54-2.89-5.1-3.73-7.94-.58-1.94-.72-3.92-.43-5.91.6-4.15,4.38-5.13,7.32-3.3.67.42,1.36.82,2.01,1.28.52.36,1.01.77,1.19,1.44.13.5.11.94-.33,1.28-.43.33-.81.35-1.28,0-.96-.71-1.94-1.4-2.96-2.01-1.88-1.11-3.22-.49-3.69,1.61-.71,3.19.28,6.1,1.48,8.96,1.49,3.55,3.63,6.67,6.81,9.63Z"/><path class="cls-1" d="M311.17,94.29c.31,2,1.14,3.67,1.01,5.55-1.37-2.22-2.62-4.52-3.05-7.12-.21-1.26,1.25-2.06,2.51-1.44,2.08,1.02,3.82,2.53,5.57,4.01.54.46,1.04.97,1.55,1.48.64.64.87,1.33.13,2.06-.68.67-1.15.09-1.62-.29-1.35-1.1-2.69-2.2-4.02-3.33-.55-.47-1.08-.92-2.08-.9Z"/></svg>