<?xml version="1.0" encoding="UTF-8"?><svg id="Layer_1" xmlns="http://www.w3.org/2000/svg" viewBox="0 0 384.22 219.05"><defs><style>.cls-1{fill:#1a3831;}</style></defs><path class="cls-1" d="M213.64,201.49c-.3.08-1.87.48-1.93.55-.04.05.33.75.3,1.23-.34,6.79-11.28,7.82-15.87,5.38-.75-.4-2.06-1.96-2.21-1.95-.3,0-4.32,2.58-5.26,3.01-4.9,2.24-9.43,2.63-14.83,2.24-2.47-.18-9.44-3.3-11.56-4.96-19.5-15.25-4.83-42.68,11.89-53.36,1.88-1.2,3.89-2.14,5.83-3.25-2.46-11.57-5.18-23.07-8.08-34.54-2.86-11.34-9.19-23.4-1.47-33.96,14.18-19.39,49.17-22.97,71.1-19.16,18.12,3.15,43.75,14.79,42.44,36.59,1.68-2.91,3.7-4.9,6.49-6.72,3.4-2.22,5.2-2.71,9.48-2.64.46,0,.95.32,1.38.28,1.89-.18,9.64-10.74,9.5-13.5-2.9,3.07-9.71,6.4-13.91.83-2.88-3.82-2.7-12.59-1.24-16.95.21-.63.55-1.19.84-1.78-3.04-.18-7.54,0-10.36-1.07-7.92-3.01-22.07-9.69-22.96-19.46-.66-7.31,4.02-10.2,10.4-11.89,6.53-1.73,13.72-2.05,20.43-2.56-.39-.51-.71-.46-.75-1.3-.12-2.18,2.39-7.79,3.56-9.8.45-.78,3.7-5.13,8.53-6.89,2.33-.85,4.46.03,6.38,1.5.54.42.91,1.34,1.37,1.3.42-.03,4.15-2.58,5.24-3.05,9.04-3.9,19.26-4.18,28.84-2.3,3.63.71,6.99,2.22,10.45,3.45-.13-1.62.37-4.56,1.38-5.84.23-.29,1.88-.97,2.29-.96,1.97.09,1.55,2.35,1.56,3.77,2.36-.29,5.69-1.2,5.78,2.2,1.6-.59,3.18-1.53,4.95-1.38-.29,2.22-3.38,2.88-5.18,3.51-.45.16-.73-.14-.6.62,1.87.24,6.52-1.67,7.99-.96.58.28.79,1.16.28,1.66-1.58,1.53-8.32,1.58-10.47,2.19,8.9,5.81,14.32,15.59,16.99,25.69,3.77,14.26.41,32.45-6.02,45.59-5.12,10.47-20.57,18.34-30.25,8.99.09,1.47-.46,2.86-.84,4.26,3.17.87,6.33.72,6.08,4.98-.22,3.76-4.43,5.89-7.47,7.18-.07,3.4-.92,6.77-1.1,10.15-.52,9.72-.19,21.37.29,31.13.75,15.2,3.01,30.93,7.61,45.23.88,2.74,3.78,9.1,3.69,11.5-.04,1.14-.47,2.24-1.6,1.16-.29-.28-1.05-2.51-1.37-3.16-9.07-18.54-11.03-40.83-11.63-61.63-.23-7.97-.71-16.24-.3-24.23.15-2.88.72-5.81,1.11-8.66-3.02.77-6.21,1-9.09,2.2,1.43,3.31.7,7.06.2,10.52-.29,2.02-2.48,11.23-1.99,12.32.13.28.57.51.74.91,2.07,4.59-4.01,6.53-4.21,2.27-.08-1.59.23-6.44.59-7.92.47-1.95,1.24-4.51,1.6-6.71.51-3.1,1.3-6.37.57-9.47-1.45-1-7.24,5.88-8.09,7.18-.93,1.42-4,7.09-4.19,8.51-.1.76.77,1.15.74,2.33-.11,4.07-6.12,5.15-5.23-.52.34-2.16,1.86-1.77,2.21-2.26s.13-1.33.27-1.83c1.25-4.49,6.95-13.2,11.27-15.49.86-.46,1.84-.55,2.71-.96s1.47-1.21,2.25-1.72c1.26-.83,8.09-2.52,8.87-2.66.49-.08.76-.06.93-.55.12-.37.07-.79.12-1.16.08-.53.14-1.06.2-1.59.23-2.14.34-4.3.7-6.42.21-1.23,1.02-5.37,1.43-6.28.29-.66.97-.85.99-1,.08-.5-1.5-3.15-1.81-3.96-5.75-15.04-.12-39.59,3.95-54.97.26-.98,1.19-4.7,2.1-4.8,1.31-.14,1.03,1.67.95,2.63-.74,9.68-4.58,20.62-5.74,30.61-1.41,12.09-1.35,39.78,18.28,32.6,8.86-3.24,11.72-9.86,14.58-18.19,7.5-21.85,5.61-47.48-15.3-60.96-.51-.33-2.22-1.44-2.66-1.5s-1.55.7-2.31.88c-7.96,1.94-26.2.44-34.17-2.1-2.85-.91-1.64-2.01-4.98-.14-1.25.7-4.52,3.86-5.73,2.31-.56-.72.07-1.47-1.26-2.6-2.61-2.23-5.45-.89-7.78.94-4.52,3.54-5.61,8.48-7.46,13.61h5.23c.37-4.4,2.88-9.07,7.28-10.48,11.83-3.78,18.1,10.3,9.37,17.08-4.34,3.37-11.07,2.01-14.73-1.78-.44-.45-.8-1.51-1.22-1.81-.61-.44-5.99-.31-7.19-.27-4.61.16-9.4.71-13.95,1.47-.92.16-7.12,1.3-7.38,1.57-.42.41.14.48.35.61,1.64,1.05,2.82,1.41,3.9,3.25,3.05,5.2,1.07,11.21-4.53,13.34,7.18,5.75,16.14,9.38,25.48,8.96s21.13-3.71,27.93-10.62c2.32-2.36,3.68-.64,2.36,2.08-2.12,4.37-13.94,8.92-18.6,10.04-3.92.95-8.09,1.29-12.12,1.51.1.36.5.49.53.94.08,1.43-.73,4.14-.82,5.79-.13,2.44.17,7.03,1.28,9.21,1.74,3.41,5.45,3.43,8.46,1.63.87-.52,2.23-2.23,2.88-2.37s1.89.32,1.99.22c.22-.22.83-5.49.84-6.19.04-2.79.2-8.16,2.83-8.29,2.98-.15.04,14.03-1.89,19.14-4.76,12.64-16.93,17.73-25.33,27.27-1.43,1.63-2.99,3.17-2.9,5.38.2,5,1.75,10.08,2.21,15.14.23,2.46.23,5.19.26,7.68,5.4,1.27,3.96,9.01,1.26,12.29-2.03,2.46-4.27,3.26-6.59.53-2.86-3.38-1.92-8.21,1.04-11.17.31-.31,1.14-.56,1.23-.7.36-.6-.08-8.6-.22-9.99-.39-3.93-1.68-7.75-1.65-11.7-4.56,6.15-5.82,15.17-4.92,22.68,2.42,20.21,10.73,41.76,22.29,58.4.23,3.22,4.13,20.74,2.89,22.48-.22.3-1.24.39-1.5.22-.58-.37-1.64-6.56-1.68-6.76-.91-4.04-.92-11.22-2.43-14.87-.52-1.26-2.47-3.47-3.36-4.83-4.58-7.06-8.13-14.78-11.37-22.58-.62-1.49-1.17-3.32-1.58-4.89-.35-.31-3.19,2.25-3.84,2.63-3.29,1.88-6.68,1.99-9.65-.56-.44-.38-1.69-2-1.83-2.05-.36-.11-2.37.85-3.06,1-3.04.69-8.56.2-11.56-.68-1.08-.31-2.03-.85-3.09-1.17.32,1.5.34,3.03.29,4.55-.29,8.27-2,17.32-4.01,25.33-.27,1.07-1.17,2.33-1.24,3.57-.03.57,0,.36.41.42,2.71.37,5.13.06,6.13,3.24,1.13,3.59-1.42,8.6-5.32,9.13-.47.06-.97.03-1.44.03-.76-.01-1.52-.04-2.27-.07-1.03-.04-2.08-.08-3.11-.22s-2.08-.39-3.12-.58c-.31-.06-.62-.11-.94-.17-.66-.12-1.31-.24-1.95-.41-.61-.16-1.22-.34-1.73-.74-.57,1.07-.7,1.89-1.56,2.84-3.54,3.88-10.64,2.99-13.4-1.38-.2-.32-1.15-2.54-1.15-2.71v-3.99ZM310.24,15.69c-4.73.6-8.77,6.74-5.72,10.8,2.27,3.02,7.63,4.06,10.72,1.91,4.2-2.92,3.52-10.24-.98-12.47-1.03-.51-2.86-.38-4.01-.24ZM273.91,42.29c.08-.05.81-1.48.89-1.74.9-2.92-.6-6.97-3.67-7.93-.98-.31-1.97-.19-2.96-.64-.21.25-1.4,1.2-1.1,1.52,2.57.34,1.97,3.24.29,4.56-.36.28-1.12.4-1.13.55-.13,1.25,2.36,5.68,3.5,5.87.33.06,1.42-.92,2.02-.8-.12-.47-.86-.34-1.37-.69-.34-.24-1.16-1.04-1.39-1.36-2.85-4.08,3.34-6.81,3.6-3.03.1,1.54-.2,1.89-1.67,1.92.41.58,2.31,2.15,2.99,1.75ZM256.6,122.73c17.81-5.83,33.83-24.1,17.63-41.45-20.65-22.11-74.53-22.79-96.81-2.89-2.1,1.88-5.5,5.7-6.6,8.27-3.53,8.19,5.07,25.74,12,30.68,1.09.78,9.31,5.29,9.89,4.84-3.12-7.57-3.3-15.96-.55-23.68-5.8,2.35-16.41,5.17-15.38-4.79,1.18-11.4,15.27-17.19,24.73-10.75.41.28.98,1.11,1.3,1.17.2.04,2.2-.84,2.8-.98,6.38-1.47,16.17-1.99,22.76-2.02,4.72-.02,9.8.86,14.34,2.12,2.58-2.34,5.05-5.58,8.81-5.96,7.48-.75,14.08,3.28,11.83,11.56-1.14,4.2-4.37,7.24-8.39,8.68,4.06,7.33,4.98,17.43,1.65,25.2ZM255.5,112c-.17-3.67-.88-9.94-3.19-12.92-1.01-1.31-2.92-1.41-2.6-3.18.26-1.4,4.56-1.11,6.03-1.69,4.29-1.7,7.34-9.39,2.88-12.45-3.15-2.16-7.24-2.07-10.42-.05-1.95,1.24-2.48,2.59-3.8,4.05-1.02,1.13-1.5.3-2.33.15-4.59-.78-9.15-1.67-13.83-1.72-.11.45.09.64.27.97,4.17,7.76,8.89,14.18,15.42,20.1,3.36,3.04,6.97,5.93,11.57,6.74ZM215.02,85.01c-.38-.34-9.14.79-10.19,1.24-.57.24-1.05.95-1.51.96-.93.03-2.68-2.29-3.69-2.93-6.94-4.4-16.97.05-19.52,7.54-.47,1.37-1.26,4.61.06,5.59,1.85,1.37,7.88-.2,9.98-1.06,1.81-.74,4.1-3.12,5.3-3.51.7-.23,1.65-.21,1.9.63.31,1.07-2.53,6.77-3.06,8.4-1.57,4.87-1.65,9.23-.75,14.25,2.79-.8,5.11-3.39,7.02-5.5,2.69-2.96,5.83-7.06,8.07-10.38,3.16-4.71,5.3-9.63,6.38-15.23ZM226.86,84.46c-.33-.35-8.4.25-9.64.28-.9,9.16-6.43,16.95-12.13,23.81-2.57,3.09-6.13,7.36-9.83,8.9-.46.19-.95.31-1.44.35-.21.24,1.19,5.23,1.65,5.62.56.48,5.4,1.77,6.48,2.05,12.72,3.34,26.59,3.79,39.55,1.59,1.79-.3,10.44-2.07,11.36-2.96,1.01-.97,3.43-9.37,2.62-10.18-5.19.5-9.86-3.47-13.5-6.74-6.49-5.84-12.07-13.02-15.01-21.34-.15-.42-.08-1.33-.13-1.38ZM299.28,92.17c-6.34.89-13.26,5.56-13.77,12.39,4.16-4.61,9.1-8.32,13.77-12.39ZM347.93,102.81c2.39-2.8-.32-3.68-2.93-3.48l-.55,5.78c.12.17,3.23-2,3.48-2.3ZM275.02,138.13c.23-.27-.49-4.3-.52-5.07-.27-6.28,1.66-14.53,4.81-19.97,1.52-2.62,3.78-4.25,3.17-7.7l-2.97,4.88c-2.81,3.39-4.23,7.7-6.35,11.55-4.17,7.56-8.69,14.94-13.26,22.26-.09.61.09.33.41.4,2.89.69,5.4.96,7.96,2.74.54-.13,3.15-7.48,5.14-8.63.45-.26,1.55-.4,1.6-.46ZM256.81,144.42c.37-.35,2.73-5.41,3.32-6.45,3.2-5.57,6.76-11.01,9.73-16.7.38-.73.86-1.54.92-2.38-16.52,11.15-38,13.91-57.52,11.52-10.72-1.31-23.77-5.22-32.71-11.35-2.44-1.68-3.73-3.61-5.74-5.68,3.17,12.33,5.98,24.74,8.31,37.26,5.5,4.16,11.84,7.18,18.33,9.48,9.61,3.42,20.03,4.4,30.22,3.65,4.91-.36,9.94-1.06,14.46-3.03-3.61-6.29,2.29-13.23,7.99-15.55.67-.27,2.28-.38,2.68-.76ZM286.27,137.93c-2.05.37-5.15,5.77-2.11,7.51,4.45,2.55,7.34-8.45,2.11-7.51ZM275.05,164.04c.66.71,4.79-4.04,4.89-4.57.09-.47-2.24-7.83-2.56-9.19-.76-3.26-1.26-6.61-1.79-9.92l-4.96,8.4c2.21,3.16,5.91,6.19,5.48,10.43-.08.75-1.24,4.66-1.07,4.85ZM181.23,153.21c-.25-.17-.27-1-.99-.7-11.82,7.15-22.08,18.08-24.43,32.18,3.84-1.43,7.71-.8,11.62-1.73,2.1-.5,6.31-1.96,7.65-3.64,3.14-3.92-2.73-8.66-.12-11.68,2.39-2.77,8.88-1.2,5.87-8.11-.46-1.06-3.85-4.72-2.41-5.64,1.57-1,4.37,3.34,4.88,4.54,1.7,4,1.27,7.49-2.8,9.51-.7.35-3.26.94-3.46,1.5-.75,2.15,2.73,6.04.9,9.99-1.46,3.14-6.1,5.03-9.29,5.85-4.33,1.11-8.55.38-12.81,1.65-1.58,19.69,23.52,29.26,37.54,16.75.31-.28,1.94-2.01,1.8-2.19-.73-.91-2.13.88-3.4.56-.37-.09-.29-.72-.44-.95-.47-.72-.63.3-.84.52-1.72,1.81-5.6,4.07-8.13,4.27-1.17.09-3.42.06-3.42-1.51.01-2.81,5.41-.86,6.83-3.61,2.14-4.15-3.53-7.47-6.99-7.81-3.14-.31-11.68,1.25-7.25-4.79,3.52-4.8,8.51-5.31,14.13-4.85,9.02.74,17.58,9.69,12.48,18.8-.31.55-2.37,3.04-2.29,3.22,1.19,1.1,3.1,1.55,4.68,1.66.64.05,4.29-.04,4.55-.29.16-.15-.29-1.12-.33-1.29-.08-.31,0-.57.33-.67.14-.04.3-.04.45-.04.18,0,.37,0,.53.08.62.27.08,1.4,1.08,1.09.76-.24-.35-1.14-.42-1.55-.18-1.02,1.97-.31,1.66-1.06-.96-2.32-4.79-.64-4.98-2.75-.09-.94,1.32-4.21,1.66-5.53,1.16-4.5,2.73-14.18.69-18.28-.82-1.65-3.48-4.72-4.99-5.75-.89-.61-4.47-1.87-2.56-3.48s5.79,2.04,7.01,3.43c2.51,2.84,4.01,5.36,4.28,9.22.46,6.55-1.28,12.81-2.47,19.13.83-.09,2.6.74,3.14.74.66,0,2.45-1.04,3.44-.73.08-1.31-.1-2.68,0-3.99.38-4.7,1.33-10.99,2.29-15.61.22-1.04.89-5.08,1.98-5.2,1.15-.12,1.01.94.96,1.8-.32,5.2-1.82,11.01-2.2,16.26-.21,2.92-.39,9.9.06,12.6.31,1.83,2.3,3.39,4.06,3.51-.55-3.38,2.54-2.59,2.48.28,1.8-.34.82-.32.61-1.3-.2-.91-.04-1.64,1.05-1.34.36.1,2.07,1.84,1.6.07-.44-1.65-3.76-1.31-4.72-2.1-1.19-.99.59-6.03.87-7.62.8-4.65,1.12-9.31,1.72-13.97.19-1.5.73-6.52,1.28-7.53.88-1.61,2.82-.77,2.84.9l-2.22,18.31c.19.25,3.42-2.95,3.72-3.3,2.55-2.95,7.42-10.7,7.83-14.49.15-1.4-.65-2.09-.53-3.41-4.42.54-5.42-2.53-4.96-6.33-10.32.82-20.9.08-30.71-3.3-7.3-2.52-14.03-6-20.43-10.28ZM271.19,158.26c-.14-.15-.97.02-1.07.44-.29,1.73-1.89,2.98-1.68,4.79.41-.01.95.14,1.24-.27.11-.15,1.31-3.26,1.39-3.57s.24-1.27.12-1.39ZM273.95,159.36c-.27-.28-.81.12-1.06.45-.33.43-1.94,4.24-1.69,4.51.27.28.81-.11,1.06-.45.41-.54,2.11-4.06,1.69-4.5ZM240.16,174.43c1.24,1.53,3.55.8,4.46-.75l.92-8.46-.37-.62c-1.26,1.16-10.17,1.75-10.47,2.18-.36.51-.11,2.76.31,3.31.83,1.09,2.06.21,2.99.29,2.29.2,1.36,3.06,2.17,4.05ZM237.74,206.18c1.69.16,3.76,0,5.51,0,.04,0,.72-.33.69-.41-.83-.84-1.3-1.67-1.1-2.89.61-.39,2.22.8,2.48.55s-.94-1.22-.14-1.93c.8-.71,1.99.52,1.8-.41-.47-2.37-5.36-1.2-7.03-1.51-.51-.1-.85-.52-.92-1.03-.05-.34,1.86-5.54,2.13-6.57,1.24-4.67,2.32-9.68,3.05-14.43-1.06.72-2.74-.12-3.41-.02-.3.04-1.48,3.94-1.77,4.62-1.64,3.74-3.92,7.17-6.39,10.41-.51.66-1.71,1.45-1.99,2.14-.2.48-.46,2.25-.48,2.83-.04,1.09.6,6.33,1.17,6.95.45.49,5.49,1.64,6.4,1.72ZM196.29,199.57c.27-.23.36-3.93.29-4.55-.52-4.23-6.71-8.18-10.64-8.64-3.83-.45-9.42-.19-11.67,3.42,3.76-.57,9.6.58,12.4,3.29.86.83,1.46,2.58,2.06,3.17.95.91,1.97.47,1.23,2.76.96-.59,1.25-1.67,2.61-1.39.72.15.58.71.72.81.07.05.68-.33,1.15-.21.54.14,1.14,1.94,1.84,1.35ZM227.68,202.87l-.41-6.05c-2.42.53-1.9,3.04-2.36,5.08l2.76.98Z"/><path class="cls-1" d="M197.85,18.76c.09.09.17.18.24.29.29.48.37,1.07.51,1.6.23.81.39,1.64.5,2.47.21,1.66.21,3.34.14,5.01-.14,3.7-.61,7.38-1.23,11.03-.63,3.7-1.42,7.39-2.47,11-.71,2.45-1.5,4.99-2.78,7.22-2.13,3.72-5.16,7.35-9.83,4.78l-1.78-2.76c-1.3,4.48-6.74,7.75-10.65,4.03-.65-.61-1.02-1.65-1.46-2.21-.61-.8-.79.89-1.07,1.39-1.53,2.7-3.77,4.16-7,3.6-1.4-.24-1.77-1.14-2.96-1.58.06,2.59-1.89,3.41-4.21,2.96-.56-.11-1.52-.8-1.71-.76-.48.1-2.59,6.1-2.88,7.05-2.23,7.39-3.81,16.36-5.17,24.02-2.13,11.93-2.3,19.81-1.74,31.87.3,6.45.06,10.44-.28,16.78-.72,13.43-.09,26.29.3,39.65.12,3.99.13,8,.26,11.99,3.33-.3,7.91,2.98,8,6.48.06,2.44-1.46,3.88-3.8,4.18-1,.13-2.52-.3-2.91-.18-.47.15-.69,1.26-1.3,1.75-2.41,1.94-5.73.44-7.97-.95-.48,1.89-3.01,3.21-4.83,3.31-1.24.07-6.26-2.18-6.21-4.82.02-1.2.79-2.4.83-3.33.22-5.03.04-10.33,0-15.39-.03-4.47.18-8.94-.4-13.37-1.57,2.95-3.18,5.91-5.15,8.63-.74,1.03-2.45,3.39-3.25,4.18-.48.48-.95.47-1.39.87l.55,12.58c6.04,1.79,4.26,9.83-1.78,9.27-.7-.06-1.66-.64-2.15-.52-.32.08-.98.92-1.55,1.22-1.14.6-2.72.82-3.93.37-.29-.11-.71-1.08-1.46-1.08-.38,0-1.65,1.24-2.33,1.51-1.72.7-3.6.37-4.75-1.14-1.21-1.58-.64-5.05-.78-5.36-.53.12-2.92.5-3.32.45-.66-.07-.78.08-.84.67-.05.55-.1,1.15-.37,1.64-.89,1.62-2.91,2.16-4.64,1.92-.77-.11-1.77-.8-2.23-.8-.55.01-.92.78-1.41,1.06-1.4.79-2.5.59-3.95.04.7,4.04-2.61,5.92-6.01,6.8-9.61,2.49-25.43-.88-33.84-5.65-3.88-2.2-9.24-5.73-12.2-9-1.25-1.38-2.84-3.14-3.15-5.04-.42-2.57-.29-5.29-.44-7.9-1.91-33,12.91-65.13,35.1-88.53.63-.67,4.06-3.52,3.98-3.95-2.41-2.79-7.31-9.27-7.52-9.57-.56-.78-3.19-5.46-3.47-5.64-.42-.27-1.42.31-1.83.44-.81.26-1.45.27-2.27.13.19.78.89,1.52,1.25,2.26,1.32,2.76-.5,5.54-2.98,6.84-2.44,1.27-5.34,1.71-8.06,1.8-2.51.08-4.3-.45-6.35-1.87-4.21,3.96-9.01,7.67-13.82,10.9-1.04.7-5.35,3.9-6.37,3.32-.23-.13-.67-1.34-.61-1.73.07-.53.85-1.18,1.26-1.53,2.47-2.1,6.27-4.14,9.03-6.12,2.21-1.58,7.49-6.24,9.49-7.04,3.03-1.21,3.34.8,5.5,1.24,2.53.52,12.15.09,10.7-4.43-.4-1.25-1.82-3.29-3.31-3.23-.83.03-2.65,1.21-3.14-.17-.49-1.4.89-1.98,1.68-2.8,1.67-1.74,2.32-5.3.98-7.39-.46-.71-1.18-1.38-2.03-.96-.54.26-.81.92-1.41,1.1-3.1.94-1.03-3.16-1.24-4.69-.48-3.41-2.98-4.08-5.84-2.72-2.25,1.07-4.05,2.96-5.09,5.22-.51,1.11-.88,2.34-.96,3.57-.1,1.51,0,3.03-.57,4.47-.55,1.38-3.02,2.44-4.18,3.17-3.13,1.97-6.36,3.78-9.58,5.6-1.65.93-3.29,1.86-4.93,2.8-1.53.88-3.2,2.3-4.86,2.9-1,.36-2.47-.39-2.1-1.54.45-1.39,2.75-2.55,3.9-3.27,2.7-1.7,5.56-3.12,8.39-4.61,3.34-1.76,6.46-4.07,9.92-5.56.51-.22,1.21-.59,1.59-.98.54-.56.33-1.24.26-1.92-.38-3.37.64-5.65,2.44-8.41,1.55-2.38,4.61-4.11,7.37-4.66,1.37-.27,2.9-.27,4.13.48.61.37,1.1.91,1.46,1.53.14.25,1.09,2.39,1.2,2.35.61-1.66,1.69-3.08,2.96-4.29.65-.62,1.34-1.18,2.06-1.72.35-.26.7-.51,1.06-.76s.68-.55,1.14-.59c.52-.04,1.07.25,1.5.51.83.5,1.15,1.33.86,2.26-.36,1.14-1.27,1.93-1.73,2.99-.04.1-.11.2-.09.31.15.87,5.01,5.93,5.01,5.93,2.38-1.74,6.47-4.75,9.15-1.91.96,1.01,1.17,2.22.74,3.52-.24.73-1.32,1.56-1.04,2.26l11.02,12.95c.94-1.1,2.11-1.93,3.18-2.88,7.17-6.34,13.03-13.87,18.18-22.03,6.97-11.07,11.25-24.12,16.51-35.86,2.84-6.34,5.79-11.9,12.21-15.28,6.32-3.33,11.14-2.9,15.87,2.67.63.74.98,1.9,1.67,2.46,2.06,1.67,8.93,1.41,11.69,1.53,7.5.32,14.79.23,22.31-.28,4.39-.3,8.73-1.05,13.11-1.4,1.78-.14,3.56-.34,5.35-.25,1.13.06,2.3.18,3.37.61.37.15.78.33,1.07.62ZM61.08,195.71h3.99c.47,0,3.02,1.06,3.59,1.37,2.87,1.55,5.46,4.59,4.75,8.07-.08.4-.82,1.5-.76,1.57.08.1,2.06.74,2.36.81.76.19.08-.99.09-1.5.03-1.08.6-1.87,1.77-1.48.73.25,1.25,3.32,3.21,4.23.72.34,2.18.74,2.2-.54,0-.58-1.62-3.51.69-3.61,1.81-.08,1.77,3.23,4.21,3.69.82.16,2.19-.14,2.01-1.18-.04-.23-3.27-1.87-2.57-3.64.67-1.68,2.7-.82,3.65.19-.15-1.05-1.06-2.45-2.12-2.7-.88-.2-2.66.24-2.85-1.03-.12-.79,1.58-5.3,1.86-6.68,2.81-13.97,1.75-34.9-10.52-44.39-1.22-.95-5.18-2.13-5.04-3.67.31-3.4,6.25.45,7.51,1.48,12.91,10.57,13.93,32.6,10.81,47.7-.13.63-1.2,3.53-1.02,3.78.05.07,1.07.25,1.51.56,1.76,1.25,3.13,3.87,2.89,6.06,2.61-.82,5.29-.25,5.25-3.73-.21-18.38.71-31.55.61-33.81-.05-1.15-.38-4.29,1.48-3.7.67.21.92,2.18,1,2.87.79,6.55-.6,18.4-.91,31.63-.03,1.26.17,2.96-.02,4.11-.33,1.98-4.08,6.15-1.91,8.27,2.03,1.98,3.57-2.69,4.24-3.18,2.49-1.83,2.14,3.17,4.36,2.73,2.13-.42,1.15-3.65,2.83-3.82,1.57-.16,1.37,1.28,1.93,1.93,1.35,1.58,4.38-.51,3.41-2.02-.73-1.12-3.07-1.05-3.19-2.83-.03-.48.26-1.01.2-1.6-1.47-14.6-1.94-27.75-2.13-33.83-.05-1.49-.58-4.77,1.52-4.56,1.91.19,1.14,6.08,1.24,7.59.55,8.62.15,9.6.75,15.78l3.86-5.09c1.8-3.5,5.06-7.68,6.25-11.37.37-1.14.39-6.05,1.35-6.37,1.26-.43,1.42,1.1,1.49,2.03.33,4.09-.13,8.78-.02,12.96.22,8.62,1.07,18.08.29,26.7-.16,1.76-1.63,2.99.85,4.1,1.68.75,3.44.23,4.24-1.48.62-1.31.33-3.84,1.99-4.09s1.52,1.48,1.94,2.36c.63,1.29,3.82,3.04,4.61,1.45.45-.9-1.12-3.19.94-3.74,1.49-.39,3.38,3.23,5.76,1.5.52-2.06-1.96-3.63-3.67-4.11-1.42-.39-2.99.18-3.36-1.54-1.19-16.34-2.13-32.85-1.49-49.26.24-6.18,1.04-12.22.85-18.45-.13-4.39-.93-8.82-1.11-13.21-.48-11.71,3.18-27.95,5.91-39.52.72-3.03,2.74-11.22,4.43-13.47.34-.45,1.24-.92,1.24-.99.05-.71-3.42-5.1-.93-5.86,3.25-.99,2.57,4.59,5.31,4.91-.39-2.32-1-6.84,2.6-6.32,2.6.38,2.73,4.81,4.49,5.17,3.61.73,3.55-5.88,5.93-6.9,3.39-1.45,3.79,5.13,6.14,5.57,4.44.84,4.92-8.23,6.65-8.76.42-.13,1.43-.15,1.83,0,2.07.72,1.1,11.41,6.38,4.91,4.07-5.01,6.59-20.01,7.26-26.61.1-.95,0-1.91.03-2.86-.68.09-1.07.59-1.78.84-6.39,2.24-10.68-.69-10.62-7.45-9.75.93-19.53,1.58-29.34,1.39l-11.42-.83c3.91,9.38,4.88,22.06-1.54,30.54-2.64,3.49-8.01,8.96-12.36,4.99-1.31,3.04-4.35,5.79-7.9,5.44-1.84-.18-2.25-1.3-3.65-2.14-1.67,2.67-6.56,5.93-9.61,4.09-1.73-1.05-1.89-4.13.22-3.82.8.12,1.2,1.36,2.17,1.32,2.55-.12,5.49-3.72,5.63-6.2.06-1.12-.9-3.38.62-4.06,2.98-1.34,2.52,4.45,3.37,6.26,1.91,4.1,6.27-.47,6.75-3.58.24-1.56-.58-4.93,2.12-4.48,1.82.31,1.34,5.99,3.8,5.74,3.36-.34,7.67-6.14,8.88-9.05,3.5-8.39,1.02-27.1-7.21-32.16-2.91-1.79-3.92-1.64-7.04-.54-6.43,2.28-9.87,7.3-12.65,13.24-7.7,16.45-11.47,30.27-22.58,45.43-4.83,6.59-10.7,12.24-16.73,17.71,1.66,2.62,6.02,5.8,4.07,9.29-.42.76-2.79,2.42-2.71,2.77.91,1.14,5.47,5.16,5.48,6.35s-1.06,1.56-2.06.98c-1.41-.82-4.68-5.8-5.55-6.03-1.21-.33-2.74,1.87-5.24.85-1.17-.47-4.28-4.74-4.61-4.74-7.28,6.74-13.76,14.63-19.14,22.98-13.62,21.1-20.25,44.11-18.72,69.4.11,1.77-.11,5.18.71,6.72.3.56,3.3,3.45,3.97,4.02,9.84,8.4,25.97,14.15,38.94,12.22,2.34-.35,8.61-1.89,4.56-4.77-1.56-1.11-4.83-1.73-6.76-2.05-1.3-.22-4.09.43-3.96-1.8.16-2.59,6.84-.82,6.21-3.74-.65-3.02-5.56-4.73-8.29-4.7-1.75.02-5.22,1.92-5.81-.25-.55-2.04,2.97-2.86,1.88-5.71-1.6-4.17-8.12-2.71-11.05-.74-1.19.8-2.62,2.88-3.4,3.21-2.44,1.01-2.84-.91-1.65-2.75,4.81-7.46,20.89-8.34,19.07,3.23ZM195.47,21.67c1.11-.98-3.42-.85-3.73-.84-.77.03-5.43.37-5.61.58,0,1.58.98,6.61,3,3.97-2.4-1.66,1.04-5.14,2.91-2.36,1.03,1.53.12,2.87-1.26,3.74.79.64,4.12-.96,4.13-1.65,0-.15-.9-.69-1.04-1.16-.4-1.32.1-2.49,1.59-2.29ZM46.31,68.51c-.44.1-2.29,1.89-2.29,2.04,0,.13,1.23,1.43,1.5,2.06.62,1.4.81,2.96.62,4.47-.11.85-1.44,4.14-1.3,4.33.04.06,1.12.31,1.37.56-.15-3.56,2.63-6.1,4.95-8.41,0,0-4.21-4.96-4.85-5.07ZM48.97,80.88c.75.75,11.49-6.34,12.01-7.98.36-1.13-.99-1.69-1.93-1.64-1.4.06-6.34,4.07-7.43,5.24-.48.52-3.11,3.9-2.64,4.38ZM65.11,96.4c.78.96,4.51,6.05,5.24,6.19,1.31-.52,6.23-2.7,6.44-3.96.06-.35.02-.68-.07-1.02-.39-1.48-5.54-6.81-6.81-8.34-2.8-3.35-6.22-8.25-9.22-11.15-.23-.22-.4-.54-.79-.5-.34.03-5.46,3.43-5.69,3.68-.25.28-.36.34-.25.77.21.76,3.24,3.95,3.94,4.89,2.35,3.14,4.68,6.34,7.21,9.45Z"/><path class="cls-1" d="M324.03,132.41c.19.12.6,1.91.61,2.3.06,2.33-1.6,7.23-3.6,8.53,2.85,2.37,6.33,6.03,6.59,9.96.11,1.67-.61,3.74.02,5.6,2.74-1.15,4.47-3.71,5.64-6.34.47-1.05,1.61-5.18,2.07-5.64.92-.9,2.2-.29,2.43.89.13.65-.68,3.72-.99,4.41-.25.57-1.19,2.18-1.57,2.84-2.94,5.13-7.01,8.12-13.2,7.39-1.91-.22-3.59-3.1-5.01-3.27-1.2-.14-3.57.51-4.92.56-4.55.17-9.87-.38-12.96-4.14-1.83-2.23-2.46-6.59-1.17-9.17.4-.79,1.52-1.16,2-1.57,6.26-5.28,13.07-6.62,20.24-1.93-.26-3.53,2.37-6.44,2.25-10.01.11-.52,1.26-.62,1.58-.41ZM323.41,154.71c-.41.12-1.84,3.82-2.53,4.36-.27.93.59,1.1,1.27.44.56-.53,3.37-5.44,1.26-4.8ZM325.99,156.61c-.67-.7-2.84,2.65-2.2,3.3.74.76,2.82-2.66,2.2-3.3Z"/><path class="cls-1" d="M341.6,15.43c10.13,9.33-8.88,26.91-17.81,15.46-8.32-10.66,8.95-23.62,17.81-15.46ZM334.2,15.4c-6.02.32-12.71,7.91-8.08,13.71,6.21,7.78,19.21-3.47,14.19-10.61-1.02-1.45-4.35-3.2-6.11-3.1Z"/><path class="cls-1" d="M307.27,113.65c-.61-1,1.1-2.2,1.1-2.34,0-.08-.84-.84-1.05-1.15-.95-1.39-2.05-3.12-2.85-4.59-.84-1.54-3.44-6.33-3.87-7.7-.38-1.23-.05-2.67,1.43-1.99,1.55.72,3.96,6.62,4.92,8.31,1.18,2.08,2.73,3.97,3.76,6.14,4.83-2.87,10.11-4.79,15.2-7.11,2.49-1.13,10.56-5.61,12.62-5.58.93.01,1.78.42,1.47,1.49-.18.62-1.72,1.22-2.34,1.53-6.02,3.05-12.56,5.53-18.74,8.25-1.54.68-10.77,5.64-11.65,4.73Z"/><path class="cls-1" d="M30.17,77.92c7.51-1.26,7.7,10.62-.6,9.28-5.01-.81-4.39-8.44.6-9.28Z"/><path class="cls-1" d="M32.65,68.26c4.95-.6,3.23,7.44-.77,6.16-2.66-.85-1.92-5.83.77-6.16Z"/><path class="cls-1" d="M38.98,84.79c2.5-.23,4.79,3.81,2.14,5.46-4.41,2.75-6.65-5.04-2.14-5.46Z"/><path class="cls-1" d="M38.44,75.15c3.19-.34,3.94,4.73.69,5.4-4.12.84-4.48-4.99-.69-5.4Z"/><path class="cls-1" d="M228.24,119.71c.94,2.97,7.52.73,8.4,2.2.7,1.16-.39,1.93-1.41,2.18-3.01.76-6.55.16-8.92-1.9-.36,1.64-6.64,5.01-6.64,2.06,0-1.75,6.01-2.86,4.98-4.26-.11-.15-2.75-.94-3.49-1.33-2.43-1.29-4.95-3.23-5.03-6.27-.1-4.17,7.76-5.81,10.9-5.79,9.65.06,8.39,10.41,1.19,13.12ZM227.96,113.92c-.15.92.66,1.47,1.48,1.63,2.63-3,1.84-6.07-2.45-6.06-1.06,0-6.81,1.36-7.32,2.06-.57.79-.15,2.55.71,2.91.57.23.43-1.12.82-1.65,2.04-2.71,5.86,1.73,3.17,4.13.52.29,3.34.54,3.3-.13,0-.13-1.29-1.01-1.66-1.91-.62-1.5-.85-3.92,1.32-4.24,2.37-.35,3.31,4.24.63,3.26Z"/><path class="cls-1" d="M212.05,102.42c.39-.39,1.73-.41,2.28-.35,3.7.39,1.54,5.94-1.52,4.55-1.17-.53-1.54-3.42-.76-4.2Z"/><path class="cls-1" d="M229.15,100.79c1.96-2.32,5.8,1.59,3.09,3.78-2.35,1.9-4.95-1.58-3.09-3.78Z"/><path class="cls-1" d="M310.76,21.17c4.1-1.43,2.71,6.9-.6,4.36-1.31-1.01-.53-3.97.6-4.36Z"/><path class="cls-1" d="M308.92,18.37c-.36-2.19,3.85-3.41,4.37-1.47.32,1.21-3.47,1.37-4.37,1.47Z"/><path class="cls-1" d="M286.52,139.29c2.59-.89,1.09,5.62-1.35,5.16-1.67-.31-1.11-2.52-.33-3.53.12-.15,1.57-1.59,1.68-1.63Z"/><path class="cls-1" d="M153,26.14c.69.71.36,3.85,2.69,3.81s1.63-5.02,4.26-3.74c1.89.92.22,4.13-.82,5.24-3.26,3.46-8.28,1.08-8.54-3.32-.1-1.62,1.17-3.28,2.42-1.99Z"/><path class="cls-1" d="M61.55,84.24c.58-.13,1.18-.12,1.75.07,1.33.43,4.87,5.74,6.05,7.17,1.68,2.04,3.57,3.98,5.36,5.93.82,1.77-2.65,4.78-4.42,3.59-2.52-2.74-4.63-5.83-7.01-8.68-1.21-1.45-4.92-4.15-3.98-6.2.2-.44,1.74-1.76,2.26-1.88Z"/><path class="cls-1" d="M330.87,27.92c-1.82,1.64-3.83-.31-2.72-2.86,1.68-3.85,5.55.3,2.72,2.86Z"/><path class="cls-1" d="M330.19,19.4c-.46-.42-.1-1.3.33-1.61,1.86-1.31,6.21,1.4,4.43,3.05-1.02.94-1.8-.64-2.63-.95-.64-.24-1.68-.08-2.13-.49Z"/></svg>