<?xml version="1.0" encoding="UTF-8"?><svg id="Layer_1" xmlns="http://www.w3.org/2000/svg" viewBox="0 0 777 187.97"><defs><style>.cls-1{fill:#053228;}</style></defs><path class="cls-1" d="M539.97,83.23c-.84-1.8-1.61-3.46-2.39-5.11-.17-.37-.4-.79-.01-1.08.54-.4.89.07,1.14.46,1.21,1.92,3.56,3.06,3.88,5.61.04.35.42.42.75.45,2.44.2,4.73.7,6.21,2.96.32.49.78.3,1.28.16,3.54-1,6.93-.19,10.28.94.99.33,2.09.83,2.57,1.66.81,1.41,2.1,1.74,3.39,2.33,3.22,1.48,6.12,3.46,8.07,6.5,1.15,1.78,1.31,1.85,2.87,2.99,3.51,2.57,6.55,5.59,7.44,10.11.18.94.66,1.34,1.48,1.61,2.4.82,4.59,2.18,5.75,4.39,1.24,2.36,3.02,4.39,3.93,6.93.41,1.14.06,2.43.92,3.52,1.9-2.15,3.04-4.79,4.64-7.12.58-.85.2-1.31-.31-1.84-1.45-1.52-2.68-3.28-3.37-5.18-1.02-2.82-1.25-5.78-.68-8.87,1.08-5.83,3.59-10.81,7.63-15.09,4.64-4.91,9.41-9.64,14.85-13.71,2.76-2.07,5.41-4.4,7.72-7.05,4.13-4.74,8.62-9.17,13.14-13.53,3.14-3.04,6.81-5.47,10.88-7.24,2.55-1.11,4.96-2.49,7.63-3.36,2.84-.92,5.61-1.14,8.34.28.94.49,1.73.43,2.64-.21,1.89-1.33,3.85-2.56,5.99-3.47.82-.35,1.26-.89,1.32-1.8.21-2.92,1.57-5.49,3.45-7.49,3.5-3.73,7.85-5.7,13.12-4.13,3.3.98,6.46,2.29,9.01,4.74.34.33.94.72.92,1.04-.15,1.88,1.29,1.77,2.35,1.83,3.82.25,7.26,1.72,10.74,3.11,3.11,1.25,6.13,2.65,8.81,4.71,3.09,2.39,6.09,4.83,7.98,8.38.6,1.12,1.6,2.06,2.03,3.23,1.1,2.95,3.23,3.33,6.05,3.26,4.77-.11,9.55,0,14.34.22,3.83.18,7.62.44,11.34,1.26,2.89.64,5.56,1.91,7.34,4.51,1.6,2.32,1.99,4.84,1.14,7.49-.97,3.01-1.9,6.05-3.16,8.95-1.55,3.55-4.14,6.32-7.27,8.62-4.96,3.63-10.39,6.21-16.36,7.62-6.95,1.65-13.97,2.06-21.09,1.35-3.24-.32-6.54.03-9.79-.54-.92-.16-1.52.19-1.67,1.22-.09.62-.43,1.21-.55,1.83-.57,2.98.22,4.57,2.26,5.68,6.01,3.25,11.87,6.8,18.37,9.05.96.33,1.68.92,2.35,1.58,1.33,1.29,1.14,3.3-.44,4.29-1.28.8-2.71,1.46-4.23,1.53-3.74.17-7.39,1.12-11.15,1.19-3.19.06-6.36-.25-9.55-.26-.97,0-1.31.22-1.41,1.08-.03.24-.18.46-.18.69.06,6.82-2.49,13.08-4.22,19.51-1.3,4.84-2.73,9.65-4.21,14.43-1.71,5.52-2.69,11.36-5.8,16.39-2.23,3.61-3.91,7.48-5.5,11.39-.16.4-.29.8-.77.71-.51-.09-.53-.61-.44-.97.41-1.61.75-3.26,1.36-4.79,1.28-3.25,2.83-6.39,4.36-9.53,1.4-2.87,2.02-6.02,2.77-9.18-1.33-.34-2.42-.36-3.64,0-4.19,1.23-8.22.64-11.75-1.92-2.67-1.93-4.34-4.64-4.5-8.05-.07-1.43-.06-2.88.12-4.3.36-2.84.87-5.66,1.31-8.49.55-3.54,2.3-6.27,4.99-8.69,3.07-2.76,6.58-4.42,10.46-5.45,3.71-.98,7.27-.62,10.55,1.54.52.34,1.06.64,1.86,1.11.17-2.12.34-4.06.48-6.01.16-2.11.33-2.21,2.47-2.07,3.57.23,7.15.41,10.73.55,3.31.13,6.46-.87,9.69-1.37,1.56-.24,3.11-.32,4.47-1.43-1.1-1.03-2.37-1.49-3.56-2.01-5.19-2.28-9.79-5.66-14.97-7.94-1.85-.81-1.87-.93-3.11.57-2.43,2.92-5.24,5.43-8.66,7.05-4.82,2.28-9.83,3.98-15.12,4.95-4.82.88-9.65,1.1-14.45.5-4.65-.58-8.9-2.39-12.34-5.77-1.49-1.46-2.3-3.26-2.61-5.24-.25-1.59.11-3.03,1.21-4.44,2.63-3.38,6.24-4.85,10.2-5.67,1.54-.32,2.98-.98,4.63-1.02,5.97-.15,11.88.27,17.83.89,5.53.58,11.15.32,16.53-1.6.84-.3,1.28-.52,1.46-1.52.33-1.82,1.34-2.52,3.2-2.51,1.35,0,2.71.09,4.06.17,4.52.26,9.04.02,13.55.12,6.04.14,11.88-.82,17.58-2.64,3.41-1.09,6.61-2.68,9.52-4.83,1.98-1.46,4.11-2.73,5.53-4.82.26-.39.5-.79.8-1.27-4.16-2.47-7.12-6.14-10.39-9.49-1.3-1.33-2.21-2.94-3.12-4.51-1.29-2.24-1.3-4.54,1.28-6.69-1.87-.14-3.25-.29-4.64-.34-3.82-.14-7.64-.45-11.47-.36-2.94.06-4.91-1.5-6.39-3.89-.84-1.36-1.78-2.65-2.6-4.02-1.39-2.3-3.56-3.84-5.42-5.67-.55-.54-1.25-1.01-2.11-.32-.98.79-2.15.62-3.2.27-1.68-.56-3.41-.79-5.14-1.1-2.26-.4-4.25-1.3-5.63-3.27-.51-.73-1.04-1.42-1.01-2.36.03-1.17-.68-1.4-1.68-1.53-5.43-.67-10.78-.23-16.15.71-6.04,1.06-11.58,3.35-16.92,6.23-.76.41-1.48.87-2.05,1.51.07.2.08.39.19.48,4.68,3.88,5.07,8.92,3.69,14.3-.69,2.69-1.68,5.32-2.79,7.87-2.02,4.65-5.67,8.07-9.36,11.35-2.23,1.98-4.17,4.16-5.91,6.54-1.93,2.64-3.77,5.33-5.71,7.96-3.12,4.22-6.55,8.16-10.28,11.88-4.46,4.45-9.37,8.38-13.91,12.74-2.74,2.64-5.97,4.75-9.74,5.82-4.56,1.29-8.45-.05-11.92-3.01-.6-.52-1.07-1.19-2.03-1.49-.92,1.41-1.91,2.82-2.8,4.29-2.14,3.53-4.33,7.04-6.32,10.66-2.65,4.81-4.87,9.82-6.91,14.94-1.67,4.21-3.33,8.44-5.44,12.46-.89,1.69-1.51,3.51-2.21,5.29-.38.95-.95,1.75-1.5,2.58-.41.63.28,1.94.37,2.96.05.54-.12,1.1-.26,1.64-.24.96-.21,1.82.24,2.77.63,1.34.98,2.81.28,4.7-.32-1.06-.48-1.8-.77-2.48-.3-.72-.57-1.51-1.51-1.72-1.31-.29-1.32-1.12-.92-2.18.25-.66.38-1.38.51-2.09.25-1.43.03-2.74-1.35-3.51-.93-.51-1.19-1.21-1.03-2.18.27-1.6-.63-2.6-1.85-3.31-.85-.49-1.53-1.01-1.92-1.96-.37-.88-.95-1.41-2.05-.68-3.69,2.44-7.93,3.29-12.21,3.83-2.83.36-5.68.94-8.56.29-.87-.2-1.4.13-1.63,1.18-.3,1.39-.83,2.73-1.56,3.99-1.95,3.36-4.76,2.67-6.96.81-1.25-1.06-2.18-2.53-3.22-3.83-.4-.5-.79-1.07-.72-1.74.17-1.53-.53-1.84-1.98-2.13-5.23-1.03-10.53-1.88-15.5-3.96-.62-.26-1.52-1.07-1.9-.54-.72,1-2.39,1.4-2.23,2.93.17,1.69-.42,2.41-2.11,2.79-1.32.3-1.88,1.49-1.75,3,.16,1.96.07,1.99-1.76,2.74-1.52.62-2.27,1.95-3.08,3.21-.34.53-.43,1.22-1.27,1.49.4-2.47,1.31-4.6,3.17-6.2.57-.49.74-.98.74-1.64,0-2.2.86-3.85,2.98-4.7.15-.06.38-.11.41-.22.53-1.67,1.38-3.14,2.61-4.4.08-.09-.02-.53-.15-.62-1.98-1.37-1.13-2.81,0-4.31-.96-.56-1.87-1.01-2.69-1.6-1.52-1.09-2.84-2.35-3.04-4.37-.06-.57-.29-1.04-.72-1.46-1.56-1.56-2.14-3.47-2.06-5.67.06-1.57-.85-2.06-2.24-1.33-.56.3-1.07.71-1.65.95-3.62,1.45-7.38-.71-8.59-4.94-.29-1-.52-2.02-.37-3.08.1-.75-.23-1.12-.91-1.44-2.18-1.02-3.4-2.86-3.78-5.16-.78-4.71.93-8.45,4.79-11.18.69-.49.9-1,.96-1.76.43-5.6,3.69-9.3,8.23-12.11.61-.37,1.26-.72,1.93-.93,1.78-.57,2.66-1.6,3.23-3.53.67-2.27,2.67-3.7,5.13-4.16.62-.12,1.28-.21,1.91-.16,1.19.1,1.77-.37,2.35-1.45,1.43-2.66,4.67-3.87,8.08-3.08,1.24.29,1.7.17,2.49-1.04,1.62-2.49,4.19-3.88,7.26-4.04.95-.05,1.92,0,2.87.09,2.17.23,2.17.25,4.59-.95ZM587.72,145.97c-1.14.26-2.16,1.27-3.39.85-.91-.31-1.26.12-1.77.68-1.22,1.36-2.75,1.83-4.54,1.25-.72-.23-1.45-.44-2.16-.66-.25.42-.04.81-.05,1.2,0,2.35-1.05,3.79-3.34,4.49-.51.16-.8.35-.98.87-.31.9-.72,1.76-1.12,2.7,1.15.62,1.84,1.53,1.6,2.89-.37,2.06.56,3.43,2.25,4.46,1.33.81,2.43,1.95,2.5,3.55.06,1.57,1.1,1.99,2.11,2.65.49-3.01,1.19-5.76,2.35-8.4,2.17-4.94,4.26-9.92,6.36-14.89.23-.54.67-1.1.17-1.72,0,.19.1.27.25.2.04-.02.06-.1.09-.15l-.33.02ZM710.41,102.39c.67.06,1.4.23,1.67-.71-.21-.07-.4-.19-.48-.14-.6.39-1.44.09-1.96.69-2.91.79-5.82,1.59-8.86,1.64-6.46.11-12.89-.79-19.34-.59-4.75.15-9.32,1.03-13.27,3.91-2.21,1.62-2.49,4.22-.6,6.21,1.37,1.44,2.97,2.61,4.85,3.41,5.84,2.49,11.9,2.47,18,1.65,4.41-.59,8.66-1.87,12.81-3.51,4.07-1.61,7.66-3.82,10.34-7.38,1.36-1.8,1.43-1.76.3-3.9-1.82.92-3.75,1.64-5.56,2.53-6.05,2.99-12.45,4.15-19.09,4.45-3.42.15-6.83.45-10.25-.08-.78-.12-1.67.01-2.13-1.05,2.43-.12,4.75-.04,7.02-.38,5.17-.77,10.35-1.55,15.46-2.72,3.5-.81,6.69-2.57,10.23-3.24.32-.06.57-.53.85-.8ZM640.43,60.96c-2.13,1.45-3.58,3.57-5.32,5.4-4.47,4.73-8.87,9.5-14.11,13.49-3.77,2.86-7.19,6.24-10.61,9.58-3.78,3.69-6.93,7.66-8.33,12.85-.48,1.8-1.13,3.57-.81,5.47.6.07.87-.29,1.18-.5,5.31-3.51,10.32-.1,12.03,4.18.76,1.89,1.38,3.87,2.22,5.74.71,1.58.88,3.37,1.87,4.93,2.86-1.59,5.54-3.23,7.94-5.35,1.38-1.22,2.53-2.63,3.88-3.87,2.93-2.68,6.06-5.13,8.87-7.96,4.46-4.49,8.35-9.41,11.98-14.56,3.35-4.75,6.61-9.56,11.22-13.27,1.66-1.33,3.05-3.02,4.44-4.65,1.49-1.76,2.82-3.65,3.34-5.98.34-1.56.96-3.03,1.61-4.49.95-2.14,1.27-4.31.58-6.64-.27.14-.45.17-.54.28-3.32,4.2-7.55,5.82-12.83,4.64-.83-.19-1.76-.51-2.57.03-1.99,1.33-4.33,2.09-6.13,3.7-1.03.92-2.16,1.62-3.36,2.25-1.84.97-4.06.39-5.28-1.3-.8-1.1-.97-2.31-.8-3.62.17-.46.7-.8.4-1.52-.42.33-.79.61-.87,1.15ZM568.28,131.74c.36.03.41-.37.66-.49.41,2.17.9,4.24,3.52,4.83,2.44.56,2.46.6,2.39,3.21-.04,1.62.08,3.15,1,4.58,1.79,2.78,3.57,2.83,5.31.07.08-.14.18-.27.27-.4.59-.85,1.38-1.23,2.21-.47,1.05.97,1.8.48,2.71-.19,2.01-1.48,3.3-3.43,3.98-5.8.34-1.16.61-2.29,2.11-2.57.86-.16,1.2-1.01,1.48-1.76.51-1.36.78-2.77.67-4.23-.14-1.9.07-4.16-1.64-5.29-1.97-1.31-.73-3.97-2.66-5.09-.13-.08-.21-.24-.32-.35-1.4-1.34-2.84-2.5-4.92-2.71-1.6-.16-2.32-.94-2.02-2.03.43-1.58-.2-2.77-.9-4.05-1.01-1.85-2.52-3.28-3.9-4.82-.59-.66-1.46-1.1-2.52-1.11-1.89,0-2.13-.19-2.18-2-.04-1.52-.72-2.57-1.8-3.48-.92-.77-1.85-1.51-2.79-2.26-1.47-1.19-3.13-1.95-5.04-1.8-1.12.08-1.69-.29-1.73-1.4-.03-.87-.33-1.45-1.2-1.84-2.84-1.27-5.76-1.85-8.85-1.25-.7.14-1.4.3-2.11.4-.93.13-1.57-.12-2.14-1.05-1.33-2.21-6.08-3.39-8.37-2-1.25.75-2.28.62-3.59.41-3.65-.61-6.98,0-9.26,3.35-.34.5-.63.78-1.36.52-1.98-.7-3.93-.18-5.82.46-1.5.51-2.57,1.45-3.06,3.09-.66,2.22-.82,2.18-3.17,2.18-1.6,0-3.18.33-4.49,1.36-1.1.87-1.31,2.08-1.32,3.43-.01.98-.45,1.98-1.58,2.13-3.46.46-6.03,2.5-8.26,4.88-1.82,1.94-3.58,4.14-2.58,7.21.32.99-.28,1.69-1,2.24-.7.53-1.49.92-2.18,1.46-2.61,2.06-3.65,4.76-2.98,8.01.35,1.68,1.07,3.05,3.12,3.4,1.86.32,2.15.87,1.54,2.7-.6,1.78-.13,3.28.68,4.8,1.66,3.11,4.13,3.37,6.34.62.6-.74,1.18-1.16,1.94-.32.73.8,1.2.39,1.75-.2.49-.53.92-1.09,1.26-1.74.74-1.41,1.31-2.89,1.75-4.42.32-1.11,1.21-1.74,2.18-1.25,1.59.82,1.98-.21,2.39-1.24.32-.81.48-1.69,1.11-2.35.36-.38.8-.53,1.29-.29.55.26.58.79.39,1.23-.6,1.39-1.19,2.79-1.95,4.1-.49.85-1.35,1.52-2.4,1.12-1.09-.42-1.39.05-1.71.94-.58,1.64-1.14,3.29-2.31,4.66-2.37,2.76-1.86,6.22,1.22,8.11.75.46,1.32.83,1.15,1.8-.2,1.18.43,2,1.3,2.64,2.89,2.13,5.97,3.71,9.73,2.8,1.36-.33,2.09.04,2.89,1.3,1.67,2.65,4.25,3.75,7.41,3.26,1.89-.29,3.74-.71,5.53-1.42,1.96-.78,2.97-.46,3.96,1.24.53.91,1.24,1.29,2.25,1.54,2.03.5,3.77-.14,5.51-1.01,2.45-1.23,4.75-1.86,7.28.2,2.05,1.67,6.6.92,7.81-1.13.77-1.29,1.78-1.76,3.05-1.95,2.04-.29,3.38-1.2,3.74-3.39.19-1.14.76-1.98,2.27-1.94,1.39.04,1.74-.49,1.43-1.79-.26-1.11-.34-2.02.74-2.73.57-.37.26-.85,0-1.25-1.23-1.85-1.03-3.95-.92-5.98.04-.79-.1-1.18-.77-1.49-2.56-1.16-3.47-3.3-3.54-5.95ZM551.36,166c2.14.14,3.61-.55,5.19-.73,3.58-.42,6.97-1.56,10.2-3.19.77-.39,1.21-1.01,1.77-1.55.58-.56.1-1.83-.64-1.7-1.12.21-2.34.15-3.25,1.21-3.37,3.92-8.64,3.71-11.85,1.68-1.54-.97-2.68-.93-4.17-.16-2.16,1.13-4.52,1.53-6.95,1.26-1.63-.18-3.13-.73-4.03-2.2-.47-.78-.95-.95-1.76-.61-.58.25-1.21.38-1.82.55-5.08,1.35-9.83,1.27-13.49-3.25-.38-.47-.84-.75-1.46-.57-1.36.41-2.69,0-4.01-.19-.67-.1-1.28-.35-1.59.47-.28.74.17,1.18.77,1.54,5.69,3.35,12.11,4.3,18.41,5.61,2.32.48,4.74.5,7.09.85.97.15,1.84.23,2.79-.17,1.23-.52,2.48-.55,3.56.45.35.33.72.52,1.26.54,1.51.04,3.03-.09,3.98.18ZM679.01,39.96c3.83-1.19,7.47-2.72,11.34-3.55,3.89-.83,7.9-.74,12.03-1.49-2.15-2.02-4.45-3-6.8-3.96-2.87-1.16-5.6-1.28-8.53-.13-4.01,1.57-6.28,4.7-8.13,8.29-.08.16.04.44.09.82ZM537.89,168.24c.82,1.38,1.88,2.49,3.21,3.37.44.29.85.41,1.29.05.59-.48.66-1.25,1.02-1.86.38-.62.88-1.25.35-2.1q-1.77,1.89-4.02.9c-.57-.25-1.09-.7-1.85-.36Z"/><path class="cls-1" d="M21.18,134.41c-1.36-2.18-1.63-4.46-2.37-6.55-.49-1.39-1.26-2.5-2.14-3.6-3.27-4.12-7.58-6.2-12.8-6.47-1.38-.07-2.56.63-3.86.85q2.76-2.16,5.43-2.56c-.66-3.48-1.59-7.01.09-10.18-.05,3.08.08,6.38,1.05,9.6.17.57.52.72,1.05.75,3.55.17,6.56,1.62,9.17,3.89.46-.12.56-.42.51-.75-.52-3.47-.6-6.98-.63-10.48-.04-3.64.29-7.29.52-10.94.06-.98-.16-1.61-1.05-2.17-2.33-1.48-3.94-3.57-5.21-6.05-2.17-4.25-1.76-8.3.34-12.36,4.02-7.78,7.35-15.83,9.4-24.35.88-3.64,1.54-7.35.94-11.14-.06-.39-.22-.76-.33-1.14-1.36-.25-2.15.56-2.78,1.48-.67.98-1.26,2.03-1.78,3.1-1.6,3.29-3.54,6.46-4.47,10.01-1.23,4.71-3.83,8.84-5.34,13.42-1.8,5.44-2.76,10.9-1.81,16.61.3,1.78-.01,3.32-1.75,4.27-.59-.57-.7-1.25-.85-1.97-1.57-7.85-.5-15.38,2.64-22.68,2.1-4.89,3.93-9.88,5.85-14.83,1.37-3.52,2.79-7.11,5.32-10.07.95-1.11,1.96-2.03,3.45-2.38,2.37-.55,4.28.23,4.63,3.3.45,4,0,7.96-.87,11.86-1.23,5.51-3.16,10.8-5.32,16.01-1.37,3.29-2.94,6.5-4.7,9.58-2.98,5.2-2.05,9.94,1.27,14.48.56.76.77,1.78,1.67,2.29.2.12.41.22.83.45.32-1.34.62-2.61.94-3.87.65-2.56,1.6-4.96,3.47-6.94,1.54-1.63,3.3-2.14,5.39-1.43.65.22,1.11.33,1.71-.22,1.49-1.36,3.16-.79,4.65-.02.75.39,1.17.82,2.24.62,1.28-.25,2.54.55,3.41,1.79,1.55,2.2,1.69,4.57,1,7.37,1.51-.79,2.78-1.47,4.07-2.13.71-.36.78-.87.54-1.59-.73-2.18-1.4-4.38-2.12-6.68,1.09-.08,1.48.65,1.83,1.41.59,1.31,1.13,2.63,1.51,4.03.41,1.54.66,1.58,2.14,1.04.3-.11.61-.2.92-.28,1.06-.28,1.43-.85.95-1.93-.23-.52-.79-1.32.05-1.65.8-.32,1.06.59,1.17,1.15.34,1.72,1.41.94,2.16.6,3.31-1.54,6.59-3.15,9.87-4.78,5-2.48,10.2-4.44,15.41-6.4,4.18-1.57,8.43-2.88,12.66-4.28,1.44-.48,3-.41,4.34-1.14.25-.14.63-.12.76-.73-.69-.46-1.48-.95-2.23-1.49-3.55-2.55-4.5-5.81-3.42-9.4,1.05-3.49,2.4-6.92,4.13-10.24-2.88-2.43-5.73-4.92-8.36-7.65-2.23-2.31-3.41-5.14-4.13-8.2-1.04-4.43-.44-8.6,2.47-12.16,2.48-3.05,5.48-5.46,9.21-7.04,4.12-1.75,8.38-2.45,12.76-2.8.92-.07,1.82.02,2.55.49,1.37.87,2.82.96,4.36.9,5.18-.21,10.37-.15,15.45.97,4.95,1.09,9.92,2.1,14.61,4.26,3.1,1.43,6.4,2.43,9.02,4.76.32.29.73.26,1.14.21.55-.07,1.13-.06,1.66-.2,3.56-.91,6.85.18,9.89,1.75,3.17,1.64,5.4,4.29,5.57,8.06.12,2.58-.91,4.96-2.01,7.27-1.31,2.75-3.16,5.16-4.99,7.56-2.18,2.85-3.82,6.04-5.84,9-.8,1.18-1.56,2.39-2.43,3.72,1.37.24,1.84,1.11,1.77,2.34-.16,2.89-.79,5.66-2.09,8.27-.91,1.85-1.74,3.72-2.48,5.66-1.31,3.45-.98,6.86-.39,10.35.59,3.47.46,6.87-.4,10.36-.82,3.3-2.13,6.48-2.57,9.88-.19,1.42-.28,2.86-.41,4.28-.52,5.64-1.9,11.12-2.79,16.69-.58,3.61-1.17,7.22-1.89,10.81-2.29,11.47-3.26,23.04-2.7,34.74.01.31,0,.61,0,1.23-.88-1.14-.88-2.24-1.05-3.27-1.38-8.23-1.63-16.48-.51-24.77.77-5.73,1.94-11.39,2.59-17.14.34-3,1.11-5.95,1.63-8.93.68-3.83,1.6-7.61,1.91-11.52.21-2.66.91-5.25,2.09-7.69.52-1.08.66-2.28.54-3.72-2.54.64-5.07,1.14-7.64,1.31-4.07.28-8.13,0-12.14-.59-2.68-.39-5.41-.37-8.05-1.06-3.44-.91-6.74-2.13-10.03-3.51-5.7-2.39-9.12-6.97-12.39-11.78-1.51-2.22-3.06-4.43-4.05-6.96-.24-.62-.71-.71-1.35-.66-1.83.15-3.62.59-5.33,1.15-6.64,2.17-13.28,4.35-19.74,7.07-2.49,1.05-5.02,2.07-7.38,3.33-2.66,1.43-5.21,3.07-7.97,4.33-.95.43-.75,1.27-.62,2.08.3,1.83.38,3.63-1,5.53-1.32-2.23-.27-4.5-.78-6.59-.26-.2-.54-.05-.82.09-2.25,1.12-2.26,1.12-1.68,3.69.23,1.02.32,2.05.28,3.09-.04.96,0,2.05-1.25,2.26-.72.12-1.23-.94-1.17-2.28.02-.48.04-.96.11-1.43.18-1.14-.06-2.19-.55-3.28-.92.36-1.77.77-2.67,1.01-2.99.82-4.15,2.94-4.62,5.84-.73,4.55-1.39,9.08-1.67,13.7-.33,5.35-.3,10.67.09,16,.35,4.69.83,9.36.53,14.09-.21,3.31-.92,6.47-2.38,9.41-1.43,2.87-3.57,4.9-7.07,4.82-.16,0-.32,0-.48.01-3.8.17-5.33,1.61-5.74,5.48-.22,2.06-.38,4.12-.54,6.19-.07.87-.29,1.58-1.31,1.7-.82.1-1.47-.05-1.47-1.05.01-4.22-.24-8.51,1.82-12.39.97-1.84,2.52-3.07,4.83-2.87.63.05,1.29-.09,1.91,0,3.19.47,4.93-1.39,6.14-3.91.89-1.86,1.32-3.88,1.53-5.96.5-4.95.15-9.88-.13-14.82-.48-8.63.36-17.18,1.3-25.74.43-3.91,1.57-7.63,2.45-11.43.46-2.01.46-3.97-1.08-5.61-.91-.97-1.17-.95-1.9.2-.13.2-.18.45-.31.65-.29.43-.76.62-1.23.63-.6.01-.75-.55-.87-.99-.14-.53-.12-1.1-.21-1.65-.08-.53-.44-.84-.95-.95-.63-.14-1.13.1-1.39.66-.27.57-.4,1.22-.67,1.79-.29.6-.8,1.02-1.52.99-.7-.03-.83-.64-1.07-1.14-.87-1.83-1.87-2.05-3.15-.57-1.31,1.51-2.25,3.19-2.77,5.2-1.63,6.33-1.6,12.77-1.49,19.21.08,4.79.38,9.56.98,14.32.18,1.43.61,2.8.82,4.22.21,1.41.49,2.82.05,4.61ZM154.28,61.07c-.86.05-1.36.76-2.06,1.12-4,2.05-7.31.35-8.06-4.1-.5-2.96-.69-5.87.48-8.71.85-2.07,1.13-4.29,1.66-6.44.7-2.84,1.31-5.73,1.29-8.72-.01-2.3-.36-4.26-2.29-5.7-.06-.04.02-.28.04-.43,1.99-.13,2.96.37,3.79,2.08.52,1.08.84,2.22.91,3.43.33,5.4-.62,10.65-2.25,15.74-.94,2.93-.92,5.81-.61,8.74.19,1.75,1.39,2.44,3.08,1.94,1.25-.37,2.33-1.04,3.09-2.14,1.34-1.96,2.71-3.9,3.98-5.91,1.96-3.09,3.82-6.25,6.03-9.19,1.81-2.41,3.21-5.09,4.11-8.05.78-2.59.27-4.65-1.51-6.58-.62-.67-1.26-1.25-2.13-1.45-1.02-.24-1.94-.71-2.88-1.13-1.03-.47-2.1-.66-3.26-.56-1.35.12-2.71.15-4.03.48-.71.18-1.43.26-2.06-.24-2.69-2.15-5.72-3.56-8.95-4.8-2.9-1.12-5.82-2.17-8.78-3.03-6.07-1.77-12.31-2.56-18.62-2.83-1.67-.07-3.52-.02-4.65-1.38-.94-1.13-1.94-1.21-3.15-1.09-2.64.24-5.17,1-7.66,1.8-4.51,1.45-8.73,3.5-11.85,7.27-1.38,1.67-2.58,3.43-2.75,5.7-.36,4.95,1.02,9.33,4.49,12.88,1.55,1.59,3.25,3.04,4.76,4.68.48.52.94,1.08,1.83.83,1.77-.5,2.99-2.47,2.56-4.27-.44-1.86-.92-3.71-1.31-5.57-.78-3.76-.28-7.28,2.41-10.2,1.84-2,4.08-3.55,6.37-5,.54-.34,1.16-.59,1.81-.53.54.05,1.18-.04,1.5.55.38.7-.02,1.32-.49,1.7-.98.8-2.03,1.54-3.12,2.19-4.75,2.84-6.71,6.12-5.62,11.91.27,1.41.51,2.83.84,4.23.63,2.66-.27,4.72-2.42,6.26-1.02.73-1.71,1.65-2.12,2.8-1.05,3.01-2.07,6.03-3.13,9.03-1.13,3.2-.07,6.14,2.76,8.07.97.66,1.54.57,2.15-.35.93-1.41,1.98-2.7,3.26-3.81,1.96-1.71,3.61-1.63,5.35.32.84.94,1.58,1.98,2.43,2.92,1.94,2.15,2.1,2.16,4.64.83,3.66-1.91,6.3-4.81,8.2-8.43.6-1.13,1.14-2.28,1.75-3.41.35-.65.95-.8,1.65-.64.73.17,1.06.6,1.03,1.37-.03.71.13,1.43-.26,2.11-.74,1.31-1.45,2.65-2.2,3.96-1.24,2.19-3.26,3.64-4.98,5.39-1.7,1.73-3.68,2.69-5.83,3.56-2.26.92-5.54-.2-6.85-2.47-.6-1.03-1.4-1.94-2.03-2.96-.54-.88-1.07-.82-1.98-.48-1.8.66-2.74,2.19-4.2,3.34,1.97,1.28,4.01,1.73,5.89,2.56,4.98,2.18,10.03,1.78,14.89-.16,5.08-2.03,8.36-6.19,11.18-10.7.72-1.15,1.28-2.39,1.8-3.64.37-.89,1.13-1.09,2-.71.78.34.68.98.46,1.62-.23.68-.41,1.38-.73,2.01-1.86,3.67-4.45,6.78-7.4,9.61-1.92,1.84-4.23,3.2-6.69,4.04-5.39,1.85-10.85,2.32-16.33,0-1.42-.6-2.95-1.33-4.76-1.15.51.94.92,1.7,1.33,2.47,1.26,2.42,2.84,4.68,4.76,6.54,3.49,3.39,7.3,6.48,11.93,8.19,3.71,1.37,7.43,2.85,11.5,2.93,2.99.06,6.01.08,8.97.49,2.57.35,5.08.07,7.62.06,1.14,0,2.2-.39,3.28-.63.8-.18,1.3-.59,1.32-1.65.03-1.45-.29-2.84-.38-4.27-.14-2.06-.91-4.12-.38-6.16.72-2.77,1.49-5.53,2.77-8.13,1.52-3.07,3.1-6.14,3-9.72.16-.18.17-.37,0-.55-.08.1-.15.19-.23.29Z"/><path class="cls-1" d="M615.99,184.49c-3.19.23-6.36.11-9.52-.4-.7-.11-1.42.05-2.13.15-5.16.72-7.65-1.32-9.77-5.07-1.27-2.24-1.31-4.41-.32-6.83,1.89-4.65,3.89-9.26,6.09-13.76,1.84-3.75,4.7-6.83,8.1-9.29,1.47-1.06,2.88-2.2,4.44-3.16,2.67-1.66,5.62-2.61,8.46-3.81,1.89-.8,3.89-1.38,5.86-1.99,4.53-1.4,8.63-.4,11.89,2.9,5.21,5.29,6.66,11.61,4.81,18.88-1.06,4.19-3.62,7.38-5.86,10.83-.57.87-1.12,1.7-1.41,2.73-.56,2.03-1.77,3.73-3,5.4-.62.84-1.53,1.45-2.54,1.73-3.53.98-7.1,1.78-10.8,1.7-1.43-.03-2.86,0-4.29,0Z"/><path class="cls-1" d="M410.46,3.59c-.08,1.57-1.08,2.68-1.99,3.71-3.81,4.29-8.16,8.02-12.35,11.92-2.7,2.51-5.55,4.77-8.49,6.93-2.64,1.94-5.15,3.98-7.63,6.11-4.17,3.57-6.69,8.22-9.2,12.97-3.3,6.25-4.09,12.96-4.48,19.84-.18,3.32.45,6.47,1.02,9.68,1.03,5.78,3.18,11.14,6.36,16.01,2.52,3.87,5.75,7.18,9.74,9.62.96.59,1.85,1.22,2.48,2.17.51.77.46,1.52-.1,2.21-.61.76-1.42.72-2.15.24-.79-.52-1.48-1.21-2.26-1.75-.86-.59-1.6-.76-2.38.34-2.63,3.69-5.87,6.98-7.94,11.03-1.07,2.08-2.07,4.24-2.97,6.43-1.2,2.89-2.14,5.82-2.94,8.81-.85,3.15-1.45,6.39-1.48,9.65-.03,4.11,1.03,8.03,2.66,11.8.85,1.97,1.69,3.93,3.21,5.54,1.06,1.12.96,2.4.13,3.72-1.44,2.29-2.95,4.53-4.14,6.98-1.05,2.18-1.65,4.46-2.05,6.83-.26,1.54-.44,3.11-1.29,4.71-1.07-1.15-.96-2.35-.92-3.47.2-5.77,1.63-11.15,5.27-15.78.42-.54.33-1.02-.05-1.52-3.15-4.16-4.56-9.02-5.64-14.02-.53-2.43-.54-4.87-.32-7.34.59-6.47,2.28-12.68,4.81-18.63,2.31-5.4,5.14-10.53,9.31-14.8.94-.96,1.73-2.05,2.82-2.91-.4-.89-1.11-1.41-1.72-2.01-3.4-3.38-6.23-7.13-8.19-11.58-.96-2.17-1.61-4.45-2.56-6.62-1.22-2.77-1.6-5.84-1.89-8.84-.75-7.7.3-15.22,2.59-22.59.41-1.31,1.12-2.46,1.69-3.68,1.68-3.6,3.45-7.16,5.95-10.27,2.7-3.36,5.78-6.33,9.26-8.91,3.89-2.89,7.93-5.55,11.62-8.75,2.87-2.49,5.84-4.91,8.87-7.24,2.57-1.98,4.96-4.23,7.34-6.53Z"/><path class="cls-1" d="M472.42,40c4.84.43,9.5,1.75,14.16,3.03,1.67.46,3.32.96,4.92,1.66,2.59,1.13,3.84,3.49,2.96,6.15-.62,1.88-1.62,3.44-3.31,4.77-3.39,2.67-6.99,4.59-11.29,5.29-2.1.34-4.08.14-6.13-.17-2.49-.37-4.35-1.82-6.24-3.22-3.37-2.5-5.34-9.44-4-13.45.41-1.22,1.18-2.06,2.24-2.66,1.92-1.06,4.19-1.5,6.67-1.41Z"/><path class="cls-1" d="M160.35,77.73c-1.64-.06-2.52-.83-2.7-2.55-.3-2.88.59-5.49,2.1-7.9.59-.94,1.33-1.78,1.95-2.7,1.01-1.53,1.78-3.1,2.14-4.98.69-3.64,1.88-5.04,5.97-2.82,1.42.77,2.59,1.83,3.51,3.13,1.06,1.5,2.28,2.85,3.48,4.22.44.51.91.91,1.58.96.97.06,1.85.35,2.65,1.19.13-.59.18-.9.27-1.2.73-2.57,1.6-2.85,3.86-1.3.57.39,1.06,1,1.99,1,.2-1.03-.21-1.97-.46-2.91-.26-.98-.36-1.99.57-2.59.75-.49,1.46.05,2.18.47,1.16.67,2.42,1.15,3.63,1.74,3.48,1.68,5.71,4.48,7.15,8.34,1.01-1.99,2.26-3.48,3.51-4.98.93-1.1,1.92-2.13,3.18-2.87.62-.36,1.12-.52,1.68.11.45.5.85.93.44,1.67-.35.62-.61,1.28-.91,1.93-.68,1.47-1.07,2.98-.66,4.61.08.31.1.63.12.95.05.74-.02,1.48-.79,1.81-.48.21-2.02-.97-2.13-1.57-.32-1.72-.22-3.44.23-5.36-2.87,1.31-3.76,3.94-5.22,6.52-1.55-4.88-4.63-7.76-9.15-9.11-.57.7-.15,1.33-.18,1.94-.08,1.74-.7,2.19-2.49,2.13-1.21-.04-2.47.46-3.48-.83-.78,4.11-1.67,4.4-5.51,1.88-.12,1.12.14,2.26-.77,3.1-1.17,1.08-1.84-.42-2.94-.45-.65.59-.27,2.09-1.58,2.28-1.03.14-1.75-.66-2.55-.98-.72.12-.38.62-.45.94-.25,1.2-.88,1.81-2.18,1.58-.55-.1-1.11-.08-1.67-.12-.32-.02-.8-.02-.82.28-.17,1.88-2,2.39-2.92,3.63-.71.95-1.47,1.87-1.94,2.92.21.64.68.31,1.01.41,1.46.42,1.82,1.16.99,2.45-1.21,1.87-2.28,3.82-3.29,5.8-.18.35-.25.75-.36,1.12-.14.16-.24.36-.09.54.17.19.36.06.54-.04.78-.52,1.2-1.49,2.25-1.68,1.52-.28,2.16.33,1.74,1.82-.28.99-.67,1.95-1.06,2.9-.28.68-.43,1.35-.27,2.08.94-.03,1.41-.68,1.79-1.38.49-.89,1.04-1.31,2.12-.87,1.1.45,1.1,1.25.91,2.15-.57,2.63-1.17,5.26-1.75,7.89-.13.35-.3.72.07,1,.04.03.33-.27.5-.42,1.25-1.08,1.74-2.83,3.22-3.71v-.11c-.71,2.3-2.27,4.18-3.13,6.41-.03.07-.07.14-.12.21-.52.71-1.01,1.57-2.08,1.18-.87-.32-1.07-1.14-.97-1.98.15-1.34.25-2.69.54-4,.19-.86.27-1.73.41-2.59.35-.17.49-.56.26-.76-.34-.29-.44.21-.64.39-.49.41-.94.86-1.46,1.23-1.26.89-2.28.47-2.63-1.04-.24-1.04,0-2.05.18-3.07.15-.84.66-1.64.32-2.54-3.25.71-3.92-.02-3.04-3.16.72-2.56,2.08-4.79,3.36-7.06-1.99-1.79-2.1-2.54-.7-4.83.42-.68.86-1.34,1.29-2.01,1.16-1.19,2.65-2.13,2.28-4.23-.11-.64.55-1.3,1.42-1.31.48,0,.96-.05,1.43-.02.68.04.89-.17,1.02-.91.33-1.94.83-2.32,2.55-2.41.34-.02.78.25.98-.24-.84-2.48-3.44-3.5-4.44-6.04-.77,1.63-1.66,2.84-2.58,4.03-2.13,2.75-3.87,5.61-3.01,9.34.1.43-.13.93-.21,1.4ZM166.24,63.58c1.23-.79,2.1-.35,2.81.67.41.58.93,1.1,1.28,1.71.73,1.25,1.33,2.58,3.18,1.5.26-.15.76.09,1.14.17.41.09.91.61,1.17-.09.24-.61.77-1.39-.1-1.9-2.34-1.39-4.13-3.43-6.22-5.11-2.35-1.9-2.42-1.85-3.12,1.18-.12.51-.51,1-.15,1.87Z"/><path class="cls-1" d="M555.69,50.92c-1.06-3.76-2.4-7.46-4.4-10.79-2.66-4.43-5.83-8.52-10.16-11.57-3.19-2.24-5.88-5.09-8.87-7.57-4.16-3.45-7.49-7.59-10.14-12.3-.69-1.24-1.4-2.47-2.24-3.63-1.06-1.47-1.04-3.25-.22-3.7.76-.42,1.84.35,2.92,1.82,2.83,3.84,5,8.14,8.16,11.75.31.36.55.82.93,1.08,4.05,2.85,7.15,6.8,11.23,9.63,4.87,3.39,8.24,8.14,11.28,13.11,1.03,1.68,1.84,3.56,2.41,5.45.8,2.67,1.93,5.21,2.88,7.81.3.81.75,1.23,1.62,1.52,1.53.5,3.08.72,4.67.9.62.07,1.29-.1,1.84.38.72.62,1.68,1.19,1.22,2.32-.4.98-1.33,1.31-2.37,1.21-1.48-.13-2.88-.9-4.62-.6.22,1.56.49,3.09.64,4.64.61,6.31-.46,12.37-2.88,18.2-.84,2.04-1.98,3.82-4.34,4.86,1.84-2.15,2.64-4.6,3.32-7.01,1.54-5.4,2.3-10.91,1.55-16.55-.23-1.7-.96-3.18-1.62-4.71-.32-.74-.91-1.11-1.58-1.36-5.69-2.15-10.77-5.44-15.85-8.69-2.13-1.37-4.36-2.67-6.12-4.57-.37-.4-.91-.65-1.01-1.29-.07-.47-.32-.95.25-1.25.46-.23.78.08.97.44.51,1,1.48,1.4,2.37,1.94,4.76,2.89,9.81,5.22,14.68,7.9.96.53,2.1.73,3.15,1.08.18.1.37.35.55.1.15-.21.02-.44-.23-.55Z"/><path class="cls-1" d="M491.22,10.73c-.53.93-.36,1.75-.08,2.45,1.47,3.62,2.03,7.49,3.11,11.21.55,1.89,1.42,3.7,2.15,5.54,1.84,4.59,4.08,8.96,6.85,13.05.76,1.11,1.59,2.19,2.63,3.06.78.65.88,1.45.62,2.38-.42,1.51-1.2,1.87-2.68,1.26-.69-.29-1.22-.74-1.68-1.3-2.23-2.7-4.21-5.57-5.7-8.74-3.2-6.79-5.47-13.88-6.53-21.33-.36-2.52-1.08-4.98-1.25-7.55-.08-1.29-.17-2.56.45-3.73.53-1,1.06-1.06,1.84-.27.45.45.81.98,1.19,1.49,3.95,5.3,7.26,11,10.35,16.82,1.51,2.84,3.58,5.26,5.86,7.41,4.39,4.14,8.91,8.15,13.75,11.77.89.66,1.66,1.49,2.45,2.28.96.97,1.06,2.2.3,3.18-.64.83-2.35,1.08-3.24.3-3.06-2.65-6.09-5.34-9.06-8.09-.64-.59-1.24-1.23-1.92-1.79-3.11-2.6-6.2-5.23-8.45-8.66-2.04-3.11-3.95-6.25-5.36-9.75-1.54-3.81-3.72-7.36-5.61-11.02Z"/><path class="cls-1" d="M399.89,106.65c-2.15,1.75-3.92,3.74-5.52,5.89-1.24,1.66-2.38,3.38-3.58,5.06-.23.32-.48.65-.8.88-.37.28-.9.56-1.29.17-.44-.45.05-.79.32-1.19,2.37-3.48,4.24-7.28,6.9-10.59,1.66-2.06,3.78-3.63,5.43-5.68.65-.81,1.71-1.27,2.81-.69,1.24.64.91,1.9.68,2.78-.86,3.31-1.32,6.7-2.01,10.04-.69,3.34-1.41,6.68-2.07,10.03-.56,2.85-.29,5.85-.41,8.79-.23,5.45,1.43,10.61,2.28,15.9.32,1.96.51,3.93,1.05,5.85.02.08.06.15.06.23-.07,1.04-.15,2.12-1.16,2.72-.49.3-1.88-.75-2.39-1.63-.7-1.21-.77-2.61-.94-3.91-.49-3.69-1.4-7.29-2.03-10.94-.81-4.66-.69-9.34-.47-14.03.16-3.52,1.25-6.87,1.73-10.32.42-3.1,1.24-6.14,1.43-9.35Z"/><path class="cls-1" d="M92.71,165.13c2.8-2.24,5.85-4.11,8.86-6.05,3.95-2.54,7.91-5.05,11.74-7.76,2.85-2.02,5.81-3.91,8.55-6.09,1.81-1.43,3.56-2.93,5.39-4.34,2.52-1.95,4.11-4.64,5.9-7.17,1.48-2.09,3.07-4.07,4.94-5.83.52-.49,1-.8,1.67-.32.77.56.58,1.23.17,1.89-.25.4-.53.81-.86,1.15-2.41,2.46-4.32,5.31-6.28,8.12-1.2,1.71-2.59,3.21-4.26,4.48-2.72,2.07-5.38,4.23-8.1,6.31-1.3,1-2.98,1.46-4.23,2.86,1.49.75,1.94,1.7,1.8,3.41-.24,2.93.37,5.84,1.65,8.59,1.72,3.7,1.35,7.39-.38,11.06-.81-.37-.53-.98-.5-1.47.22-2.97.1-5.85-1.54-8.51-1.77-2.88-1.95-6.18-2.3-9.42-.12-1.12.46-2.1,1-3.53-7.36,4.34-14.27,8.42-21.38,12.62,4.82,2.22,6.38,6.56,7.77,11.01.12.37.12.79.11,1.18-.03.78-.37,1.5-1.15,1.63-.76.12-1.37-.35-1.63-1.12-.5-1.51-1.03-3.01-1.46-4.54-.52-1.88-1.37-3.53-2.88-4.81-.78-.67-1.01-1.49-.96-2.55.04-.84-.62-.25-.99-.13-.36-.08-.59-.29-.66-.65Z"/><path class="cls-1" d="M189.24,105.32c-.06.27-.11.55-.17.82-.29.09-.29.3-.22.54-.38,1.21-.94,2.06-2.4,1.35-.37-.18-.71-.23-1.02.2-.51.71-1.1,1.36-1.63,2.05-.19.24-.46.56-.12.81,1.79,1.32,1.96,4.15,4.65,4.58,2.92-3.5,8.74-4.82,11.67-.72,1.06-.92,2.28-1.66,3.13-2.8.4-.54.66-1.05-.06-1.61-.56-.44-1.03-.99-1.51-1.52-.36-.39-.64-.53-1.19-.17-1.43.93-2.15.78-3.09-.46-.15-.19-.28-.39-.42-.58-.4-.58-.23-1.51-.98-1.84-.69-.3-1.11.45-1.7.63-.77.23-1.2-.15-1.56-.74.05-.33.11-.65.16-.98.33.29.7.46,1.03.07.25-.3.41-.68.62-1.01,1.23-1.93,1.85-2.01,3.1-.21.84,1.2,1.43,2.35,3.35,1.89,1.01-.24,2.08.63,2.86,1.5.69.77,1.31,1.63,2.33,2.01.57.21,1.05.53.86,1.21-.17.61-.47,1.43-1.15,1.36-.95-.09-1.19.42-1.55,1.04-.76,1.33-2.03,2.18-3.45,2.28-1.02.07-.97.45-.94,1.1.06,1.44.15,2.87.18,4.31.06,3.09-.63,5.97-2.35,8.59-.9,1.37-1.2,3.14-3.02,3.84-.86.33-1.54.51-2.47.17-3.92-1.46-5.12-3.35-4.77-7.65.1-1.27.03-2.55,0-3.82-.04-1.44.06-2.87.4-4.39-1.22-.56-2.66-.8-3.25-2.38-.48-1.28-.75-2.55-.75-3.87-.65-.32-.89.1-1.14.51-.17.27-.32.55-.52.8-1.06,1.32-1.95,1.72-2.49,1.06-.91-1.11.03-1.95.67-2.7,1.17-1.4,2.51-2.65,3.7-4.04,1.7-2,1.89-1.96,4.4-1.22.27.01.55.02.82.03ZM193.13,130.48c1.92-1.86,2.72-3.78,3.39-5.8,1.1-3.33.12-6.62-.04-9.93-.04-.79-.63-.81-1.19-.84-3.34-.2-6.59.77-5.84,5.56.01.08.01.16.03.24.42,2.51.92,5,.85,7.57-.01.5-.02,1.1.81,1.12.39-3.67.65-7.35,2-10.83v12.91Z"/><path class="cls-1" d="M223.43,69.73c1.78-1.21,1.65-1.08,3.1.38.9.9,1.66,1.63,1.26,3.02,1-.03,1.89-.08,2.53.83,1.7-3.09,1.23-6.32,1.51-9.43.04-.39-.17-.8-.12-1.18.26-2.03-.36-3.77-1.62-5.34-.34-.42-.56-.94-.96-1.61-2.26,1.97-4.43,3.89-6.79,5.57-1.41,1-2.96,1.53-4.46,2.22-3.03,1.4-5.63,3.28-7.38,6.2-.2.33-.5.61-.79.88-.1.09-.3.06-.61.11.27-2.74,1.82-4.73,3.49-6.64,1.28-1.46,2.89-2.48,4.71-3.18,3.76-1.46,7.04-3.65,9.82-6.58.38-.4.8-.78,1.26-1.1,1.02-.7,2.15-.47,2.89.54.09.13.13.3.23.42,3.66,3.94,3.39,8.67,2.79,13.5-.25,1.98-.48,3.96-1.27,5.8-.32.76-.49,1.73-1.65,1.82-.94.07-.86.99-1.34,1.77,1.05-.12,1.6.68,2.44.81,0,0-.02-.03-.02-.03-.13,1,.5,2-.05,3.01-.46.85-1.1,1.58-1.81,2.19-.76.65-1.88.83-2.31,1.87-2-1.33-2.02-1.72-.24-3,.81-.59,1.75-1.06,2.08-2.17-1-.51-2.25.27-2.78-.17-1.45-1.19-3.43.31-4.68-1.17-.04-.05-.18-.08-.23-.05-2.22,1.48-2.29-.6-3.04-1.75-1.2-1.85-2.38-3.78-4.61-4.63-.39-.1-.91.04-1.03-.55.72-1.14,1.65-1.03,2.67-.47,1.13.62,2.1,1.47,2.94,2.4.94,1.04,1.3.23,1.81-.36.17-.11.34-.21.52-.32.78-.28,1.45.4,2.21.26,0,.89.37,1.62,1.08,2.51.42-.72,1.14-1.1.74-1.89-.36-.71-1.06-.84-1.82-.62,0-.8-.27-1.62.25-2.36,1.02-1.1-.72-.87-.72-1.48Z"/><path class="cls-1" d="M236.8,172.53c.09.21.17.44.28.64.11.2.36.41.17.62-.13.14-.43.24-.62.2-.98-.24-2.79-2.3-2.91-3.28-.14-1.04.73-1.89,1.94-1.86.31,0,.61.16.93.19.22.02.45-.07.95-.16-2.03-2.55-3.12-5.49-4.99-7.98-.62-.82-1.02-1.8-1.57-2.68-.88-1.43-1.69-2.82.32-4.03.49-.3.1-.67-.05-1.01-.9-2.04-2.24-3.82-3.41-5.69-.6-.95-1.18-1.9-1.58-2.94-.48-1.25-.65-2.55.45-3.56.71-.65.39-1.06-.05-1.56-1.47-1.67-2.56-3.63-4.12-5.25-.63-.65-1.52-1.47-1.42-2.41.19-1.79-.86-2.59-2.12-3.37-.68-.42-.97-1.02-.89-1.82.15-1.43,1.16-2.13,2.31-1.31,1.87,1.32,4.32,2.33,4.03,5.35-.06.68.47,1.15.86,1.66,1.68,2.22,3.31,4.49,5.05,6.66.57.72.75,1.57,1.2,2.32.45.75.19,1.56-.27,2.24-1.05,1.56-1.13,1.85-.1,3.3,1.35,1.89,2.41,3.95,3.56,5.96.39.68.6,1.47,1,2.15.71,1.19.6,2.33-.22,3.34-.61.74-.39,1.23.11,1.86,1.96,2.43,3.34,5.22,4.71,8.01.37.75.45,1.53.41,2.33-.08,1.94-1.17,2.65-2.98,1.94-.22-.09-.44-.16-.67-.24-.19-.1-.42-.22-.56-.02-.16.23.06.34.26.41Z"/><path class="cls-1" d="M405.87,25.59c2.14-2.31,4.92-3.78,7.37-5.69,4.97-3.86,9.99-7.67,14.57-12.01.23-.22.5-.4.73-.62.74-.69,1.65-.85,2.41-.3.65.47.22,1.26.06,1.97-.42,1.78-1.68,3.1-2.65,4.49-2.87,4.11-5.44,8.41-8.43,12.44-1.61,2.16-3.05,4.47-4.66,6.63-.57.76-1.31,1.39-1.93,2.11-.7.82-1.37.51-2.1.05-.83-.52-.65-1.12-.29-1.84.65-1.29,1.48-2.46,2.39-3.57,2.27-2.76,4.32-5.69,6.35-8.62,1.31-1.88,2.64-3.73,4.14-5.84-1.18-.04-1.97.28-2.52.92-2.28,2.65-5.42,4.15-8.2,6.13-2.07,1.47-4.26,2.76-6.4,4.13-.31-.07-.65-.05-.83-.38Z"/><path class="cls-1" d="M61.12,171.08c0-2.92.08-6.27-.02-9.61-.13-4.56.46-9.08.52-13.63.06-5.08-.7-9.99-2.75-14.67-.71-1.61-.2-3.57,1.45-4.61,1.15-.72,1.19-1.43.92-2.54-.24-1-.48-2.03-.13-3.07.1-.3.13-.65.54-.68.41-.04.59.29.62.58.19,1.53.73,2.92,1.48,4.27.52.94-.07,1.86-.74,2.32-1.99,1.36-1.39,2.74-.67,4.6,1.46,3.72,2.13,7.67,2.23,11.67.11,4.14-.14,8.27-.41,12.41-.27,4.13-.15,8.29-.2,12.44,0,.32.04.64.01.96-.12,1.41-.91,2.14-2.12,1.98-1.44-.19-.94-1.17-.74-2.42Z"/><path class="cls-1" d="M171.86,169.01c1.05-.16,1.55-1.06,2.24-1.69.43-.39.84-.73,1.46-.66.73.07,1.17.36,1.12,1.2-.08,1.39-2.2,5.56-3.48,6.67-.06-1.33.8-2.42.78-3.79-.73-.02-.99.51-1.34.86-1.01.98-2.2,1.58-3.6,1.71-1.66.16-2.11-.33-1.68-1.89.23-.84.56-1.66.94-2.44,1.25-2.49,2.57-4.95,4.18-7.24.46-.66.74-1.08-.05-1.78-.83-.72-.51-1.7-.06-2.61.85-1.71,1.68-3.42,2.47-5.16.31-.7.7-1.42-.18-2.12-.67-.53-.38-1.4-.17-2.03,1.28-3.85,2.14-7.81,3.28-11.69.29-.99.65-1.97,1.3-2.8.34-.43.82-.49,1.29-.33.48.16.42.6.44,1,.02.58-.23,1.07-.4,1.6-.86,2.73-1.67,5.47-2.46,8.22-.18.63-.63,1.45.44,1.79,1.27.4.98,1.26.65,2.1-.96,2.44-1.94,4.87-2.94,7.3-.3.73-.7,1.35.1,2.11.69.66.56,1.58.2,2.46-.46,1.11-1.05,2.14-1.69,3.15-1.15,1.81-2.25,3.65-3.37,5.48-.18.32-.55.7-.19,1,.24.21.5-.21.71-.4Z"/><path class="cls-1" d="M461.01,14.63c-4.07,9.75-8.09,18.99-15.12,26.63-4.79,5.21-10.11,9.62-16.21,13.15-.53.31-1.12.5-1.51-.03-.49-.66-1.29-1.31-.72-2.32.48-.85,1.09-1.57,1.99-1.99,7.45-3.53,12.95-9.32,18.12-15.53,3.84-4.62,7.05-9.61,9.6-15.05.81-1.73,1.65-3.61,3.84-4.84Z"/><path class="cls-1" d="M482.94,72.77c-4.67-.1-8.76-1.68-11.88-5.37-.78-.93-1.58-.81-2.54-.54-3.18.93-6.13.15-8.98-1.26-2.03-1.01-3.33-2.68-4.12-4.77-.2-.54-.24-1.08-.18-1.65.03-.26.14-.45.4-.52.24-.06.48-.03.63.2.18.26.34.54.51.8,2.39,3.75,6.35,5.35,10.65,4.31.69-.17,1.38-.4,2.08-.48,1.37-.15,2.58-.06,3.61,1.22,2.81,3.48,6.4,5.08,11.02,4.77,2.88-.19,5.66-.66,8.44-1.31,1.24-.29,2.41-.78,3.43-1.6.69-.56,1.56-1.02,2.32-.12.54.63.13,2.21-.66,2.74-.79.52-1.61.97-2.53,1.29-3.93,1.38-7.95,2.23-12.22,2.3Z"/><path class="cls-1" d="M79.94,171.94c-.34-2.88.31-5.29.49-7.74.28-3.74,1.13-7.4,1.84-11.06.71-3.68,2.16-7.11,4.17-10.32,2.33-3.71,4.6-7.46,6-11.66.17-.52.5-.99.83-1.44.43-.6,1.01-.73,1.68-.38.64.33,1.03.81.81,1.54-.34,1.14-.74,2.27-1.14,3.4-.1.29-.33.55-.14.91.73.15,1.04-.56,1.56-.83.53-.27.91-.13,1.27.25.4.42.4.88-.02,1.26-.76.68-1.4,1.43-2.47,1.8-1.75.59-3.14,1.7-4,3.5-1.07,2.21-2.68,4.13-3.67,6.41-1.08,2.47-2.3,4.88-2.57,7.62-.02.16-.04.32-.09.47-1.5,4.79-2.28,9.75-3.56,14.59-.15.55-.33,1.03-.98,1.7Z"/><path class="cls-1" d="M236.95,81.64c.1.12.21.24.29.38,1.84,2.82,1.83,3.05-.24,5.63,1.29,1.91,1.2,2.99-.4,4.56-.34.34-.71.65-1.07.96-.52.45-.69.82-.38,1.61,1.46,3.8.63,6.08-2.82,8.25-.44.28-.75.53-.71,1.1.17,2.66-.23,5.1-2.64,6.76-.29.2-.23.57-.25.88-.04.48-.03.97-.15,1.42-.41,1.51-1.46,2.34-2.46,2.01-1.72-.58-2.65-1.97-2.09-3.46.38-1.02.79-1.97.96-3.08.13-.81.7-1.94,2.03-1.28.87.43,1.11-.1,1.37-.75.29-.71.26-1.41.06-2.11-.3-1.04-.21-2.06.14-3.06.29-.81.81-1.26,1.77-1.26,2.4,0,3.46-1.79,2.4-3.96-.37-.76-1.22-1.33-.88-2.35.39-1.17,1.03-2.11,2.15-2.75.88-.51,1.84-1,.8-2.38-.76-1.02,0-1.9.89-2.6,1.75-1.38,1.73-1.39.63-3.43.11-.41-.1-.99.59-1.08Z"/><path class="cls-1" d="M469.62,5.88c-.1-2.06.34-3.69.51-5.36.03-.25.14-.48.39-.52.35-.05.6.15.76.46.23.44.19.91.19,1.4.03,5.15,1.65,9.8,4.38,14.12,2.3,3.64,4.64,7.23,8.12,9.91.42.32.62.92.93,1.38.87,1.28.82,1.66-.23,2.57-.88.76-1.59.75-2.47-.11-5.18-5-8.98-10.9-11.49-17.63-.79-2.12-1.08-4.33-1.07-6.22Z"/><path class="cls-1" d="M383.36,84.66c-.35.01-.62-.09-.76-.44-.16-.41.12-.63.4-.74,2.04-.83,2.78-2.82,3.78-4.46,4.2-6.86,7.78-14.04,10.71-21.53.4-1.03.84-2.07,1.37-3.04.33-.61.81-1.29,1.7-.88.91.42,1.74.98,1.37,2.18-.32,1.06-.53,2.15-1.03,3.16-2.81,5.6-5.64,11.19-8.95,16.53-1.81,2.91-4.06,5.47-6.33,8.01-.58.65-1.31,1.18-2.26,1.21Z"/><path class="cls-1" d="M421.7,68c-.06,1.43-.19,3.01-.47,4.58-.57,3.11-.77,6.28-1.5,9.36-1.05,4.39-1.92,8.83-3.35,13.12-.59,1.77-1.23,2.2-2.74,2.06-1.33-.12-1.91-.91-1.4-2.11,1.08-2.56,1.98-5.17,2.8-7.82,2.2-7.14,4.22-14.31,5.1-21.75.03-.24.08-.47.11-.71.07-.51.24-.99.84-.91.43.06.61.47.61.91,0,1.04,0,2.07,0,3.27Z"/><path class="cls-1" d="M468.56,111.47c-.06-.72,0-1.22.57-1.37.66-.18.79.38.92.83,1.54,5.36,3.42,10.6,5.4,15.8,1.2,3.17,2.35,6.4,4.54,9.1.45.55.82,1.19,1.09,1.85.37.87-.1,2.11-.88,2.49-.89.44-1.52,0-2.06-.68-.63-.82-1.29-1.6-1.76-2.55-2.5-5.01-4.16-10.29-5.36-15.74-.57-2.55-1.31-5.07-1.96-7.6-.2-.77-.37-1.55-.5-2.11Z"/><path class="cls-1" d="M444.84,118.83c-.28,6.5-.98,12.95-2.89,19.24-.42,1.37-.62,2.8-1.01,4.18-.28.99-.68,2.23-1.91,2.03-1.33-.22-1.09-1.54-1.08-2.57,0-.57.21-1.08.4-1.61,1.95-5.56,3.56-11.2,4.2-17.08.3-2.77.56-5.54.82-8.32.04-.39-.03-.8.03-1.19.06-.38.22-.81.69-.79.46.02.6.43.71.84.21.79.05,1.59.05,2.38,0,.96,0,1.91,0,2.89Z"/><path class="cls-1" d="M195.91,94.07c-.23,1.05-.24,2.33-.77,3.35-1.68,3.22-3.78,3.75-7.12,1.91-1.46-.8-2.42-2.26-3.11-3.83-.26-.58-.24-1.05.17-1.54,2.07-2.5,6.29-3.45,9.4-2.21,1.1.44,1.38,1.19,1.44,2.33Z"/><path class="cls-1" d="M185.05,81.19c.04-.83.02-1.55.13-2.25.11-.63.37-1.31,1.14-1.32.57,0,1.08.39,1.24.98.41,1.45.85,2.9,1.07,4.38.05.33-1.11.26-1.2,1.15-.09.93-.72,1.29-1.73,1.11-.95-.16-1.55-.79-2.2-1.36-2.06-1.79-1.97-1.65-4.23-.44-2.61,1.39-4.91,3.18-7.21,4.99-.81.64-1.43.68-2.04-.05-.6-.71-.19-1.36.34-1.9,2.76-2.8,5.95-5.01,9.51-6.67,1.15-.53,2.31-.39,3.37.36.5.35.81,1.01,1.81,1.01Z"/><path class="cls-1" d="M481.01,86.21c.06.64-.63.98-1.19,1.38-.78.55-1.49.28-2.18-.24-2.11-1.59-4.47-2.75-7.02-3.38-3.47-.85-6.98-1.53-10.55-.35-.42.14-1,.3-1.23-.3-.19-.49.12-.95.49-1.26.75-.61,1.64-1,2.58-1.19,4.55-.93,9.05-.56,13.34,1.11,1.59.62,3.12,1.5,4.69,2.23.85.39.78,1.11,1.06,2Z"/><path class="cls-1" d="M188.84,90.88c-2.86-1.64-5.42-.66-7.82.62-3.64,1.95-7.2,4.07-9.8,7.42-.19.25-.43.47-.68.67-.52.41-1.07.24-1.57-.03-.52-.27-.45-.78-.38-1.26.17-1.13.63-2.11,1.38-2.98,2.13-2.44,4.9-4.01,7.72-5.47,1.4-.72,2.84-1.43,4.43-1.72,2.27-.42,4.44-.36,6.34,1.2.42.34.61.7.38,1.54Z"/><path class="cls-1" d="M213,145.88c-.59.41-.56,1.14-.91,1.67-1.03,1.51-2.05,1.55-3.12.06-.23-.32-.33-.72-.7-.92-.67.74-.68,1.77-1.15,2.6-.25.44-.58.82-1.08.84-.63.02-.99-.44-1.18-1-.13-.37-.17-.78-.31-1.15-.23-.63-1.01-1.38-.42-1.89,1.02-.89.9,1.07,1.87.91.3-.73.55-1.55.96-2.29.6-1.09,1.66-1.51,2.54-.75.94.82,1.31.3,1.88-.27.62-.63,1.29-1.23,2.29-.95.72.2,1.01-.15,1.11-.82.11-.71.31-1.4.44-2.1.13-.71.24-1.42,1.16-1.83.61.52.79,1.26.84,2.03.13,1.76,0,3.51-.53,5.2-.57,1.85-1.17,2.03-2.96,1.08-.25-.13-.39-.47-.74-.42Z"/><path class="cls-1" d="M707.81,72.53c.14-1.44.49-3.12,1.38-4.67.63-1.08,1.52-1.78,2.7-1.5,1.17.28,2.3.71,2.75,2.24.69,2.35.33,4.38-1.12,6.26-.93,1.21-2.65,1.82-3.77,1.4-1.4-.52-1.99-1.55-1.94-3.73Z"/><path class="cls-1" d="M192.39,89.76c1.09-1.55,2.69-2.1,4.44-2.32,2.5-.31,4.9,0,7.21,1.03,3.19,1.44,6.32,2.99,9.14,5.1,1.15.87,1.88,1.92,1.6,3.52-.93.32-1.65-.11-2.32-.68-2.62-2.23-5.61-3.89-8.57-5.6-3.68-2.13-7.46-2.43-11.49-1.06Z"/><path class="cls-1" d="M196.86,82.03c-.38-.82-.37-1.45-.69-2.04-.47-.87.04-1.95.92-2.03,3.53-.34,7.09-1.06,10.54.48,2.37,1.06,4.35,2.61,5.96,4.65.42.53.72,1.1.2,1.71-.58.69-1.15.13-1.71-.09-1.15-.45-1.91-1.43-2.78-2.22-3.26-2.93-7.02-2.97-10.98-2.14-.81.17-1.15.75-1.45,1.69Z"/><path class="cls-1" d="M220.48,72.97c-1.43-.96-1.66-1.6-1.17-3.31.67-2.31,2.09-4.11,3.86-5.66,1.02-.89,2.16-1.63,2.91-2.8.62-.97,1.52-.81,2.3-.32.92.58.55,1.49.1,2.11-1.08,1.49-2.5,2.64-4.03,3.66-1.33.89-2.66,1.78-3.1,3.47,0,0,.08.05.08.05-.53.13-.56.6-.69.99-.57.53-.1,1.21-.26,1.81Z"/><path class="cls-1" d="M185.73,143.32c.44-.35.74-.61,1.06-.83,1.66-1.16,2.63-.97,3.74.74.25.38.3.82.76,1.14,2.26,1.6,2.43,2.54,1.03,5.18-.69-.15-.93-1.4-2.1-.77-.6.32-1.06-.81-1.13-1.51-.07-.7.18-1.4-.04-2.12-.16-.51-.05-1.19-.73-1.35-.54-.12-.82.37-1.14.72-.43.46-.84.96-1.32,1.36-.36.3-.85.48-1.32.16-.38-.27-.32-.69-.26-1.09.14-1.13.83-2.28-.19-3.35-.03-.03.1-.34.19-.36.21-.04.53-.08.65.04.52.5.61,1.23.82,2.04Z"/><path class="cls-1" d="M376.27,158.85c-.49-.28-.57-.68-.36-1.05.44-.74.87-1.48,1.26-2.26,1.5-3.06,3.09-6.08,4.73-9.07.41-.75,1.07-1.37,1.64-2.03.42-.49.97-.56,1.51-.24.67.4.7,1.03.4,1.66-.2.42-.48.82-.79,1.17-2.64,3-4.55,6.48-6.47,9.94-.37.66-.8,1.16-1.37,1.59-.17.13-.39.2-.55.28Z"/><path class="cls-1" d="M699.51,61.89c.21-3.98,2.78-6.11,5.87-7.83.76-.42,1.54-.37,2.13.4.54.72.59,1.46.08,2.21-.04.07-.1.13-.16.18-2.12,1.9-4.24,3.81-6.83,5.08-.28.14-.6.22-1.09-.04Z"/><path class="cls-1" d="M223.79,155.27c.66,2.27,1.05,4.48-.67,6.54-.29.35-.1,1.08-.17,1.63-.13,1.01-.55,1.86-1.56,2.23-1.09.41-2.04-.2-2.93-.65-.72-.36-.42-1.51.39-1.94.62-.33,1.25.25,1.85-.1.43-.61.01-1.23-.03-1.84-.14-2.26.34-2.68,2.6-2.17.24-.93.25-1.86.14-2.8.13-.3.26-.6.38-.91Z"/><path class="cls-1" d="M204.74,160.98c1.48-.64,1.78.97,2.79,1.49.61-1.57,1.49-2.73,3.4-1.91.39.17.56-.15.81-.31,1.16-.73,1.61-.52,1.67.76.05,1.03-.33,1.98-1.11,2.52-1.02.7-1.7-.46-2.52-.84-.5.33-.65.86-.88,1.35-.22.48-.27,1.18-1,1.18-.72,0-1.13-.54-1.44-1.12-.3-.56-.54-1.14-.81-1.71-.15-.57-1.25-.53-.92-1.42Z"/><path class="cls-1" d="M41.45,125.45c.76,3.2.44,6.48.63,9.72.07,1.19.15,2.37.22,3.56.04.65.04,1.28-.48,1.77-.24.23-.52.33-.86.18-.28-.12-.29-.37-.26-.59.37-2.5-.02-5.01.16-7.52.17-2.34-.13-4.72-.23-7.08.27-.01.54-.03.81-.04Z"/><path class="cls-1" d="M191.67,160c.32,1.17-.41,2.38.14,3.54,1.74-.19,1.99-.04,2.72,1.4.65,1.28.46,2.83,1.38,4.04.24.31.01.79-.41.98-.36.16-.6-.08-.79-.34-.38-.52-.7-1.05-.87-1.69-.22-.85-.51-1.67-.76-2.48-.4-.1-.64.11-.93.22-1.16.45-1.47.31-1.5-.87-.03-1.42-.23-2.88.36-4.26.22-.18.44-.37.66-.55Z"/><path class="cls-1" d="M213.7,120.87c.2,2.35-.7,4.43-1.24,6.57-.08.3-.18.61-.34.88-.37.6-.91,1.44-1.55,1.17-.96-.4-.17-1.25.02-1.85.95-3.01,2.23-5.94,1.79-9.22-.06-.44.22-.85.62-.88.42-.03.63.41.71.79.17.86.21,1.73-.01,2.53Z"/><path class="cls-1" d="M213.83,86.99c-1.22.75-2.22.18-3.15-.1-2.82-.87-5.65-1.67-8.62-1.84-.44-.03-.83-.15-.8-.65.02-.32.29-.62.64-.58,4.03.43,8.07.86,11.73,2.83.06.03.08.13.2.35Z"/><path class="cls-1" d="M216.8,116.13c-.77-3.66.2-7.53-1.64-11.18,1.79.93,2.02,1.06,2.43,3.43.45,2.58,1.22,5.26-.79,7.76Z"/><path class="cls-1" d="M225.16,117.82c-.44,1.97-1.47,4.17-3.26,5.97-.27.27-.65.47-1.01.62-.29.11-.64.08-.85-.23-.21-.3-.19-.66.07-.86,1.93-1.42,2.29-3.73,3.21-5.71.1-.21.1-.47.21-.68.26-.49.55-1.07,1.22-.84.53.18.51.74.4,1.73Z"/><path class="cls-1" d="M403.08,172.73c-.01,2-1.1,3.34-2.35,4.59-.22.22-.56.34-.87.18-.38-.19-.69-.55-.56-.96.49-1.58,1.01-3.16,1.61-4.7.26-.67.9-.49,1.45-.31.65.21.85.66.72,1.2Z"/><path class="cls-1" d="M10.69,103.55c-.57,3.47-.53,6.91.07,10.41-1.07-.65-1.25-.79-1.34-1.05-.71-1.96-.07-7.47,1.27-9.36Z"/><path class="cls-1" d="M176.95,118.38c-.59,4.11.84,7.63.84,11.43-1.43-.37-1.39-1.42-1.58-2.29-.61-2.76-.34-7.24.74-9.14Z"/><path class="cls-1" d="M169.57,107.63c-.9,3.72-.67,7.46-.09,11.25-1.44-.7-1.63-1.98-1.66-3.25-.06-2.68.22-5.34.92-7.94.28-.02.55-.04.83-.06Z"/><path class="cls-1" d="M434.19,172.68c.01-.49.04-1.03.61-1.15.43-.09.67.3.87.66.62,1.1,1.3,2.16,1.88,3.27.44.83.06,2.01-.69,2.15-.79.15-1.42-.42-1.65-1.05-.46-1.26-.7-2.59-1.03-3.89Z"/><path class="cls-1" d="M204.76,132.36c-.15-.93-.07-1.79.27-2.69.6-1.62,1.13-3.28,1.63-4.94.16-.52.35-.93.92-.8.61.13.26.6.2.95-.39,2.25-.98,4.44-1.95,6.52-.19.42-.34.88-1.07.96Z"/><path class="cls-1" d="M180.62,76.31c2.52-2.59,5.63-3.22,8.96-3.23.19,0,.46.19.55.36.09.19-.01.53-.29.52-3.14-.1-5.84,1.35-8.62,2.48-.11.04-.28-.06-.59-.14Z"/><path class="cls-1" d="M478.43,174.65c-.07.78-.03,1.6-.25,2.34-.21.69-.78,1.24-1.62,1.01-.7-.2-.59-.87-.55-1.4.1-1.26.35-2.49.77-3.69.16-.47.3-.96.92-.81.39.09.64.45.65.89.02.55,0,1.1,0,1.66.02,0,.05,0,.07,0Z"/><path class="cls-1" d="M223.79,155.27c-.13.3-.26.6-.38.91-.98-2.7-1.48-5.52-2.07-8.33,1.73,2.18,2.07,4.81,2.45,7.43Z"/><path class="cls-1" d="M45.25,133.16c.17,2.32.27,4.62-1.23,6.99-.58-2.45.63-4.43.53-6.51.23-.16.47-.33.7-.49Z"/><path class="cls-1" d="M170.95,120.49c.09-.24.17-.49.26-.73,0,0,.11.09.11.09l.11-.09c.61,2.24.65,4.65,2.02,6.69-2.22-.97-2.54-2.8-2.33-4.88.1-.38.05-.74-.17-1.07Z"/><path class="cls-1" d="M211.07,108.47c-1.26-2.14-2.35-4-3.39-5.77,2.5,1.2,3.79,3.15,3.39,5.77Z"/><path class="cls-1" d="M92.71,165.13c.07.36.31.57.66.65-1.65,1.47-3.61,2.3-5.92,2.93.49-1.52,2.02-1.07,2.7-1.9.67-.81,1.57-1.32,2.56-1.68Z"/><path class="cls-1" d="M236.95,81.64c-.69.09-.48.67-.59,1.08-1.26-1.45-2.36-3.04-3.89-4.23,0,0,.02.03.02.03.11-.36-.11-.85.28-1.07.27-.15.59-.02.79.3.94,1.46,2.54,2.34,3.38,3.89Z"/><path class="cls-1" d="M220.48,72.97c.16-.59-.31-1.27.26-1.81.38.06.72.02.96-.34.23-.34-.01-.5-.27-.66,0,0-.08-.05-.08-.05.07.49.35.62.77.4.45-.24.88-.53,1.32-.79,0,.61,1.74.37.72,1.48-1.59-.3-2.38.37-2.46,2.1-.17.11-.34.21-.52.32.02-.48-.28-.64-.7-.66Z"/><path class="cls-1" d="M45.25,133.16c-.23.16-.47.33-.7.49-.2-1.42-.94-2.8-.29-4.63.93,1.45.86,2.82.99,4.14Z"/><path class="cls-1" d="M169.57,107.63c-.28.02-.55.04-.83.06.12-1.57.61-2.98,1.92-4.08-.36,1.34-.73,2.68-1.09,4.02Z"/><path class="cls-1" d="M41.45,125.45c-.27.01-.54.03-.81.04-.24-1.53-1.01-3.01-.38-4.86,1.08,1.58.68,3.33,1.19,4.82Z"/><path class="cls-1" d="M204.74,160.98c-.34.89.76.85.92,1.42-1.25.39-.73,1.57-1.05,2.38-.09.23-.17.44-.41.47-.44.06-.57-.32-.54-.59.17-1.28.18-2.62,1.08-3.68Z"/><path class="cls-1" d="M192.77,104.86c-.05.33-.11.65-.16.98-1.52-.78-1.19-2.22-1.05-3.63.4.88.81,1.77,1.21,2.65Z"/><path class="cls-1" d="M191.67,160c-.22.18-.44.37-.66.55-.14-1.4.21-2.58,1.64-3.57-.02,1.28-.73,2.08-.98,3.02Z"/><path class="cls-1" d="M189.24,105.32c-.27-.01-.55-.02-.82-.03.46-1.23.47-2.65,1.67-3.7-.08,1.37-.31,2.58-.85,3.73Z"/><path class="cls-1" d="M171.43,119.75l-.11.09s-.11-.09-.11-.09c-.16-.85-.38-1.73.25-2.48.53-.63.23-1.36.36-1.95-.03,1.43.02,2.95-.38,4.43Z"/><path class="cls-1" d="M213.76,72.07c.13.59.65.45,1.03.55-.91.71-.1,1.84-.65,2.62-1.1-.97-1.13-1.26-.38-3.18Z"/><path class="cls-1" d="M405.87,25.59c.18.34.52.32.83.38-.88.59-1.8,1.06-2.96.98.5-.89,1.22-1.27,2.13-1.36Z"/><path class="cls-1" d="M170.95,120.49c.22.33.27.69.17,1.07-.23-.33-.52-.65-.17-1.07Z"/><path class="cls-1" d="M169.33,101.89s-.07-.05-.11-.08c0,.13.04.13.1-.02,0,0,0,.1,0,.1Z"/><path class="cls-1" d="M188.85,106.68c-.07-.24-.07-.45.22-.54.09.25,0,.42-.22.54Z"/><path class="cls-1" d="M568.28,131.74c-.19-.81-.47-1.64.4-2.33.38.64.16,1.26.26,1.85-.25.12-.29.52-.66.49Z"/><path class="cls-1" d="M710.41,102.39c-.25-.05-.51-.11-.76-.16.52-.59,1.36-.3,1.96-.69.08-.05.27.07.48.14-.28.94-1,.77-1.67.71Z"/><path class="cls-1" d="M640.43,60.96c.07-.54.44-.82.87-1.15.3.72-.23,1.07-.4,1.52-.16-.12-.31-.25-.47-.37Z"/><path class="cls-1" d="M587.72,145.97l.33-.02c-.03.05-.05.13-.09.15-.16.07-.25,0-.26-.2,0,0,.02.07.02.07Z"/><path class="cls-1" d="M154.28,61.07c.08-.1.15-.19.23-.29.18.18.17.36.01.55-.08-.08-.16-.17-.24-.26Z"/><path class="cls-1" d="M166.11,105.61c-.17.15-.46.45-.5.42-.37-.28-.2-.65-.07-1,.19.19.38.39.58.58Z"/><path class="cls-1" d="M163.6,100.63c.19-.18.3-.68.64-.39.23.2.09.59-.26.76-.13-.12-.25-.25-.38-.37Z"/><path class="cls-1" d="M159.82,92.11c-.17.1-.37.23-.54.04-.16-.18-.06-.38.09-.54.15.17.3.33.45.5Z"/><path class="cls-1" d="M555.69,50.92c.25.11.38.34.23.55-.18.25-.38,0-.55-.1l.32-.45Z"/><path class="cls-1" d="M221.69,73.31c.08-1.73.87-2.41,2.46-2.1-.52.74-.26,1.56-.25,2.36h0c-.76.15-1.43-.53-2.21-.26Z"/><path class="cls-1" d="M223.9,73.57c.75-.22,1.46-.1,1.82.62.4.79-.33,1.18-.74,1.89-.71-.89-1.07-1.62-1.08-2.51h0Z"/><path class="cls-1" d="M236.8,172.53c-.2-.07-.42-.18-.26-.41.14-.2.38-.08.56.02-.1.13-.2.26-.3.39Z"/><path class="cls-1" d="M171.86,169.01c-.22.19-.47.61-.71.4-.36-.31,0-.68.19-1,.18.2.35.4.53.6Z"/><path class="cls-1" d="M221.42,70.17c.25.15.49.31.27.66-.23.35-.58.39-.96.34.13-.4.16-.87.69-.99Z"/><path class="cls-1" d="M541.87,130.23c1-.14,1.75.08,2.46.48,1.18.67,1.61,1.86.97,3.02-.45.82-1.03,1.58-1.6,2.33-1.18,1.54-1,2.42.69,3.29.42.22.83.47,1.19.77.55.47,1.23,1.04.59,1.79-.56.66-1.37.46-1.87-.16-.47-.58-1.17-.85-1.61-1.4-.49-.61-.88-.46-1.37-.04-.73.62-1.47,1.23-2.24,1.8-.34.25-.81.26-1.13,0-.33-.26-.28-.71-.23-1.12.07-.53.4-.85.77-1.17.48-.42.99-.81,1.45-1.25,1.44-1.38,1.43-1.38.08-2.84-.11-.12-.19-.26-.28-.38-.88-1.14-1.96-2.23-1.28-3.85.7-1.66,2.35-.97,3.4-1.29Z"/><path class="cls-1" d="M533.38,123.47c.04,1.01-.72,2.22-1.6,2.43-.97.23-1.69-.09-2.09-1.07-.14-.36-.48-.63-.67-.98-.33-.62-1.16-1.16-.89-1.85.25-.64,1.27-.77,1.55-1.56.04-.1.25-.19.4-.2.99-.09,3.26,2.14,3.3,3.24Z"/><path class="cls-1" d="M554.99,122.03c.63.44.36,1.22.99,1.47.12.05.26.21.29.35.2.89-2,3.75-2.93,3.83-.61.05-1.05-.16-1.36-.72-.88-1.61-.23-3.48,1.48-4.21.49-.21.98-.45,1.53-.71Z"/><path class="cls-1" d="M105.71,46.21c1.94.65,4.25.27,6.33,1.3,2.01.99,2.59,2.06,2.08,4.17-.46,1.87-1.4,3.36-3.16,4.27-1.61.84-2.83,2.28-4.64,2.88-1.28.42-2.35.3-3.39-.39-2.03-1.36-3.55-3.19-4.67-5.33-.92-1.75-.19-4.19,1.6-5.19,1.74-.97,3.65-1.53,5.85-1.71Z"/><path class="cls-1" d="M130.38,39.27c.02.73,0,1.47-.57,2-.64.59-1.31,1.19-2.32.85-.97-.33-.96-1.18-1.06-1.95-.05-.38.03-.79.1-1.18.28-1.58,1.02-2.29,2.28-2.23.99.05,1.53.91,1.57,2.52Z"/><path class="cls-1" d="M105.24,36.31c-.08-.75.25-1.46.83-2.06.7-.74,1.53-1.28,2.54-.71,1.03.59.82,1.65.58,2.55-.31,1.18-1.42,1.71-2.39,2.17-.77.37-1.57-.65-1.56-1.95Z"/><path class="cls-1" d="M114.04,38.77c2.09-.24,4.12.07,6.11.68.61.18,1.06.51.79,1.18-.21.53-.84.58-1.23.35-2.06-1.22-4.45-.99-6.65-1.54.04-.13.04-.26,0-.38.09-.09.2-.14.34-.14.25.12.47.08.64-.14Z"/><path class="cls-1" d="M113.06,39.05c.04.13.04.26,0,.38-.6-.24-1.18.48-1.88,0,.52-.89,1.33-.06,1.88-.38Z"/><path class="cls-1" d="M114.04,38.77c-.17.23-.39.27-.64.14.17-.25.38-.32.64-.14Z"/><path class="cls-1" d="M268.93,92.44c-.45,5.88-.7,11.78-.42,17.66.27,5.63.31,11.38,2.4,16.72,2.46,6.28,6.78,10.62,13.41,12.94,9.18,3.22,18.39,2.7,27.62,1.11,5.17-.89,9.27-4.14,12.97-7.72,4.32-4.18,6.86-9.42,9.02-14.99,2.89-7.44,3.07-15.11,2.49-22.81-.24-3.22-.44-6.51-1.11-9.71-.07-.31-.09-.64-.08-.95.02-.51-.34-1.32.29-1.45.71-.15.95.66,1.11,1.27.33,1.3.84,2.61.9,3.93.18,4.22,1.05,8.36,1.15,12.61.07,2.89-.39,5.71-.41,8.56,0,.46-.16.87.07,1.35.86,1.79,1.55,3.67,2.75,5.29,2.23,2.97,5.19,3.59,8.36,1.64,4.39-2.71,7.47-6.48,8.63-11.56,1.48-6.48.76-12.75-1.93-18.88-1.83-4.18-3.92-8.21-6.68-11.79-3.55-4.59-7.18-9.22-12.93-11.35-2.56-.95-5.28-1.33-7.95-1.43-7.29-.28-13.82,1.79-19.21,6.91-.28.27-.6.54-.95.7-.27.13-.64.14-.9-.11-.3-.3,0-.58.1-.85.85-2.05,2.71-3.1,4.4-4.27,5.21-3.58,11.04-4.8,17.28-4.38,3.51.24,6.91.69,10.14,2.31,2.4,1.2,4.47,2.77,6.34,4.6,4.53,4.43,8.21,9.49,10.94,15.24,1.16,2.44,2.32,4.85,3.23,7.41.55,1.54.76,3.11.93,4.66.33,3,.7,6.03.2,9.05-1.17,7.07-4.58,12.63-11.01,16.06-1.86.99-3.95,1.26-6.05,1.08-2.65-.23-3.99-2.32-5.56-4.07-.21-.23-.31-.55-.49-.82-.22-.33-.5-.93-.68-.91-.49.07-.55.66-.68,1.07-1.09,3.5-2.46,6.87-4.2,10.1-2.27,4.22-5.37,7.69-9.11,10.61-1.26.98-1.8,1.79-1.24,3.56.54,1.68,1,2.64,2.96,2.87,1.43.17,2.8,1.11,4.13,1.82,9.25,4.94,16.68,11.88,22.5,20.58.6.9,1.43,1.9.52,2.96-.6.69-1.69,0-2.73-1.62-4.05-6.29-9.08-11.63-15.26-15.88-2.75-1.89-5.44-3.86-8.38-5.46-1.69-.92-3.13-1.23-5.09-.28-4.09,1.98-8.46,3.3-12.89,4.31-.88.2-1.06.37-.59,1.15.43.7.39,1.53.42,2.33.12,3.47-2.48,5.6-5.92,4.82-2.9-.66-4.21-2.93-3.28-5.72.51-1.51.5-1.56-1.16-1.51-3.84.1-7.65-.08-11.37-1.12-.29-.08-.53-.28-.88-.15-4.93,1.83-9.75,3.88-14.14,6.83-3.56,2.4-7.24,4.62-10.52,7.41-.36.31-.81.64-1.25.15-.43-.48,0-.96.26-1.28,1.65-1.98,3.66-3.6,5.73-5.06,3.3-2.33,6.63-4.67,10.22-6.56,2.05-1.08,4.12-2.08,6.36-2.67.93-.24,1.35-.55,1.1-1.65-.27-1.16-.05-2.39.2-3.57.4-1.95.44-2-1.37-2.73-3.55-1.42-6.61-3.48-8.9-6.59-3.15-4.28-4.65-9.16-5.3-14.37-.75-6.03-.65-12.09-.77-18.14-.09-4.77.25-9.55.4-14.32,0-.24-.05-.52.05-.71.33-.62-.08-1.87,1.13-1.73,1,.11.66,1.1.67,1.75.03,1.92.01,3.83.01,5.75ZM296.8,149.24c7.56.3,14.61-1.87,21.56-4.49,2.42-.91,2.37-.93,1.95-3.4-.18-1.05-.42-1.37-1.51-.83-2.07,1.01-4.13,2.12-6.45,2.47-8.47,1.27-16.94,1.98-25.37-.3-.48-.13-1.01-.32-1.29.18-.67,1.19-1.13,2.52-.84,3.87.22,1.06,1.3,1.28,2.24,1.51,3.2.77,6.46.99,9.72,1ZM305.78,153.96c.03-1.1-.42-3.03-1.39-3.19-3.02-.21-4.51.68-4.54,2.74-.03,1.94.97,3.08,2.76,3.14,1.99.07,3.13-.9,3.17-2.69Z"/><path class="cls-1" d="M243.59,103.56c-.02,4.06.67,8.16,2.24,12.15,1.35,3.42,5.26,6.31,8.9,6.07,2.45-.17,4.24-1.64,5.78-3.45.51-.61,1.02-1.23,1.6-1.76.41-.37.97-.17,1.33.1.34.26.23.75.02,1.1-3.43,5.74-8.7,8.74-15.33,4.43-3.99-2.59-5.38-6.66-6.12-10.92-1.56-9.06-.41-17.88,2.81-26.51,1.42-3.82,2.78-7.62,5.24-10.93,2.28-3.07,4.47-6.23,7.24-8.89,3.23-3.11,7.19-4.92,11.52-6.04,5.44-1.4,10.65-.38,15.58,1.81,3.7,1.65,6.62,4.38,8,8.4.05.15.13.29.18.45.26.83.65,2.11,0,2.4-.92.41-1.01-.93-1.34-1.56-2.98-5.73-7.99-8.51-14.11-9.45-7.41-1.15-13.71,1.26-18.98,6.48-3.99,3.95-7.41,8.37-9.63,13.55-2.5,5.85-4.51,11.87-4.73,18.33-.04,1.35-.52,2.67-.22,4.23Z"/><path class="cls-1" d="M296.64,71.99c.07.41.4,1-.21,1.21-.44.15-.67-.38-.81-.73-1.77-4.25-3.68-8.44-5.25-12.77-.28-.77-.25-1.46.36-1.95.58-.47,1.21-.11,1.76.24,1.34.85,2.68,1.7,3.76,2.91.27.31.52.96,1.08.75.58-.22.26-.82.27-1.25.05-2.16,0-4.32.28-6.46.07-.55.16-1.12.34-1.64.23-.64.31-1.51,1.27-1.51.8,0,1.29.54,1.64,1.2.76,1.42,1.24,2.95,1.41,4.53.13,1.19.43,2.33.7,3.49.09.37.02.94.4,1.02.4.09.61-.38.79-.76.73-1.54,1.96-2.7,3.03-3.98.99-1.19,2.32-1.93,3.56-2.8.43-.3.89-.46,1.3-.1.41.36.34.89.15,1.34-.45,1.01-1.24,1.81-1.7,2.85-1.94,4.39-3.3,8.95-4.38,13.61-.09.38-.05.81-.33,1.12-.15.17-.38.38-.57.37-.18-.01-.43-.26-.48-.46-.28-1.02-.21-2.05-.03-3.09.5-2.9,1.16-5.76,2.29-8.49.11-.26.14-.79-.01-.89-.48-.34-.68.23-.83.49-1.17,2.06-2.66,3.98-3.01,6.43-.05.38-.22.79-.46,1.08-.41.48-.87.4-1.03-.23-.26-1.03-.13-2.09.26-3.05.25-.63.45-1.18.11-1.81-1.02-1.85-1.89-6.34-1.99-6.54-.12.19-.6,2.13-.72,2.91-.2,1.34,0,2.71-.41,4.04-.26.87.05,1.66.43,2.5.64,1.43,1.41,2.86,1.49,4.5.03.66.09,1.39-.75,1.5-.74.1-.84-.65-.99-1.15-.76-2.63-1.86-5.06-3.74-7.13-.69-.76-2.1-2.23-2.1-2.23"/><path class="cls-1" d="M306.07,80.58c-.58-.07-1.46-.13-2.31-.31-1.01-.22-1.73-.07-2.52.78-1.6,1.72-3.16,1.69-4.62-.15-.69-.87-1.07-.77-1.9-.37-1.21.58-2.46,1.13-3.88,1.08-2.19-.07-4.12-1.41-4.29-3.07-.19-1.86,1.31-3.68,3.46-4.26,2.37-.63,4.6-.53,6.45,1.27.66.64,1.2.52,1.88.19.58-.28,1.34-.61,1.83-.2,1.32,1.12,2.26.38,3.41-.32,1.93-1.17,4.07-1.81,6.37-1.74,2.02.06,3.34.95,3.65,2.43.33,1.58-.59,2.93-2.56,3.77-1.49.63-3.06.86-4.97.9ZM292.88,75.69c-.5-.06-1-.04-1.49.03-.45.07-.95.15-1.4.34-.95.4-2.03,1.02-1.8,2.23.23,1.22,1.33,1.74,2.53,1.78,1.29.05,2.51-.42,3.57-1.09.71-.45,2.04-.89,1.9-1.56-.2-.95-1.4-1.41-2.46-1.61-.27-.05-.54-.08-.85-.12ZM306.21,78.53c3.35-.42,2.96-.61,4.51-.83.67-.09.94-.59.95-1.17.02-.73-.58-.8-1.14-.94-3.04-.77-5.54.54-7.99,2.04-.12.07-.25.25-.24.37.03.28.29.29.51.29,1.11,0,1.78.26,3.39.24ZM298.62,80.67c1.29,0,2.01-.79,2.04-1.87.03-1.05-.79-2.09-1.56-2-.78.09-1.59,1.33-1.55,2.37.03.91.43,1.48,1.08,1.5Z"/><path class="cls-1" d="M309.8,123.85c-.67,1.36-.19,2.24,1.23,2.83.5.21.81.81.4,1.42-.38.56-.83.21-1.26.02-4.56-2-8.67-1.46-12.29,2.1-.68.67-1.4.71-1.38-.43.02-.82-.51-1.1-.9-1.55-.83-.96-1.44-2.01-.77-3.25.64-1.19,1.9-1.61,3.09-1.36,1.34.29,1.79.08,1.73-1.33-.04-1,.41-1.88,1.49-2.22.96-.3,1.71.13,2.36.79.28.28.62.54.81.88.4.73.81.64,1.27.1.21-.24.34-.55.57-.77,1.48-1.45,2.98-1.02,3.47,1.03.13.54.13,1.1.19,1.74ZM302.04,121.95c-.41-.09-.57.09-.6.33-.12.95-.02,1.89.3,2.78.16.46,1.74.52,2.04.11.3-.42-.07-.73-.21-1.07-.37-.86-.73-1.75-1.53-2.16ZM299.41,126.49c-.07-.47-1.62-1.35-2.16-1.18-.42.13-1.04.31-.81.91.27.72.7,1.52,1.64,1.42.62-.06,1.12-.52,1.34-1.14ZM308.31,124.21c-.16-.72,0-1.87-.74-1.88-.96-.02-1.26,1.06-1.36,1.97-.12,1.04.68.85,1.27.92.86.11.89-.43.84-1.01Z"/><path class="cls-1" d="M295.18,91.16c-.42-1.18-.07-1.93.08-2.71.1-.5.32-.96.87-.91.5.05.82.48.93.98.07.3.05.64.03.95-.6,9.72-2.42,19.22-5.35,28.5-.86,2.73-1.47,5.54-2.92,8.05-.37.65-.65,1.83-1.55,1.4-.87-.41-.22-1.47.07-2.13,1.59-3.58,2.27-7.44,3.47-11.13,1.35-4.16,2.48-8.39,3.15-12.71.54-3.53.84-7.09,1.21-10.29Z"/><path class="cls-1" d="M300.05,93.27c0-.52,0-.6,0-.68.02-.64-.07-1.39.86-1.41.86-.02,1,.68,1.05,1.33.22,2.8,1.08,5.45,1.98,8.08,1.32,3.85,2.93,7.6,5.11,11.02,1.58,2.47,3.66,4.61,5.76,6.68.28.28.75.64.54.97-.32.5-.85.14-1.26-.06-1.19-.57-1.94-1.63-2.86-2.51-3.96-3.79-6.16-8.64-8.25-13.56-1.12-2.64-1.79-5.43-2.6-8.17-.2-.68-.27-1.4-.33-1.68Z"/><path class="cls-1" d="M318.84,97.41c-.02-.7-.11-1.55-.32-2.41-.14-.57-.21-1.38.7-1.5.76-.1.85.55.94,1.11.4,2.61.61,5.22-.89,7.6-.49.78-.35,1.28.29,1.84.35.31.65.69.92,1.08.25.36.24.75-.14,1.05-.36.29-.72.28-1.05-.06-.28-.28-.62-.53-.82-.87-.34-.57-.75-.8-1.38-.51-.49.22-.95.34-.92,1.13.02.61.14,1.73-.62,1.79-.78.06-.85-.97-.99-1.67-.11-.51.05-1.21-.67-1.39-.72-.18-.9.49-1.24.9-.2.24-.39.52-.64.7-.16.12-.45.2-.62.13-.24-.1-.27-.45-.13-.62,1.32-1.69.39-2.96-.65-4.35-1.28-1.72-1.16-3.73-.72-5.72.05-.21.25-.5.42-.54.43-.09.43.33.48.6.14.78.27,1.56.38,2.35.28,1.9,1.15,3.46,2.74,4.56,1.6,1.1,2.63.83,3.79-.74.96-1.3,1.06-2.78,1.15-4.46Z"/><path class="cls-1" d="M287.05,99.07c.28-.73-.59-2.18.52-2.21,1.34-.04.7,1.38.75,2.26.12,2.2-.12,4.31-1.46,6.13-.64.87-.2,1.4.31,2.05.21.26.57.68.11,1.01-.32.23-.75.22-1.1-.07-.18-.15-.36-.32-.57-.43-1.25-.68-1.46-.58-1.82.92-.07.31-.08.65-.22.92-.18.33-.46.73-.81.11-.08-.14-.13-.3-.23-.42-.39-.47.1-1.49-.77-1.55-.54-.04-.77.71-1.11,1.13-.25.32-.51.7-.95.48-.51-.25-.56-.7-.32-1.21.52-1.1.31-2.04-.35-3.08-1.01-1.6-1.04-3.48-.99-5.32,0-.21.1-.55.23-.6.4-.14.52.2.62.51.43,1.36.55,2.81,1.16,4.13,1.33,2.89,3.74,3.1,5.62.48,1.12-1.55,1.6-3.27,1.39-5.21Z"/><path class="cls-1" d="M299.76,112.15c-.83,0-1.38.02-1.9-.22-1.08-.49-1.53-1.79-.95-2.77.96-1.6,4.3-2.11,5.75-.87,1.43,1.21,1.16,2.84-.61,3.45-.81.28-1.65.59-2.28.42Z"/></svg>