<?xml version="1.0" encoding="UTF-8"?><svg id="Layer_1" xmlns="http://www.w3.org/2000/svg" viewBox="0 0 221.12 187.61"><defs><style>.cls-1{fill:#053228;}</style></defs><path class="cls-1" d="M83.72,69.39c-5.39,2.79-11.14,4.34-16.52,7.01.5.62.88,1.38,1.59,1.92.5.38.63.94.31,1.48-.31.52-.75.75-1.4.39-1.51-.83-2.66-2.07-3.81-3.3-1.44-1.53-3.22-2.61-4.83-3.91-1.94-1.56-4.17-2.77-6.1-4.34-1.43-1.17-2.81-2.42-4.26-3.57-2.84-2.24-5.03-5.16-7.86-7.41-1.23-.98-2.32-2.18-3.12-3.56-.38-.66-1.07-.9-1.56-1.41-2.2-2.29-4.52-4.48-7.15-6.25-1.23-.82-2.58-1.62-4.16-1.86-.8-.12-1.55-.58-2.34-.8-2.26-.64-4.57-.58-6.81-.02-1.12.28-2.13,1-3.16,1.57-2.96,1.64-4.92,4.15-6.27,7.21-.84,1.92-1.64,3.85-2.03,5.9-.54,2.88-.93,5.79-.64,8.74.06.59.03,1.2.03,1.8,0,4.34.19,8.67,1.22,12.9.52,2.13,1.38,4.16,2.22,6.19,1.04,2.52,1.96,5.09,3.07,7.58.84,1.89,1.83,3.73,2.86,5.53.98,1.7.84,3.44.55,5.25-.5,3.14-.53,6.22.77,9.27.61,1.42,1.09,2.92,1.69,4.36.69,1.68,1.64,3.22,2.36,4.87.2.45.71.8.51,1.39-.06.18-.02.32.19.31.97-.04,1.73.52,2.55.88.54.24.67-.11.85-.5.82-1.73,2.16-3.1,3.95-3.55,2.02-.51,4.15-.49,6.16.42,1.75.79,3.03,2.06,3.96,3.72.23.42.41.58.91.31,2.47-1.34,4.5-.04,6.44,1.25,1.18.78,2.22,1.8,3.33,2.7,1.86,1.5,2.94,3.55,3.4,5.89.78,3.86,1.09,7.76.52,11.68-.26,1.81-1.18,3.42-1.77,5.13-.13.37-.24.66,0,.99,2.9,3.9,4.38,8.52,6.35,12.87,1.63,3.6,3.37,7.2,4.33,11.07.27,1.07.48,2.15.67,3.23.13.72-.24,1.31-.92,1.44-.72.14-1.02-.44-1.16-1.07-.8-3.56-2.3-6.84-3.83-10.13-.84-1.82-1.7-3.68-2.22-5.67-.35-1.33-1.44-2.4-1.98-3.72-.99-2.42-2.18-4.74-3.77-6.85-.59-.79-.61-1.94-.01-2.8,2.69-3.81,2.57-8.08,2.21-12.42-.09-1.11-.38-2.18-.54-3.27-.46-3.19-2.78-4.91-5.14-6.57-.86-.6-1.6-1.33-2.66-1.73-1.12-.42-1.97-.22-2.87.35-1.42.9-2.27.71-2.95-.77-1.51-3.29-3.9-4.02-7.01-3.98-.8.01-1.62.56-2.11,1.22-.64.84-1.6,1.47-1.57,2.81.02,1.06-.89,1.47-1.93,1.09-.59-.21-1.18-.44-1.73-.73-2.73-1.44-7-.53-8.71,2-1.86,2.75-3.47,5.63-3.16,9.15.06.71.14,1.41.28,2.11.35,1.79-.35,2.68-2.22,2.66-1.24-.02-2.2.27-3.1,1.27-1.53,1.67-1.18,3.36-.53,5.16,1.01,2.8,2.47,5.38,4.21,7.77,1.37,1.88,2.81,3.73,5.29,4.33,1.03.25,1.43,1.13,1.09,2.12-.89,2.59-1.35,5.27-1.91,7.93-.4,1.89-.76,3.78-1,5.7-.11.85-.22,1.93-1.12,2.54-.41-.28-.33-.64-.32-.93.21-4.49.56-8.97,1.66-13.35.12-.46,0-.96.23-1.41.2-.37-.14-.55-.39-.59-1.76-.28-2.8-1.55-3.86-2.78-1.8-2.07-3.57-4.19-4.69-6.72-1.07-2.42-2.43-4.78-2.27-7.58.19-3.45,2.6-5.87,6.08-6.1.11,0,.22-.06.35-.1-.36-2.35-.66-4.71.32-6.94,1.33-3.03,2.3-6.34,5.46-8.14,1.44-.82,2.94-1.5,4.87-1.37-1.84-2.05-3.1-4.28-4.04-6.61-1.15-2.87-2.24-5.77-2.36-8.99-.08-2.3.54-4.44.69-6.68.07-1.05-.17-1.91-.65-2.71-2.51-4.2-4.24-8.75-6.14-13.22-.81-1.93-1.59-3.89-2.09-5.92-.53-2.17-.73-4.43-1.04-6.66-.49-3.56-.34-7.16-.33-10.72.01-3.25.14-6.54,1.36-9.71.86-2.23,1.63-4.5,2.68-6.66,1.28-2.61,3.37-4.37,5.88-5.79,1.95-1.1,3.93-2,6.14-2.34,2.31-.36,4.58-.13,6.76.72.98.39,2.01.59,3,1.02,2.81,1.22,5.24,2.9,7.42,5.05,2.71,2.66,5.04,5.68,7.73,8.33,1.47,1.45,2.9,2.95,4.42,4.36,2.5,2.32,5.2,4.4,7.84,6.54,1.51,1.23,3.09,2.43,4.89,3.32,1.76.87,3.1,2.38,4.6,3.64.9.76,1.95,1.37,2.73,2.44.73-1.54,2.18-2.12,3.46-2.79,2.41-1.27,4.9-2.39,7.4-3.48,1.6-.7,3.27-1.3,5.01-1.52,1.13-.14.99-.87.76-1.48-.65-1.66-.82-3.44-1.29-5.14-.5-1.85-.81-3.74-1.1-5.65-.33-2.21-.82-4.41-1.16-6.62-.16-1.08-.58-2.13-.32-3.32.13-.59-.34-1.35-.46-2.09-.39-2.51-.55-5.06-.48-7.55.08-2.62.05-5.27.44-7.91.24-1.66.56-3.37.71-5.08.18-2.02.72-4.12,1.54-6.07,1.3-3.1,2.75-6.13,4.66-8.89.93-1.35,2.13-2.54,3.3-3.74,1.96-2,4.51-2.78,6.94-3.66,1.9-.69,4-1.2,6.14-1.08,3.85.22,6.97,1.91,9.88,4.35,1.62,1.37,3.37,2.62,5.02,3.96,2.59,2.1,4.17,4.69,4.4,8.11.14,2.12.16,4.28.46,6.34.43,3.02.52,6.25,2.22,8.94,1,1.58,2.45,2.87,4.01,3.97,1.58,1.11,3.14,2.25,4.6,3.52.96.83,2,1.57,2.76,2.59,1.22,1.61,2.46,3.2,3.57,4.89,1.34,2.02,2.52,4.16,3.45,6.35,1.33,3.15,2.88,6.22,3.22,9.78.25,2.62.72,5.21.66,7.87-.05,2.46-.6,4.82-1.12,7.18-.15.68,0,.87.61,1.21,1.68.95,3.04,2.3,4.34,3.76,3.38,3.83,5.73,8.3,8.1,12.75,2.69,5.06,4.95,10.31,6.52,15.84.93,3.28,1.86,6.57,2.73,9.87.44,1.66.75,3.35,1.1,5.03.06.28.14.53.43.77.33-2.2.63-4.38,2.24-6.05,2.16-2.24,4.29-4.54,6.92-6.22,2.24-1.44,4.76-1.71,7.39-1.18,1.31.27,2.64.29,3.85,1.01.87.51,1.44,1.29,2.13,1.96.42.4.7.57,1.13.04,1.59-1.93,3.81-2.4,6.14-2.71,2.55-.34,4.93.26,7.17,1.31,1.45.68,2.58,1.95,3.5,3.28,1.49,2.14,2.04,4.65,2.5,7.15.07.4-.07,1.02-.25,1.48-.41,1.08.26,1.2,1.04,1.45,2.52.78,4.8,1.89,6.35,4.25,2.53,3.86,2.26,7.85.76,11.89-1.05,2.84-2.68,5.41-4.45,7.85-1.18,1.62-2.73,2.93-4.59,3.74-.62.27-.49.5-.42.91.21,1.11.92,1.99,1.34,3,1.46,3.45,2.25,7.06,2.99,10.72.47,2.32.93,4.63,1.24,6.97.19,1.48.12,2.94-.12,4.4-.04.27.02.62-.37.62-.38,0-.35-.36-.38-.63-.22-1.93-.4-3.88-.96-5.74-1.01-3.38-1.6-6.86-2.67-10.25-1.05-3.31-2.61-6.33-4.06-9.42-.56-1.21,0-2.65,1.34-2.83,2.01-.27,3.19-1.45,4.41-2.95,2.09-2.57,3.57-5.49,4.65-8.5.81-2.26,1.02-4.84-.6-7.22-1.33-1.96-2.91-3.41-5.12-4.24-.68-.25-1.33-.16-2-.2-1.49-.08-2.12-1.17-1.42-2.45.72-1.32.87-2.67.41-4.15-.56-1.8-1.25-3.47-2.48-4.94-1.46-1.74-3.31-2.61-5.47-2.84-1.4-.15-2.82-.28-4.22.2-1,.35-1.94.73-2.56,1.65-.26.4-.58.77-.91,1.11-.94.97-2.35.89-3.05-.29-1.23-2.08-3.05-3.04-5.39-3.18-.82-.05-1.65-.24-2.46-.18-1.86.14-3.36,1.02-4.8,2.25-1.86,1.58-3.77,3.1-5.2,5.07-1.22,1.68-1.79,3.5-.59,5.58,1.11,1.91.61,2.47-1.59,2.96-1.87.41-3.31,1.53-4.32,3.33-1.31,2.34-1.61,4.91-2.13,7.44-.19.92.19,1.81.82,2.38,2.34,2.13,4.65,4.32,7.43,5.92,1,.58,1.2,1.61.36,3.12-.96,1.72-1.52,3.61-2.51,5.32-.6,1.04-.57,2.36-1.14,3.47-.76,1.46-1.26,3.03-1.6,4.64-.89,4.28-2.36,8.46-2.27,12.91,0,.36-.06.69-.22,1.03-.24.52-.6,1.14-1.15.97-.55-.17-.29-.89-.28-1.4.04-1.45-.05-2.88.15-4.34.3-2.23.69-4.42,1.28-6.6.49-1.8.71-3.69,1.36-5.47.71-1.91,1.27-3.88,1.98-5.79.68-1.84,1.44-3.64,2.23-5.43.23-.52.04-.78-.32-.98-2.63-1.48-4.65-3.7-6.92-5.62-1.02-.86-1.53-2.34-1.42-3.63.27-3.3.91-6.56,2.48-9.53.88-1.67,2.37-2.78,4.07-3.73-2.1-1.8-2.26-4.43-3.01-6.81-.65-2.09-1.09-4.23-1.76-6.33-.69-2.12-1.13-4.35-1.88-6.46-1.14-3.21-2.42-6.38-3.85-9.49-1.13-2.47-2.46-4.82-3.88-7.1-1.4-2.25-2.68-4.6-4.48-6.63-1.03-1.16-1.98-2.44-3.11-3.48-1-.93-2.05-1.99-3.62-2.11-.82-.06-1.27-1.16-.88-2.13,1.42-3.52,1.87-7.13,1.45-10.91-.22-1.95-.72-3.82-1.08-5.74-.67-3.6-2.5-6.72-4.14-9.94-1.58-3.1-3.43-6.01-5.67-8.66-1.06-1.25-2.35-2.27-3.62-3.32-1.41-1.17-2.88-2.28-4.31-3.41-1.8-1.42-3.15-3.14-4.27-5.06-.51-.87-.65-1.96-.99-2.94-.73-2.09-.63-4.32-1.14-6.45-.32-1.36.05-2.82-.21-4.24-.39-2.07-.47-4.18-1.66-6.05-.73-1.15-1.89-1.67-2.85-2.47-1.94-1.63-3.87-3.31-5.98-4.69-2.25-1.47-4.71-2.23-7.55-1.45-1.7.46-3.41.86-5.09,1.41-2.05.68-3.51,2.15-4.98,3.61-2.33,2.31-3.59,5.24-4.88,8.18-1.28,2.9-1.91,5.96-2.4,9.03-.48,3.01-.67,6.05-.85,9.11-.16,2.76.12,5.45.23,8.16.14,3.46.8,6.9,1.21,10.35.3,2.51.47,5.03.85,7.53.44,2.86.76,5.73.89,8.63.02.47.33.8.48,1.21.12.33.17.67-.21.82-.38.15-.44-.2-.53-.46-.25-.74-.93-1.29-.88-2.08Z"/><path class="cls-1" d="M58.12,153.31c.37-4.65,1.21-9.22,4.09-13.01,1.98-2.6,4.02-5.17,6.31-7.54,1.77-1.83,3.31-3.88,4.59-6.17,1.78-3.19,2.57-6.59,3.12-10.1.48-3.06,1.7-5.78,3.53-8.25,2.01-2.7,4.1-5.37,6.88-7.3,3.01-2.09,6.06-4.09,9.81-4.89,2.22-.47,4.4-1.28,6.68-1.5.86-.08,1.81-.1,2.64.03,5.43.8,10.63,2.28,15.39,5.21,2.55,1.56,5.1,3.15,7.76,4.55,2.63,1.38,5.15,3,7.82,4.29,2.96,1.43,5.92,2.91,9.09,3.83,2.04.59,4.16.91,6.2,1.5,2.66.76,4.92,2.26,5.68,5,.41,1.49.87,3.02,1.08,4.6.33,2.41.64,4.8.55,7.23-.15,3.76-.72,7.45-1.45,11.14-.4,2.01-.64,4.05-.76,6.1-.23,3.71-.83,7.34-2.27,10.8-.32.76-.5,1.57-.78,2.34-1.45,4.01-3.07,7.96-5.59,11.44-1.72,2.38-3.98,4.27-6.04,6.34-2.23,2.23-4.77,3.87-7.45,5.39-1.02.58-2.13.75-3.21.59-1.29-.19-2.45.2-3.58.57-1.21.4-2.41.56-3.66.65-3.35.23-6.64.99-9.99,1.31-2.03.19-4.04.06-6.05.13-1.85.06-3.7-.04-5.56-.03-2.08.01-4.16-.33-6.23-.56-3.92-.43-7.78-1.27-11.62-2.12-3.05-.67-6.1-1.73-8.63-3.7-1.34-1.05-2.6-2.21-3.84-3.4-1.15-1.11-2.29-2.28-3.6-3.22-.45-.32-.73-.72-1-1.13-1.45-2.22-3.65-3.83-5.02-6.1-2.26-3.73-4.3-7.57-4.89-11.98-.09-.67-.01-1.36-.01-2.03ZM156.81,129.27c.43-1.48-.61-3.73-.9-6.06-.16-1.27-.56-2.66-1.19-3.76-.93-1.6-2.64-2.31-4.46-2.71-.93-.2-1.89-.25-2.8-.47-1.77-.43-3.48-1.09-5.23-1.61-1.92-.57-3.68-1.55-5.47-2.4-2.73-1.3-5.42-2.67-8.03-4.24-2.43-1.46-4.89-2.89-7.35-4.31-1.78-1.02-3.54-2.08-5.36-3.05-1.8-.95-3.77-1.31-5.64-1.98-3.8-1.35-7.68-1.3-11.49-.22-1.88.53-3.82.93-5.63,1.91-1.39.75-2.8,1.54-4.09,2.4-2.05,1.38-3.9,3.08-5.42,5.06-1.13,1.46-2.31,2.9-3.19,4.5-.5.92-1.05,1.91-1.14,3.06-.2,2.31-.74,4.57-1.43,6.77-.66,2.11-1.35,4.22-2.48,6.19-.76,1.33-1.48,2.64-2.42,3.86-1.21,1.57-2.7,2.87-4.03,4.33-1.79,1.96-3.39,4.07-5,6.18-.86,1.13-1.52,2.46-2.08,3.77-.43.99-.51,2.13-.85,3.16-.71,2.15-.58,4.34-.21,6.49.46,2.75,1.77,5.17,3.11,7.6,1.13,2.04,2.76,3.63,4.2,5.38.62.76,1.06,1.69,1.78,2.3,2.52,2.16,4.72,4.65,7.19,6.88,1.98,1.78,4.3,2.68,6.69,3.54,1.97.71,4.04.95,6.09,1.31,3.35.59,6.71,1.15,10.09,1.55,1.83.22,3.66.42,5.51.31,1.06-.07,2.16-.18,3.2,0,2.64.48,5.21-.12,7.8-.34,2.79-.24,5.49-1.2,8.32-1.16.76.01,1.47-.22,2.19-.47,1.15-.4,2.36-1.14,3.51-.87,2.56.58,4.38-.79,6.31-1.94,1.14-.69,2.08-1.77,3.28-2.29,3.07-1.32,4.95-3.86,6.72-6.41,2.91-4.18,4.42-9.06,6.08-13.82,1.62-4.63,2.07-9.48,2.34-14.35.05-.99.04-2.01.31-2.94.96-3.35,1.01-6.79,1.22-11.17Z"/><path class="cls-1" d="M89.29,39.5c.2-3.04.16-6.11.75-9.11.62-3.17,1.3-6.35,2.7-9.26,1.37-2.87,3.22-5.34,6.04-7.15,2.86-1.83,7.5-.57,9.35,1.96,1.34,1.84,1.76,3.85,1.94,5.89.21,2.39.36,4.81.65,7.18.3,2.42.88,4.89,2.77,6.7.55.52,1.29.95,2.02,1.16,3.7,1.06,6.53,3.39,8.97,6.2,1.04,1.2,2.27,2.2,3.22,3.53,1.96,2.75,3.51,5.59,4.08,8.96.22,1.31.71,2.59.95,3.92.4,2.27.99,4.5.97,6.83,0,.52-.12,1.01-.22,1.51-.15.82-.26,1.73-1.23,1.71-.95-.02-1.75-.71-1.9-1.68-.17-1.07-.68-2.07-.47-3.23.25-1.33-.73-2.46-.84-3.77-.17-2-.77-3.95-1.28-5.87-.46-1.73-1.26-3.44-2.44-4.99-1.14-1.51-2.45-2.85-3.65-4.28-1.65-1.97-3.48-3.76-5.77-5.01-.96-.52-2.03-.8-3.02-1.28-1.71-.82-2.76-2.15-3.65-3.72-1.57-2.76-1.6-5.86-1.97-8.88-.29-2.36-.08-4.75-.67-7.1-.51-2.04-2.96-4.03-4.94-3.67-.91.16-1.64.69-2.25,1.18-2.57,2.08-4.04,4.88-5.14,7.99-.82,2.34-1.11,4.77-1.67,7.15-.43,1.85-.37,3.75-.54,5.63-.28,2.93.13,5.81.64,8.65.37,2.02.69,4.07,1.36,6.06.89,2.64,1.67,5.33,2.72,7.91.43,1.06.96,2.11,1.76,2.99.21.23.4.5.57.77.21.33.05.69-.22.82-.33.15-.49-.2-.5-.47-.03-1.02-1.08-1.05-1.58-1.64-1.63-1.94-2.54-4.26-3.51-6.52-.84-1.96-1.66-3.94-2.19-6.03-.53-2.06-1.07-4.12-1.3-6.22-.17-1.6-.81-3.15-.52-4.8Z"/><path class="cls-1" d="M51.6,93.57c-.38-.05-.55-.26-.62-.47-1.16-3.7-2.67-7.27-4.23-10.8-1.25-2.83-2.42-5.73-4.06-8.39-.9-1.47-1.54-3.1-2.5-4.54-1.25-1.87-2.46-3.73-4-5.43-1.79-1.98-3.93-3.23-6.18-4.47-2.78-1.54-5.68-2.69-8.78-3.34-2.48-.52-6.18,1.43-6.88,3.82-.37,1.25-.94,2.43-1.16,3.77-.35,2.14.13,4.19.32,6.28.17,1.85.78,3.59,1.44,5.28.45,1.16,1.12,2.28,1.91,3.25.92,1.14,1.68,2.37,2.5,3.57,1.34,1.97,2.82,3.89,3.37,6.26.41,1.76.36,3.49-.45,5.23-.91,1.96-1.2,4.14-1.24,6.29-.07,3.88,1.32,7.36,3.14,10.73,1.13,2.1,2.13,4.26,3.54,6.2.4.55.58,1.28.8,1.95.13.38.14.81-.4.97-.68.2-1.33.76-2.06.05-.91-.87-1.69-1.87-2.29-2.93-1.94-3.41-3.94-6.8-5.16-10.56-.5-1.53-.59-3.15-.82-4.74-.37-2.55.15-5,.76-7.41.29-1.14.66-2.32,1.17-3.43.54-1.17-.25-2.21-.62-3.22-.61-1.63-1.84-2.93-2.79-4.37-2.4-3.62-4.83-7.22-5.66-11.59-.67-3.5-1.22-7.1-.18-10.55.51-1.69,1-3.56,2.4-4.96,1.38-1.38,2.89-2.32,4.8-2.81,1.23-.31,2.49-.81,3.69-.6,1.79.32,3.59.77,5.29,1.52,2.14.95,4.29,1.9,6.26,3.14,1.18.74,2.44,1.44,3.35,2.66.72.97,1.94,1.56,2.68,2.6,2.65,3.73,4.9,7.69,6.56,11.97,1.3,3.34,2.69,6.66,3.67,10.1.72,2.56,1.76,5.06,1.92,7.76.03.48.54.68.52,1.22Z"/><path class="cls-1" d="M133.64,83.17c1.66-.05,2.9.83,4.19,1.42,2.97,1.35,4.73,3.74,5.65,6.88.31,1.06.88,2.02,1.1,3.16.18.93.08,1.71-.08,2.58-.54,2.89-1.97,5.1-4.67,6.38-1.04.49-2.23.49-3.3.35-1.98-.26-3.84-1.07-5.56-2.05-.82-.46-1.43-1.34-2.04-2.09-1.47-1.8-2.29-3.94-2.89-6.14-.36-1.32-.3-2.6.41-3.9.53-.96.68-2.07,1.34-3.06,1.46-2.22,3.44-3.24,5.85-3.53Z"/><path class="cls-1" d="M69.15,119.31c.03,2.13-.4,4.13-1.22,6.06-.85,2-2.58,3.2-4.87,2.93-1.6-.19-3.23-.48-4.65-1.42-3.06-2.03-4.17-6.27-3.55-9.46.45-2.31,1.52-4.3,2.68-6.25,1.64-2.75,5.54-2.68,7.55-1.44,3.72,2.29,3.72,5.96,4.05,9.58Z"/><path class="cls-1" d="M189.54,131c3.49-.11,6.34.74,8.73,2.66,2.11,1.69,3.52,4,4.73,6.44,1.05,2.11,1.56,4.32,1.41,6.6-.11,1.59-.06,3.29-1.05,4.72-1.18,1.7-2.77,2.78-4.76,3.37-2.3.68-4.58.92-6.84-.05-.86-.37-1.75-.79-2.42-1.41-1.28-1.19-2.61-1.17-4.06-.55-1.55.67-3.09,1.09-4.83,1.02-2.55-.1-4.37-1.59-4.79-4.13-.35-2.08-.11-3.94.87-5.9.82-1.65,1.28-3.53,2.04-5.24,1.05-2.35,2.49-4.42,4.8-5.75,3.07-1.76,3.21-1.8,6.18-1.79ZM188.8,133.4c-3.58.04-3.77.33-4.8,1.35-1.5,1.48-2.39,3.39-3.31,5.27-.64,1.3-.91,2.74-1.63,4.03-1.05,1.91-1.44,3.97-.57,6.14.23.56.52.79,1.05.97,2.07.71,3.9-.1,5.61-1.02,1.69-.91,3.17-.6,4.68.19,2.03,1.06,3.89,2.41,6.44,2.05,2.11-.3,4.05-1.92,4.42-3.96.45-2.53-.15-4.87-1.08-7.18-1.03-2.56-2.68-4.74-4.87-6.3-1.77-1.26-3.98-1.75-5.93-1.54Z"/><path class="cls-1" d="M44.58,150.87c.06.85.7,1.73.35,2.81-.39,1.21-.64,2.4-1.89,3.09-.41.23-.62.8-.97,1.17-1.45,1.57-3.42,1.8-5.38,2.09-1.61.24-3.22.17-4.79-.04-2.12-.29-3.57.88-5,2.01-2.32,1.83-6.24,1.8-7.93-.94-.93-1.52-1.86-3.09-1.79-4.88.07-1.93.17-3.88.99-5.75,1.08-2.48,2.93-4.41,4.6-6.4,1.04-1.24,2.78-1.96,4.42-2.59,1.72-.66,3.4-.59,5.17-.42,2.21.21,4.24.87,6.12,1.94,1.75,1,3.43,2.13,4.48,4.01.5.91,1.28,1.66,1.53,2.73.08.35.25.67.1,1.17ZM19.68,154.91c-.17.51.12,1.28.27,2.06.56,3.01,2.42,4.2,4.78,3.04.63-.31,1.24-.72,1.76-1.18,2.14-1.92,4.59-2.43,7.34-1.78.38.09.8.1,1.19.05,1.57-.19,3.1-.59,4.57-1.16,1.17-.45,2.35-2.24,2.12-3.27-.58-2.67-2.15-4.63-4.32-6.24-1.28-.95-2.77-1.2-4.2-1.72-2.54-.93-4.84-.67-7.17.64-1.19.67-2.24,1.62-3.61,1.95-.26.06-.41.21-.54.42-1.34,2.1-2.17,4.36-2.19,7.19Z"/><path class="cls-1" d="M176.53,126.02c-.49-1.8.79-3.18,1.36-4.67.65-1.71,2.58-1.78,4.2-1.9,1.36-.1,2.25.9,2.87,1.85,1.06,1.64,1.73,3.46.62,5.41-.13.24-.22.57-.42.69-1.94,1.1-3.95,2.02-6.27,1.56-1.41-.27-2.45-1.59-2.35-2.93ZM183.83,124.83c-.44-2.26-1.3-3.47-3.62-2.45-.44.19-.87.39-1.31.56-.93.35-1.57,1.62-1.28,2.55.49,1.58,1.14,2.01,2.52,1.69.53-.12,1.08-.2,1.61-.31,1.35-.28,2.07-1,2.07-2.04Z"/><path class="cls-1" d="M13.47,138.31c-.14-1.91,1.67-3.82,3.75-3.96,1.76-.12,4.53,2.3,4.62,4.09.11,2.26-2.09,5.08-4.12,5.15-2.38.07-3.84-1.7-4.26-5.27ZM19.46,139.33c0-1.12-1-2.28-1.96-2.29-.69,0-2.63,1.7-2.6,2.29.03.71,1.68,2.41,2.38,2.45.9.05,2.19-1.39,2.18-2.45Z"/><path class="cls-1" d="M167.17,139.92c-.05-2.31,1.14-3.94,2.95-5.16,1.35-.91,3.37.05,4.34,1.84,1.83,3.4-.88,6.3-3.44,6.83-2.87.6-3.74-.28-3.85-3.51ZM172.79,139.22c-.04-.67-.2-1.37-.79-1.94-.46-.44-1.08-.34-1.23.02-.5,1.18-1.64,1.8-2.26,2.86-.37.64.14,1.98.83,2.09,1.2.19,3.42-1.7,3.45-3.03Z"/><path class="cls-1" d="M5.54,151.01c0-1.65,1.47-2.68,2.95-2.58,2.67.17,4.13,1.75,5.19,3.96.46.97,0,2.73-1.03,3.77-.63.64-2.35.92-3.22.31-1.82-1.28-3.42-2.8-3.86-5.14-.03-.16-.02-.32-.02-.31ZM11.54,153.47c-.02-1.63-2.57-3-4.06-2.19-.41.22-.37.52-.08.74.97.76,1.69,1.83,2.9,2.29.67.26,1.24-.13,1.24-.84Z"/><path class="cls-1" d="M30.15,138.2c-2.29-.06-3.95-2.18-3.58-4.45.2-1.23.45-2.42.95-3.58.39-.89,1.11-.99,1.84-.94,2.43.17,4.54,2.29,4.75,4.67.19,2.07-1.92,4.36-3.97,4.3ZM27.85,133.29c-.02,1.46.91,2.71,2.16,2.77.76.03,1.71-1.06,1.67-1.92-.04-.77-1.66-2.27-2.5-2.18-.63.07-1.38.22-1.33,1.33Z"/><path class="cls-1" d="M42.02,134.34c2.17-.29,5.15,2.66,5.01,4.96-.09,1.41-1.16,2.29-2.18,3.01-.9.64-1.91.36-2.82-.34-1.12-.88-1.78-1.98-1.94-3.38-.03-.24,0-.47-.23-.63-.73-.53-.97-1.19-.5-2.02.5-.89,1.08-1.68,2.27-1.6.12,0,.24,0,.39,0ZM42.18,137.17c-.39.28-1.09.04-1.07.77.03.72,1.34,2.2,2.02,2.35.55.12,1.46-.74,1.23-1.23-.43-.94-1.38-1.33-2.19-1.88Z"/><path class="cls-1" d="M209.46,145.57c-2.17.22-3.33-1.96-3.02-4.01.24-1.65.76-3.31,1.96-4.64,1.03-1.14,2.5-1.14,3.67-.15,2.94,2.49,1.5,6.88-1.21,8.55-.44.27-.97.31-1.39.25ZM208.06,141.81c-.01,1.37.85,2.12,1.99,1.59,1.19-.55,1.81-2.8,1.28-4.02-.47-1.08-1.41-1.11-2.23-1.1-.69,0-.64.91-.81,1.43-.2.62-.16,1.31-.23,2.1Z"/><path class="cls-1" d="M197.97,124.49c.16-1.08.13-2.23.51-3.23.42-1.09,3.19-1.63,4.28-.99,2.09,1.22,3.03,4.01,2.46,5.9-.76,2.5-2.95,2.7-4.59,2.05-1.55-.62-2.85-1.7-2.67-3.73ZM203.27,125.19c.05-1.14.03-1.19-.92-2.3-.53-.62-2.04-.78-2.94-.2-.71.46-.58,1.25-.45,1.94.07.38.27.75.49,1.07.55.83,1.96,1.19,3.01,1.02,1.07-.18.74-.92.81-1.53Z"/><path class="cls-1" d="M136.73,79.15c-.18.45-.32.88-.91.76-.39-.08-.77-.15-1.15-.28-2.21-.74-4.33-.46-6.41.51-.47.22-1.14.74-1.44.14-.2-.38.29-1.09.76-1.49,1.08-.92,2.46-.97,3.73-1.36,1.96-.6,3.42.67,5.07,1.27.15.05.23.3.34.45Z"/><path class="cls-1" d="M49.14,110.4c.41-2.41,1.6-4.39,3.34-6.06.34-.33.72-.62,1.08-.93.4-.35.81-.47,1.27-.08.52.42.26.77.02,1.23-.33.65-1,.87-1.47,1.34-1.38,1.38-2.08,3.1-2.68,4.9-.13.38-.06,1.06-.63.93-.54-.12-1.06-.57-.93-1.32Z"/><path class="cls-1" d="M109.14,123.59c.54-1.13.32-2.31,1.29-3.23.85-.81,1.57-.69,2.45-.42.26.08.59.53.74-.03.29-1.08.87-1.82,2-2.12,1.31-.35,1.8-.32,3.43.42-.18-1.34-.17-2.61.33-3.83.4-.97,1.19-1.27,2.04-.68,1.03.7,1.94,1.53,2.29,2.77.29,1.04,1.17,1.81,1.28,2.94.05.57.6.35.85.23.43-.22.91-.26,1.27-.12.58.22,1.57.04,1.52,1.13-.05,1.03-.65,1.78-1.61,1.93-3.66.58-7.08,1.76-10.39,3.42-1.09.55-2.23,1.09-3.45,1.44-1.75.5-3.08,1.84-4.67,2.71-3.07,1.68-5.35,4.34-7.96,6.59-.2.18-.33.44-.5.67-.31.42-.72.68-1.23.44-.49-.23-.56-.87-.36-1.14,1.18-1.58-.26-2.32-1.04-3.11-1.11-1.13-1.49-2.6-2.07-3.95-.54-1.26.83-2.87,2.33-2.94,1.59-.08,3.19-.04,4.68.63.55.25.69.04.79-.42.17-.73.34-1.45.61-2.17.65-1.73,2.19-2.46,3.95-1.77.47.19.93.42,1.43.64ZM102.69,130.66c-1.32-1.15-2.78-1.71-4.49-1.59-.61.04-.87.26-.71.9.33,1.38.72,2.7,1.7,3.81.52.6.8.47,1.1-.05.65-1.13,1.42-2.17,2.41-3.08ZM109.21,125.83c-.83-1.15-1.98-1.6-3.24-1.76-.63-.08-1.2.08-1.3.99-.1.92-.37,1.85-.72,2.72-.22.54.23.58.37.85.14.29.36.31.57.12,1.29-1.19,2.79-2.07,4.33-2.92ZM114.34,123.6c-1.07-.38-1.26-1.57-2.16-2.13-.61-.39-1.2-.5-1.51.15-.33.7-.48,1.52-.52,2.29-.02.44.18,1.39.87.97,1.03-.63,2.29-.49,3.31-1.27ZM115.26,123.2c1.2-.61,2.29-1.15,3.38-1.71-.4-.56-.76-1.02-1.08-1.52-.47-.72-1.2-.57-1.83-.48-.67.09-.79.75-.76,1.32.03.74.17,1.48.29,2.39ZM121.2,117.14c.08.95.19,1.89.24,2.83.02.43.17.56.58.48.8-.16,1.54-.56,2.4-.47.36.04.47-.4.18-.57-1.11-.64-1.5-1.91-2.44-2.68-.21-.17-.42-.57-.8-.34-.29.18-.11.51-.16.76Z"/><path class="cls-1" d="M88.17,120.32c.4-1.35,1.59-1.86,2.37-2.78.28-.33.5-.49.09-.95-1.17-1.3-1.01-3.06.2-4.44,1.03-1.18,2.26-2.08,3.55-2.93,2.75-1.82,5.63-3.38,8.77-4.41,1.81-.59,3.66-.55,5.38.29.96.47,1.31,1.51,1.65,2.48.19.55.25,1.35,1.18.48.54-.5,1.37-.71,2.09-1,.26-.1.67-.26.77.21.08.37-.14.58-.55.61-.84.07-1.61.42-2.41.62-.6.15-.85.5-.97.9-1.07,3.73-3.98,5.75-7.15,7.29-3.02,1.46-6.3,1.91-9.65.9-.63-.19-1.25-.17-1.9.4-1.03.9-2.27,1.56-3.42,2.32Z"/></svg>